<svg width="107" height="78" viewBox="0 0 107 78" fill="none" xmlns="http://www.w3.org/2000/svg">
<path d="M36.2314 0.17897C33.4893 0.838333 31.3311 3.31539 30.818 6.45181C29.9512 11.6198 34.3739 16.2175 39.3626 15.3086C40.4948 15.1126 40.6187 15.1126 40.9017 15.4156C41.0786 15.6116 43.2723 18.5163 45.8021 21.9022C48.3141 25.2882 53.2852 31.9352 56.8411 36.6933C60.3969 41.4514 67.4201 50.8607 72.4796 57.6325C77.5215 64.3865 81.7495 70.0534 81.8911 70.196C82.1387 70.4455 81.0419 68.7169 75.2394 59.8066C59.53 35.6597 54.8597 28.4958 51.1623 22.7933C45.1121 13.5088 44.4399 12.4573 44.4399 12.3504C44.4399 12.297 44.6345 11.9584 44.8821 11.602C45.1298 11.2455 45.4836 10.4258 45.6782 9.80208C47.1996 4.90142 43.343 -0.0705185 38.0712 0.000762939C37.4344 0.0185852 36.6206 0.0898666 36.2314 0.17897Z" fill="#5587A3"/>
<path d="M53.6921 19.8885C53.5506 19.9954 54.612 21.7775 57.2656 25.8227C59.3354 29.0126 62.1306 33.2896 63.4751 35.3567C64.8019 37.4061 66.1994 39.4198 66.5532 39.8297C67.4024 40.7564 68.6761 42.6988 72.0373 48.0985C78.2468 58.0958 79.3436 59.5749 81.8911 61.2857C86.3137 64.2617 91.8509 64.2617 91.8509 61.2857C91.8509 60.8045 91.6033 60.2164 90.9487 59.1294C88.7727 55.5296 84.067 46.1025 82.5987 42.3959C81.9264 40.7029 80.8827 37.317 80.8827 36.8359C80.8827 36.7646 81.2542 36.6576 81.7318 36.6042C82.1918 36.5329 83.9609 36.2121 85.6592 35.8735C96.9282 33.646 104.5 30.1353 106.446 26.2504C107.366 24.4327 107.136 22.4903 105.791 20.53C105.384 19.9063 105.172 19.7459 104.871 19.8172C104.677 19.8529 103.226 20.2271 101.652 20.637C95.7783 22.1339 91.0902 22.7754 85.04 22.918C78.4237 23.0606 73.8241 22.615 62.732 20.7617C58.044 19.9776 54.1167 19.6034 53.6921 19.8885Z" fill="#5587A3"/>
<path d="M42.5824 27.9969C36.6383 35.428 33.3478 39.1704 31.791 40.2574C31.2249 40.6495 27.8106 41.6831 15.6041 45.1403C7.09483 47.5639 0.0716218 49.5598 0.00085905 49.5776C-0.105285 49.6132 9.65998 77.0925 9.83689 77.2707C9.85458 77.3064 14.8257 75.8095 20.8582 73.9383C26.8907 72.085 31.9326 70.5524 32.0387 70.5524C32.1625 70.5524 33.0294 71.1939 33.967 71.9602C37.4698 74.8293 39.3096 75.2748 45.519 74.7759C47.4296 74.6155 52.0469 74.4551 55.9388 74.4016C63.2451 74.2947 66.6771 74.1165 70.0914 73.6532C74.7617 73.0294 76.9908 72.0493 76.9908 70.6237C76.9908 69.2693 75.8763 67.309 74.0364 65.4557C70.6929 62.0876 67.5262 60.8936 61.8652 60.858C60.3084 60.8402 58.1148 60.9115 56.9826 61.0006C54.9305 61.1609 54.9305 61.1609 54.0106 60.662C51.87 59.4858 50.8793 56.9018 51.0385 52.91C51.1977 48.9182 52.4361 45.7996 54.9128 43.1978C55.6735 42.4137 56.2927 41.7543 56.2927 41.7187C56.2927 41.6474 44.9352 26.4643 44.6168 26.1257C44.3514 25.8228 44.2453 25.9297 42.5824 27.9969Z" fill="#5587A3"/>
</svg>
