<svg width="39" height="87" viewBox="0 0 39 87" fill="none" xmlns="http://www.w3.org/2000/svg">
<path d="M11.3869 44.012C14.3751 44.2663 17.295 43.4961 19.5002 41.9301C21.4286 43.2998 23.8791 44.0599 26.4849 44.0599C26.8585 44.0599 27.238 44.0437 27.6125 44.012C32.6034 43.5894 36.6254 40.2979 37.175 36.1867C37.5584 33.3199 36.2385 30.4685 33.644 28.5589C30.3437 26.129 28.4511 22.7811 28.4511 19.3736V2.17402C28.4511 1.27804 27.5707 0.551605 26.4849 0.551605H12.5151C11.4292 0.551605 10.5488 1.27804 10.5488 2.17402V19.3736C10.5488 22.7807 8.65577 26.129 5.35539 28.5589C2.76189 30.4685 1.44154 33.3199 1.82447 36.1871C2.37453 40.2979 6.39555 43.589 11.3869 44.012Z" fill="#5587A3"/>
<path d="M38.9283 47.5895C38.9264 47.5749 38.9249 47.5611 38.9234 47.553C38.7165 46.0592 37.171 44.9328 35.3286 44.9328C34.3583 44.9328 33.443 45.2456 32.7513 45.8126C31.4841 46.8509 29.8299 47.504 28.0937 47.6512C26.2823 47.8041 24.4906 47.446 22.9932 46.6311C21.958 46.0677 20.7497 45.77 19.5002 45.77C18.2501 45.77 17.0423 46.0677 16.0076 46.6311C14.5098 47.4455 12.7146 47.8049 10.9066 47.6512C9.1704 47.504 7.51628 46.8509 6.24902 45.8126C5.55689 45.2456 4.6411 44.9328 3.67124 44.9328C1.82885 44.9328 0.282879 46.0596 0.0715052 47.5899C-0.35075 50.7484 1.1151 53.8784 3.99273 55.964C7.66424 58.6252 9.77011 62.3028 9.77011 66.055V85.3776C9.77011 86.2736 10.6505 87 11.7364 87H27.2645C28.3503 87 29.2307 86.2736 29.2307 85.3776V66.055C29.2307 62.3032 31.3366 58.6252 35.0081 55.964C37.8852 53.878 39.3511 50.7476 38.9283 47.5895Z" fill="#5587A3"/>
</svg>
