<svg width="94" height="70" viewBox="0 0 94 70" fill="none" xmlns="http://www.w3.org/2000/svg">
<path d="M30.08 26C28.5231 23.7969 25.5709 23.3438 23.5 25C21.4291 26.6562 21.0031 29.7969 22.56 32L28.1559 39.9375C28.8609 40.9375 28.7581 42.3281 27.9356 43.2031L26.0556 45.2031C25.0716 46.25 23.4706 46.1719 22.5894 45.0312L9.4 28.1875V5C9.4 2.23438 7.29969 0 4.7 0C2.10031 0 0 2.23438 0 5V39.125C0 40.8281 0.543437 42.4844 1.54219 43.8125L16.8319 64.7969C17.5662 65.8125 18.0656 66.9688 18.3594 68.1875C18.6237 69.2656 19.5491 70 20.6066 70H39.95C41.2425 70 42.3 68.875 42.3 67.5V50C42.3 45.6719 40.9781 41.4688 38.54 38L30.08 26ZM89.3 0C86.7003 0 84.6 2.23438 84.6 5V28.1875L71.4106 45.0312C70.5294 46.1562 68.9137 46.2344 67.9444 45.2031L66.0644 43.2031C65.2419 42.3281 65.1391 40.9375 65.8441 39.9375L71.44 32C72.9969 29.7969 72.5709 26.6562 70.5 25C68.4291 23.3438 65.4769 23.7969 63.92 26L55.46 38C53.0219 41.4688 51.7 45.6719 51.7 50V67.5C51.7 68.875 52.7575 70 54.05 70H73.3934C74.4362 70 75.3762 69.2656 75.6406 68.1875C75.9344 66.9688 76.4338 65.8125 77.1681 64.7969L92.4578 43.8125C93.4566 42.4844 94 40.8281 94 39.125V5C94 2.23438 91.8997 0 89.3 0Z" fill="#ECC069"/>
</svg>
