<svg width="142" height="240" viewBox="0 0 142 240" fill="none" xmlns="http://www.w3.org/2000/svg">
<path d="M20.761 87.5109C29.3071 88.8361 36.3975 89.974 45.1459 91.4143C48.0036 99.6964 53.9751 109.174 56.725 113.567C58.6795 116.678 61.9686 120.783 67.0909 125.94C69.3959 128.259 73.5072 130.996 78.2656 133.848C83.1857 136.786 87.3779 138.01 89.7773 138.687C92.7563 139.537 97.1912 140.761 103.028 140.545C106.519 140.416 109.417 140.315 112.801 138.687C113.933 138.14 116.535 136.699 121.172 130.852C123.598 127.798 128.927 117.194 132 111C133.739 111.13 135.676 110.888 137.415 111.003C137.132 113.783 134.207 124.125 132.683 128.605C131.686 131.529 129.772 136.555 125.323 142.029C121.563 146.667 117.721 149.216 115.551 150.628C113.933 151.679 110.657 153.581 106.357 155.683C101.1 158.262 97.2451 157.239 93.2551 157.311C90.0199 157.369 84.7898 156.461 78.6296 154.848C73.5612 153.537 70.8248 152.673 66.3899 150.599C62.4404 148.741 57.5607 145.961 52.0879 141.28C46.9656 136.887 43.9462 132.882 39.8753 127.481C36.0066 122.339 33.2702 117.557 30.0755 110.802C27.9592 106.337 24 96.5 20.761 87.5109Z" fill="url(#paint0_linear_267_4)" stroke="#1C191A" stroke-width="0.5" stroke-miterlimit="10"/>
<path d="M19.5 87.5C22.4521 85.6995 22.5567 95.442 29 109.5C29.6605 110.955 32.7176 116.347 37.3007 123.347C38.3117 124.888 41.3177 129.382 46.0221 134.525C48.7315 137.492 51.7645 140.776 56.4824 144.218C57.6956 145.097 61.0925 147.502 65.9047 149.807C70.2722 151.895 73.7095 152.918 77.066 153.912C81.8648 155.323 85.8682 156.072 88.2272 156.519C89.0495 156.677 89.8582 156.807 90.7614 156.951C92.379 157.196 94.5492 157.527 97.2856 157.628C98.2561 157.671 99.5637 157.686 101.127 157.628C96.8812 159.443 93.9022 160.566 91.3545 160.984C88.9551 161.387 86.6635 161.776 82.4579 162.05C77.9017 162.338 77.4973 162.381 72.5233 162.194C63.2627 161.863 63.9771 161.445 61.2003 161.013C59.9871 160.826 55.067 159.63 49.4864 156.879C45.429 154.877 42.8544 152.803 38.6756 149.418C36.6537 147.79 33.2163 144.996 29.2533 140.848C27.4066 138.918 21.3002 133.286 16.3397 123.693C12.0666 115.44 7.02519 101.843 4.89539 95.2601C16.2588 89.3402 16.1031 89.5741 19.5 87.5Z" fill="url(#paint1_linear_267_4)" stroke="#1C191A" stroke-width="0.5" stroke-miterlimit="10"/>
<path d="M132 111.003C130.086 115.569 124.393 124.773 123.059 127.251C121.886 129.426 119.87 132.724 116.5 135.835C114.438 137.736 110.815 139.366 107 140C104 141 90.9905 139.393 88.0519 137.981C87.2431 137.592 97.9056 135.648 102.597 131.384C104.052 130.059 106.748 127.712 109.35 122.152C110.159 120.423 110.711 119.199 110.887 118.133C117.883 115.829 125.934 113.305 132 111V111.003Z" fill="url(#paint2_linear_267_4)" stroke="#1C191A" stroke-width="0.5" stroke-miterlimit="10"/>
<path d="M16.9058 239.297H43.8383C43.5283 232.685 44.2832 225.671 44.7685 222.344C45.0246 220.529 45.429 217.446 48.3001 210.864C50.9961 204.714 53.7729 201.718 54.8513 200.364C57.0755 197.569 57.5338 197.339 59.4344 195.61C62.1843 193.09 66.2624 191.335 68.5 190.5C67.1385 188.628 62.7504 185.787 58.3695 184.39C55.2827 183.41 52.4533 183.712 50 184C48.005 184.23 44.8493 184.649 41.3581 186.666C38.1634 188.509 35.3731 191.174 31.3965 196.734C28.6871 200.522 27.7119 203.072 26 206.5C24.3016 209.899 22.9582 212.693 20.6936 221.465C19.4804 226.189 18.0381 232.426 16.8923 239.297H16.9058Z" fill="url(#paint3_linear_267_4)" stroke="#1C191A" stroke-width="0.5" stroke-miterlimit="10"/>
<path d="M16.798 236.935C18.5908 228.264 19.5883 223.208 21.1519 218.095C23.5109 210.389 24.8723 207.522 26.1125 205.218C27.5413 202.553 29.725 198.145 33.4859 193.652C38.1903 188.048 39.2013 187.616 40.6302 186.666C44.1484 184.332 47.5453 183.843 49.1359 183.641C53.9077 183.007 57.5742 184.174 59.4074 184.779C60.5937 185.168 64.4758 186.55 68.6276 190.079C72.9007 193.724 74.9631 197.598 78.8992 205.232C81.312 209.899 83.8867 214.94 85.9895 222.272C87.7419 228.393 88.4833 233.78 88.8203 237.799C96.2611 237.928 105.306 238.13 112.76 238.245C112.639 228.883 109.673 221.062 108.312 215.459C107.571 212.362 106.223 206.554 103.5 200C99.9953 191.588 96.3959 185.888 95.4658 184.476C92.2576 179.622 89.7504 176.526 85.639 173.04C79.8562 168.143 74.1004 166.198 71.4583 165.464C67.711 164.412 59.1378 162.007 49.8368 166.227C45.5907 168.143 42.6117 170.044 38.4464 174.207C36.8289 175.834 32.1244 180.703 27.8379 187.789C23.767 194.516 21.8394 200.176 20.114 205.146C18.793 208.934 17.9572 213.716 16.8788 219.621C15.9757 224.576 16.3532 231.708 16.8789 239.5L16.798 236.935Z" fill="url(#paint4_linear_267_4)" stroke="#1C191A" stroke-width="0.5" stroke-miterlimit="10"/>
<path d="M112.949 238.159C122.277 238.029 131.618 237.9 140.946 237.784C141.243 233.766 140.663 228.84 139.612 222.459C138.453 215.372 136.902 211.094 136.161 209.308C133.829 203.619 132.737 199.931 128.532 192.744C126.065 188.538 122.371 183.713 117.95 179.334C115.335 176.727 111.736 173.832 106.627 170.923C104.632 169.785 100.224 167.941 94.8726 166.601C92.6215 166.04 90.8287 165.78 81.4063 165.089C76.9176 164.758 71.7818 164.614 69.0454 164.426C71.9705 165.391 77.2276 166.889 81.4063 169.626C83.6709 171.11 88.0384 174.235 92.3923 179.478C96.1667 184.001 98.1751 188.005 100.548 192.73C101.168 193.954 103.324 198.333 105.508 204.469C105.98 205.808 107.422 209.928 109.053 216.582C110.374 221.969 111.884 229.257 112.949 238.173V238.159Z" fill="url(#paint5_linear_267_4)" stroke="#1C191A" stroke-width="0.5" stroke-miterlimit="10"/>
<path d="M44.728 80.626C43.9866 68.7718 44.2428 58.8044 45.3481 52.4236C46.5074 45.6971 47.7475 42.2834 49.5942 39.1722C52.8833 33.6124 57.2911 30.4004 59.8658 28.5711C61.6855 27.2748 64.6915 25.1575 69.0859 23.6451C77.5916 20.7211 84.9516 22.2335 87.5127 22.8817C93.2551 24.3365 97.1103 27.0155 100.979 29.6946C105.845 33.0651 109.053 36.4355 110.9 38.4088C115.658 43.4501 118.53 47.9873 119.406 49.3844C122.627 54.5842 124.312 58.8909 125.782 62.6358C127.035 65.8478 128.734 70.2265 130.028 76.2617C130.891 80.3091 131.201 83.3195 131.794 89.1386C132.333 94.4535 132.454 97.9248 132.508 99.7397C132.562 102.03 132.683 103.917 132.643 105.371C134.058 105.371 135.191 105.242 136.606 105.242C137.523 96.4412 137.347 89.1097 136.754 83.4635C135.824 74.5188 133.964 67.8355 133.209 65.2861C132.09 61.4979 129.866 54.8002 125.768 47.1087C121.832 39.7052 117.963 34.7647 115.133 31.207C111.224 26.2665 107.031 21.038 100.251 15.6799C94.6705 11.2723 89.7908 8.72289 87.1353 7.35454C82.3365 4.87711 79.0205 3.16307 74.3835 2.05399C64.5028 -0.308213 56.3071 1.90995 53.1259 2.81738C43.7979 5.45325 38.4195 10.941 37.085 12.0789C35.8314 13.1304 30.8439 16.5009 26.7191 23.6739C24.4275 27.6349 23.12 31.5815 22.136 34.2462C21.1654 36.8676 20.5319 39.8348 19.7231 43.7814C19.0626 46.9934 18.4156 50.0902 18.1594 55.3331C17.8898 61.0658 18.0381 67.6051 18.5099 75.3686C27.137 77.3852 36.0875 78.6095 44.7145 80.626H44.728Z" fill="url(#paint6_linear_267_4)" stroke="#1C191A" stroke-width="0.5" stroke-miterlimit="10"/>
<path d="M112.464 111.5C118.247 109.484 126.685 107.244 132.481 105.227C133.115 95.8651 131.915 88.4616 131.349 82.8442C130.54 74.9078 129.367 70.8603 128.869 69.2183C127.548 64.926 126.078 61.9156 123.908 57.4793C122.061 53.7056 119.789 50.2676 116.5 45.5C114.33 42.36 112.375 39.5225 109.059 36.4113C105.635 33.1993 102.92 30.8902 99.8063 29.0753C97.1777 27.5341 94.1178 25.2007 89.656 23.7027C85.8817 22.4208 81.6897 21.5823 76.5 22C69.7871 22.5329 64.5464 25.3683 61.5 27.5C57.7122 30.1503 54.4469 33.1227 52.735 35.1824C56.3341 34.1598 60.7824 34.5199 64.7859 34.7791C69.2612 35.0672 71.4314 35.9026 74.2756 36.666C80.5033 38.3224 84.7494 41.5921 86.677 43.1045C89.7369 45.4955 91.6645 47.8577 95.5332 52.5677C99.1458 56.9608 101.505 59.8415 104.039 64.3067C107.503 70.4138 109.283 75.6712 110.415 79.8338C112.113 86.013 112.531 89.6427 112.693 92.0049C113.043 97.2622 112.882 102.948 112.464 111V111.5Z" fill="url(#paint7_linear_267_4)" stroke="#1C191A" stroke-width="0.5" stroke-miterlimit="10"/>
<path d="M18.3077 75.4983C12.754 78.4078 7.8609 80.1651 2.30724 83.0746C0.959267 74.9365 0.770551 67.9508 1.21538 63.2119C1.51194 60.0719 2.07809 54.5121 4.41008 47.6848C5.24583 45.2218 6.56684 40.6846 9.68066 35.5425C12.8349 30.3572 15.9083 27.0011 17.782 24.927C21.7585 20.5195 24.6567 17.5811 28.6332 14.6284C32.2323 11.9637 43.0026 6.95123 46.8308 5.48206C42.706 7.06646 32.9467 15.5214 30.7765 18.2293C26.8943 23.0545 24.7375 26.5402 24.1984 27.8653C22.7695 31.4375 21.9338 33.3676 20.6532 38.2648C20.2083 39.9788 19.0626 43.1044 18.5908 47.9729C17.8764 55.2755 17.5933 56.4422 17.782 60.7057C17.9033 63.4568 17.9707 70.9899 18.3212 75.4839L18.3077 75.4983Z" fill="url(#paint8_linear_267_4)" stroke="#1C191A" stroke-width="0.5" stroke-miterlimit="10"/>
<path d="M18.1325 75.2678C25.8159 77.2843 36.1145 78.9264 43.7979 80.9429C38.4465 83.1466 37.1524 83.838 31.2213 85.9697C22.136 84.7598 12.5653 84.3277 3.03516 83.1466C8.37314 80.0498 13.0371 77.8173 18.1325 75.2678Z" fill="url(#paint9_linear_267_4)" stroke="#1C191A" stroke-width="0.5" stroke-miterlimit="10"/>
<path d="M131.902 105.616C133.33 105.674 134.071 105.559 135.5 105.616C128.154 108.252 120.36 110.451 113 113C112.393 112.237 112.972 112.908 112.5 112C118.566 109.71 125.836 107.907 131.902 105.616Z" fill="#2484C6" stroke="#1C191A" stroke-width="0.5" stroke-miterlimit="10"/>
<path d="M80.3416 131.802C90.6152 131.802 98.9436 122.89 98.9436 111.896C98.9436 100.903 90.6152 91.9905 80.3416 91.9905C70.0679 91.9905 61.7395 100.903 61.7395 111.896C61.7395 122.89 70.0679 131.802 80.3416 131.802Z" fill="url(#paint10_linear_267_4)" stroke="#1C191A" stroke-width="0.5" stroke-miterlimit="10"/>
<defs>
<linearGradient id="paint0_linear_267_4" x1="20.7611" y1="122.483" x2="137.428" y2="122.483" gradientUnits="userSpaceOnUse">
<stop stop-color="white"/>
<stop offset="1" stop-color="#716564" stop-opacity="0.2"/>
</linearGradient>
<linearGradient id="paint1_linear_267_4" x1="4.93582" y1="124.802" x2="101.154" y2="124.802" gradientUnits="userSpaceOnUse">
<stop stop-color="#716564" stop-opacity="0.6"/>
<stop offset="0.59" stop-color="#716564" stop-opacity="0.6724"/>
<stop offset="1" stop-color="#716564"/>
</linearGradient>
<linearGradient id="paint2_linear_267_4" x1="87.9979" y1="125.58" x2="131.403" y2="125.58" gradientUnits="userSpaceOnUse">
<stop stop-color="#716564" stop-opacity="0.6"/>
<stop offset="1" stop-color="#716564"/>
</linearGradient>
<linearGradient id="paint3_linear_267_4" x1="16.9058" y1="211.512" x2="68.4793" y2="211.512" gradientUnits="userSpaceOnUse">
<stop stop-color="white"/>
<stop offset="1" stop-color="#716564"/>
</linearGradient>
<linearGradient id="paint4_linear_267_4" x1="16.3126" y1="201.026" x2="112.787" y2="201.026" gradientUnits="userSpaceOnUse">
<stop stop-color="#716564"/>
<stop offset="1" stop-color="#716564" stop-opacity="0.3"/>
</linearGradient>
<linearGradient id="paint5_linear_267_4" x1="69.0454" y1="201.285" x2="141.014" y2="201.285" gradientUnits="userSpaceOnUse">
<stop offset="0.395" stop-color="#716564" stop-opacity="0.7"/>
<stop offset="1" stop-color="white" stop-opacity="0.4"/>
</linearGradient>
<linearGradient id="paint6_linear_267_4" x1="18.0381" y1="53.2014" x2="137.253" y2="53.2014" gradientUnits="userSpaceOnUse">
<stop stop-color="#26688D" stop-opacity="0.5"/>
<stop offset="1" stop-color="#26688D"/>
</linearGradient>
<linearGradient id="paint7_linear_267_4" x1="52.735" y1="66.8129" x2="132.656" y2="66.8129" gradientUnits="userSpaceOnUse">
<stop stop-color="#26688D" stop-opacity="0.5"/>
<stop offset="1" stop-color="#26688D"/>
</linearGradient>
<linearGradient id="paint8_linear_267_4" x1="0.999706" y1="44.2855" x2="46.8309" y2="44.2855" gradientUnits="userSpaceOnUse">
<stop stop-color="#26688D" stop-opacity="0.7"/>
<stop offset="1" stop-color="#26688D"/>
</linearGradient>
<linearGradient id="paint9_linear_267_4" x1="3.02168" y1="80.626" x2="43.7844" y2="80.626" gradientUnits="userSpaceOnUse">
<stop stop-color="#26688D" stop-opacity="0.7"/>
<stop offset="1" stop-color="#26688D"/>
</linearGradient>
<linearGradient id="paint10_linear_267_4" x1="61.7395" y1="111.896" x2="98.9436" y2="111.896" gradientUnits="userSpaceOnUse">
<stop stop-color="#716564" stop-opacity="0.8"/>
<stop offset="1" stop-color="#716564" stop-opacity="0"/>
</linearGradient>
</defs>
</svg>
