<svg width="80" height="88" viewBox="0 0 80 88" fill="none" xmlns="http://www.w3.org/2000/svg">
<path d="M36.3999 0.79199C32.7999 2.55199 30.7999 6.07199 30.7999 10.648C30.7999 14.344 31.1999 15.312 33.4399 17.776C35.6799 20.24 36.5599 20.68 39.9999 20.68C43.4399 20.68 44.3199 20.24 46.5599 17.776C48.7999 15.312 49.1999 14.344 49.1999 10.56C49.1999 6.86399 48.7999 5.80799 46.7199 3.43199C44.0799 0.52799 39.3599 -0.616009 36.3999 0.79199Z" fill="#658576"/>
<path d="M27.6 25.08C26.48 26.224 25.6 28.072 25.6 29.216C25.68 31.856 34.08 54.736 35.44 55.616C37.04 56.76 37.36 56.408 37.04 54.12C36.8 52.976 37.04 50.776 37.44 49.28C38.16 46.992 38 45.672 36 40.48C33.36 33.792 33.28 33.44 34.32 33.44C34.72 33.44 35.92 35.816 36.96 38.72C37.92 41.624 38.96 44 39.28 44C39.52 44 40.72 41.624 42 38.72C43.28 35.816 44.56 33.44 44.96 33.44C45.92 33.44 45.92 33.528 42 42.768C40 47.432 38.4 52.184 38.4 53.328C38.4 55.44 40.48 56.76 42.56 55.88C44.08 55.264 54.4 31.768 54.4 29.128C54.4 28.072 53.52 26.224 52.4 25.08C50.56 22.968 50.08 22.88 40 22.88C29.92 22.88 29.44 22.968 27.6 25.08Z" fill="#658576"/>
<path d="M48.48 48.4C44.32 57.376 43.68 58.08 39.2 58.08C34.72 58.08 33.12 56.408 30.4 49.016C29.44 46.288 28.48 44 28.32 44C28.24 44 26.96 47.96 25.44 52.8C23.44 59.664 23.04 62.04 23.68 63.184C24.48 64.504 26.4 64.68 39.6 64.944C54.96 65.208 56.8 64.856 56.8 61.688C56.8 60.896 55.6 56.144 54.08 51.04L51.44 41.8L48.48 48.4Z" fill="#658576"/>
<path d="M32 76.032C32 85.712 32.72 88 36 88C40.08 88 41.44 80.432 38.32 75.592C37.12 73.744 36.72 71.984 36.96 69.96C37.28 66.968 37.2 66.88 34.64 66.88H32V76.032Z" fill="#658576"/>
<path d="M38.9599 67.496C37.5999 68.992 38.7199 73.04 42.2399 78.936C46.0799 85.536 47.5999 86.768 50.3999 85.8C53.4399 84.744 53.1999 81.4 49.6799 75.152C47.8399 71.896 46.4799 68.728 46.7199 68.112C47.0399 67.144 46.2399 66.88 43.2799 66.88C41.1999 66.88 39.1999 67.144 38.9599 67.496Z" fill="#658576"/>
</svg>
