<svg width="602" height="2984" viewBox="0 0 602 2984" fill="none" xmlns="http://www.w3.org/2000/svg">
<path d="M624.658 1430.79C627.368 1421.76 627.647 1411.52 625.136 1401.4C623.184 1393.37 619.836 1386.78 615.413 1381.76C610.751 1376.54 604.933 1373.09 599.713 1370.12C595.569 1367.71 591.584 1365.38 588.875 1362.49C585.727 1359.15 583.495 1354.22 581.184 1349C577.917 1341.93 574.211 1334.22 567.437 1328.52C568.273 1324.54 569.389 1321.01 571.461 1318.76C573.374 1316.71 576.721 1315.14 580.268 1313.46L582.659 1312.33C604.734 1301.65 626.252 1277.64 621.43 1250.45C620.235 1243.75 617.645 1238.37 613.62 1234.27C608.52 1228.97 601.785 1226.84 596.844 1225.15L566.52 1215.28C569.031 1207.85 568.114 1200.22 567.277 1193.31C566.52 1187.65 565.883 1182.27 567.437 1178.45C568.951 1174.64 572.936 1171.18 577.12 1167.57C578.315 1166.45 579.59 1165.4 580.826 1164.28C588.954 1156.85 599.076 1144.56 601.028 1128.38C602.981 1111.71 594.732 1095.61 580.985 1089.1C573.015 1085.37 564.568 1085.29 557.156 1085.29C551.059 1085.29 545.202 1085.29 540.938 1083.16C533.885 1079.71 530.099 1070.39 526.194 1060.55C523.206 1053.08 519.978 1045.01 514.678 1038.39C533.526 1033.21 555.203 1023.53 562.814 1001.93C568.831 984.819 563.293 964.5 549.186 952.614C535.837 941.25 515.714 938.359 499.098 945.346C498.54 945.627 498.102 945.908 497.544 946.189C493.639 937.797 487.223 930.729 480.489 924.224C477.979 921.814 477.779 915.59 477.779 909.446C500.612 918.562 522.568 929.806 543.528 943.097C548.629 946.39 554.486 950.004 561.818 950.928C572.298 952.253 582.38 946.47 585.169 937.355C586.643 932.616 586.285 927.396 583.974 921.814C579.152 910.009 569.389 901.897 561.539 895.392L540.101 877.603C530.737 869.812 518.384 859.733 503.481 856.039C503.362 839.253 493.718 823.352 478.975 817.971C467.499 813.794 455.983 816.083 446.339 820.179C445.981 819.898 445.702 819.537 445.224 819.376C437.453 815.441 432.712 805.322 434.823 796.728C434.823 796.487 434.943 796.286 435.023 796.086C435.302 796.086 435.86 796.086 436.497 796.086C445.224 796.728 453.751 800.382 462.836 804.117C466.383 805.603 469.889 806.968 473.436 808.373C492.882 815.642 509.139 815.361 521.652 807.731C536.196 798.776 543.05 779.26 537.232 763.158C531.096 746.212 513.682 735.048 488.06 731.515C484.354 731.073 480.569 730.591 476.743 730.23C463.872 728.904 451.639 727.7 442.076 721.636C438.569 719.428 435.102 716.336 431.516 713.203C424.543 706.939 416.653 699.872 405.814 697.542C397.646 695.776 389.118 697.181 381.069 701.197C379.754 698.506 378.997 694.932 378.28 690.957C377.722 688.266 377.244 685.656 376.526 683.046C375.769 680.356 374.653 677.746 373.259 675.336L441.797 684.733C449.209 685.737 456.819 686.781 464.709 686.781C466.184 686.781 467.778 686.781 469.252 686.66C481.485 686.018 490.212 680.717 493.36 672.043C496.508 663.49 492.882 653.25 484.275 646.103C478.138 640.963 471.085 637.911 464.51 635.301C439.685 625.342 413.704 617.712 387.365 612.773C386.887 612.773 386.448 612.773 386.05 612.773C384.376 607.954 381.985 602.734 377.921 598.437C371.306 591.651 361.663 588.037 348.394 587.394C337.834 586.912 328.191 588.037 319.584 590.567C319.305 590.366 319.185 590.165 318.906 590.004C317.631 589.322 316.237 586.551 316.316 582.937C316.316 579.845 317.153 576.512 317.99 572.978C318.468 570.93 318.906 568.762 319.305 566.714C346.362 586.551 374.932 584.583 402.308 580.407C403.145 580.327 404.699 580.407 406.293 580.688C409.321 581.05 413.226 581.612 417.49 580.487C426.495 578.078 432.991 570.81 433.548 562.457C433.907 557.317 431.954 552.94 430.48 549.969C416.852 523.385 386.727 514.631 360.189 506.881L356.005 505.677C331.339 498.408 307.151 488.851 284.239 477.206C279.975 475.078 275.99 472.949 272.922 470.138C271.089 468.452 269.495 466.524 267.901 464.637C266.068 462.428 264.116 460.18 261.964 458.132C254.672 451.145 245.029 446.687 234.071 444.92C235.266 441.387 236.023 437.652 236.382 433.958C256.704 441.668 277.465 448.735 298.345 454.799C302.609 456.003 308.267 457.69 314.284 457.69C315.679 457.69 317.073 457.69 318.468 457.409C328.39 456.084 336.439 449.297 338.591 440.664C341.46 428.818 332.654 418.779 329.386 415.044C308.347 391.031 285.554 372.639 261.805 360.231C236.103 346.859 209.046 340.434 182.866 341.438L179.639 329.351C178.045 323.287 176.013 315.859 170.633 309.795C170.274 309.353 169.796 309.072 169.438 308.711L230.923 335.495C236.86 338.105 243.515 340.996 251.205 341.719C252.52 341.84 253.835 341.92 255.11 341.92C263.558 341.92 271.528 339.39 278.222 337.262C280.533 336.539 283.96 335.415 286.909 332.804C294.36 326.299 294.799 314.855 288.025 303.691C275.233 282.368 254.552 268.394 236.183 256.106L221.718 246.348C228.333 249.159 235.545 251.287 243.156 251.287C247.061 251.287 251.046 250.725 255.031 249.44C262.721 246.91 268.659 242.172 271.607 235.827C274.237 230.446 274.795 223.941 273.201 216.472C268.38 193.985 249.93 177.962 236.462 166.237L210.8 143.99C210.8 143.99 210.68 143.91 210.6 143.83C213.111 145.195 215.621 146.6 218.211 148.086C225.185 152.102 232.317 156.198 239.809 159.732C259.494 168.767 278.023 170.614 293.404 165.233C296.751 163.988 301.493 161.94 304.721 157.322C308.267 152.383 308.347 146.52 308.427 143.428C308.705 130.217 307.789 113.311 297.867 100.341C288.503 88.093 274.237 82.953 261.526 78.4957C257.143 76.9296 252.719 75.3233 248.535 73.4762C231.082 65.6457 216.896 51.1493 209.485 33.561L208.568 31.2319C207.173 27.8588 205.699 23.9637 203.189 20.3496C199.961 15.571 195.299 11.5152 189.282 8.14214C167.565 -3.50314 142.262 0.231381 124.928 3.9659C108.152 7.66026 86.9927 13.8042 71.7709 29.5454C65.196 36.3317 62.4067 44.1622 60.0158 50.9486C58.3422 55.6067 56.9476 59.7026 54.5169 63.0356C51.6478 66.9709 48.0217 70.103 44.1564 73.5565C37.9402 78.9374 30.9669 85.001 26.3445 95.04C14.2707 121.222 14.9481 150.415 15.6653 176.196C12.4377 181.697 9.84755 187.64 8.17395 194.065C3.91024 211.172 6.02217 230.647 13.912 250.444C9.64832 255.946 6.3011 261.889 3.98994 268.233C-6.29077 296.985 5.10568 326.861 17.6976 354.93C15.227 360.713 13.4338 366.777 12.876 372.92C10.4054 397.657 22.5191 419.341 37.1034 440.905C34.9516 447.169 34.593 453.474 34.593 458.132C34.3937 487.727 47.4638 516.679 69.5394 536.316C67.5072 548.122 68.1448 561.052 71.6912 573.621C76.2339 589.723 85.1199 605.545 98.9471 622.009C96.7156 629.357 96.7156 637.429 98.3892 644.416C100.342 652.608 104.048 659.675 107.594 666.582C109.228 669.835 111.021 673.087 112.416 676.42C115.922 684.733 118.074 693.366 118.512 702.321V703.807C118.871 708.706 119.15 714.97 122.896 720.552C125.844 725.09 131.303 729.306 140.508 730.109C140.229 731.073 139.95 731.876 139.751 732.84C137.639 744.445 142.899 754.323 147.561 763.077C148.677 765.125 149.753 767.053 150.709 769.101C154.574 777.293 156.925 787.332 157.842 800.663L158.041 802.992C158.4 809.016 158.878 815.842 161.468 822.508C163.301 827.367 166.09 831.463 169.517 834.635C167.764 836.844 166.17 839.253 165.333 842.345C163.142 850.256 165.732 859.291 172.506 867.001C174.18 868.969 176.092 870.816 177.965 872.583C180.197 874.711 182.308 876.88 183.823 878.928C188.644 885.875 188.365 896.396 188.086 906.635V908.402C187.807 919.686 188.644 933.339 196.056 943.86C195.578 944.784 195.02 945.627 194.661 946.551C191.035 957.634 197.451 967.874 203.667 977.712C209.206 986.667 215.063 995.862 213.589 1005.1C213.31 1006.95 212.553 1009.19 211.796 1011.4C210.162 1016.54 208.01 1022.97 209.604 1030.04C210.959 1036.34 214.705 1041.56 220.244 1045.01C223.113 1046.78 226.38 1047.98 229.528 1048.63C221.359 1064.45 223.391 1085.57 225.264 1103.52C225.982 1111.15 226.739 1118.34 226.739 1124.64C226.739 1152.59 238.055 1162.99 247.42 1166.81C248.535 1167.29 249.731 1167.57 250.847 1167.85L249.093 1235.76C248.894 1243.02 248.615 1253.06 254.473 1261.45C257.421 1265.71 261.167 1268.68 265.311 1270.73L269.137 1322.29C269.495 1327.71 269.973 1333.37 268.659 1337.83C268.101 1339.8 267.264 1341.65 266.427 1343.49C265.311 1346.02 264.116 1348.83 263.199 1351.89C260.609 1361.2 262.801 1370.32 269.137 1375.54C269.416 1375.7 269.575 1375.9 269.854 1376.06C264.753 1383.53 261.964 1393.49 261.964 1405.66C261.964 1409.31 262.163 1412.92 262.442 1416.54C262.92 1423.93 263.279 1430.79 261.884 1437.02C260.689 1442.44 257.979 1447.82 255.23 1453.48C252.44 1459.18 249.452 1465.05 247.619 1471.55C245.109 1480.67 245.746 1488.78 249.651 1495C251.604 1498.18 254.114 1500.38 256.784 1502.07C252.998 1508.58 250.687 1516.57 250.289 1525.72C250.01 1531.95 250.488 1537.97 250.847 1543.75C251.205 1549.25 251.683 1554.47 251.404 1559.57C251.046 1567.69 248.894 1576.4 244.63 1587.12C242.797 1591.78 240.486 1597.64 241.403 1604.43C241.682 1606.12 242.239 1607.76 242.877 1609.37C237.577 1615.11 235.186 1622.1 233.035 1628.44C232.317 1630.77 231.481 1633.18 230.445 1635.59C226.659 1644.99 227.217 1654.86 227.775 1663.5C227.854 1665.67 228.054 1667.79 228.054 1669.92C228.412 1683.62 225.464 1697.31 219.606 1709.68C218.769 1711.32 217.932 1713.01 217.096 1714.7C214.784 1719.36 212.274 1724.09 210.68 1729.6C207.652 1739.79 208.847 1749.87 213.748 1757.1C214.306 1757.87 214.864 1758.51 215.502 1759.27C207.253 1768.19 203.547 1780.95 203.109 1791.92C202.711 1799.27 203.468 1806.33 204.105 1813.24C204.783 1819.75 205.301 1825.97 205.062 1831.95C204.583 1841.23 201.993 1850.55 197.451 1858.74L196.972 1859.66C192.231 1868.13 185.098 1880.98 193.267 1892.43C194.183 1893.71 195.299 1894.84 196.335 1895.76C187.688 1901.62 181.033 1910.74 177.606 1920.26C173.98 1930.22 173.064 1940.41 172.028 1950.29C171.55 1955.15 171.111 1960.05 170.274 1964.91C168.242 1976.64 164.257 1987.72 158.201 1997.92L157.284 1999.6C150.988 2010.21 142.341 2024.82 150.032 2039.08C150.988 2040.85 152.184 2042.33 153.499 2043.74C150.151 2046.43 147.442 2049.96 145.888 2054.06C144.095 2058.8 144.214 2064.02 145.489 2068.83C132.14 2081.97 125.486 2100.28 121.102 2115.17C120.186 2118.27 119.349 2121.32 118.512 2124.41C114.727 2138.34 111.021 2151.56 103.848 2162.72C102.932 2164.12 101.936 2165.61 100.979 2167.02C95.5202 2174.93 88.746 2184.68 90.4196 2196.77C90.6986 2198.54 91.1768 2200.31 91.7346 2201.99C89.6625 2203.56 87.7498 2205.45 85.9567 2207.77C83.2869 2211.47 82.2509 2215.48 81.5336 2219.3C80.4179 2225.16 79.6608 2232.79 83.5658 2239.7C84.7613 2241.75 86.1559 2243.39 87.8295 2244.88C83.5658 2250.66 80.6968 2258.01 79.86 2266.12C78.9037 2274.67 79.9397 2282.95 80.9757 2290.86C81.3344 2293.83 81.693 2296.8 81.9719 2299.77C84.0042 2323.34 78.1864 2347.16 65.5547 2367.07L64.0006 2369.48C59.458 2376.47 54.2379 2384.46 54.3575 2394.5C54.3575 2399.92 56.1905 2405.3 59.179 2410.04C55.0747 2411.73 51.3689 2413.78 48.978 2415.9C37.1034 2426.42 32.5608 2436.95 35.3501 2447.1C36.0674 2449.59 37.1831 2451.92 38.8567 2454.17C35.4298 2461.52 31.6443 2469.79 29.9707 2478.83C28.576 2486.38 28.6557 2493.61 28.8549 2500.67C28.8549 2503.48 28.9346 2506.38 28.8549 2509.27C28.4564 2527.94 22.9176 2546.29 17.5382 2561.71L17.06 2562.96C14.6691 2569.74 11.9595 2577.45 11.6009 2585.84C11.3219 2593.47 13.2745 2600.42 16.8608 2606.12C12.1587 2619.33 11.7602 2634.11 16.0638 2647.52C17.06 2650.7 18.8133 2654.95 21.9613 2658.77C21.9613 2658.89 21.8019 2658.97 21.8019 2659.17C10.0069 2700.17 8.33335 2746.91 16.5021 2806.26L16.7014 2807.67C16.9803 2810.28 17.4186 2813.61 19.0125 2816.98C20.208 2819.55 21.8816 2822 24.0333 2824.21C23.6349 2825.05 23.2762 2825.98 23.1965 2827.02C21.3237 2843.12 21.8816 2859.39 24.6709 2875.41C26.2648 2884.32 29.5722 2896.97 40.1717 2903.88C41.0882 2904.52 42.0844 2905.01 43.1204 2905.45C39.7732 2910.75 37.1034 2917.09 37.1831 2924.36C37.3823 2935.12 43.6783 2943.51 48.7788 2950.3L51.0899 2953.39C69.1011 2978.33 72.6874 3011.34 73.9227 3040.37C74.2016 3047.84 74.7595 3060.37 84.2831 3067.92C87.5506 3070.45 91.4557 3072.01 95.7194 3072.58C96.6359 3082.46 98.8674 3094.62 107.116 3103.74C114.448 3111.77 125.366 3116.11 137.44 3116.11C139.95 3116.11 142.461 3115.95 145.051 3115.58C146.605 3115.3 148.119 3114.82 149.673 3114.54C147.282 3136.79 145.489 3161.16 152.104 3184.53C153.778 3190.56 156.806 3199.39 163.859 3205.73C164.696 3206.46 165.612 3207.14 166.569 3207.78C149.115 3244.36 168.043 3290.87 198.168 3315.64C227.018 3339.33 263.279 3349.01 298.345 3358.53L308.705 3361.3C345.445 3371.38 382.464 3384.59 404.778 3412.66C411.672 3421.33 415.936 3430.09 417.49 3438.64C420.08 3452.77 415.816 3467.59 411.194 3483.21C406.571 3498.83 401.83 3515.14 403.702 3532.24C404.619 3540.44 406.93 3547.99 409.162 3555.21C409.162 3555.21 409.162 3555.21 409.162 3555.33C409.321 3560.27 409.799 3565.17 410.995 3569.91C411.473 3571.8 412.509 3573.28 413.704 3574.49C415.537 3587.98 414.262 3602.04 412.509 3614.32C405.177 3665.12 389.118 3707 364.373 3739.29C355.925 3750.25 356.563 3764.95 365.927 3775.03C371.306 3780.77 378.479 3783.74 385.771 3783.74C391.15 3783.74 396.649 3782.18 401.471 3778.84C416.095 3768.88 429.564 3757.32 441.438 3744.51C454.229 3730.61 465.187 3715.28 475.827 3700.5C490.013 3680.74 504.677 3660.3 516.99 3638.62C537.87 3601.95 551.896 3561.92 565.524 3523.13C572.458 3503.41 580.268 3480.96 579.789 3457.63C579.71 3451.65 578.953 3445.79 578.315 3440.13C577.279 3431.21 576.363 3422.82 577.478 3414.83C578.395 3408.76 580.547 3402.7 582.858 3396.32C586.564 3385.96 590.349 3375.27 589.433 3363.27C588.118 3345.76 577.757 3332.75 567.716 3320.18C561.619 3312.55 555.881 3305.28 552.334 3297.49C545.202 3281.47 547.154 3262.31 549.186 3242.04C551.777 3215.85 554.486 3188.87 536.834 3167.39C532.69 3162.37 527.948 3158.47 523.405 3154.66C519.5 3151.48 515.914 3148.43 513.005 3145.06C503.561 3134.18 500.214 3118.56 496.587 3101.97C491.885 3080.29 487.064 3057.88 467.578 3044.39C464.789 3042.42 461.721 3040.73 458.692 3039.17C455.704 3037.6 452.835 3036.11 450.523 3034.23C444.785 3029.77 440.88 3022.62 436.696 3015.07C434.465 3010.98 432.233 3006.88 429.643 3003.07C413.146 2978.21 382.464 2964.64 353.056 2967.81C351.741 2966.48 350.346 2965.28 348.792 2964.36C343.692 2961.38 338.392 2961.02 333.77 2960.82C327.633 2960.62 321.536 2960.9 315.48 2961.38C314.284 2956.45 312.053 2951.79 308.984 2947.89C304.641 2942.39 298.783 2938.42 292.408 2936.09C297.508 2929.18 305.557 2923.24 316.715 2918.66C323.17 2915.97 329.944 2913.92 337.117 2911.71C342.935 2909.9 348.872 2908.06 354.61 2905.93C374.653 2898.46 387.285 2887.5 392.186 2873.36C397.008 2859.67 393.581 2845.45 390.035 2833.25C389.118 2829.99 388.122 2826.54 386.887 2823.13C390.234 2824.61 394.139 2827.1 398.881 2830.27C402.387 2832.6 405.814 2834.93 409.241 2836.86C416.215 2840.68 423.905 2842.56 431.875 2842.56C439.844 2842.56 448.491 2840.59 456.62 2836.62C474.352 2827.87 487.144 2811.28 490.013 2793.33C495.312 2760.68 472.679 2725.79 438.569 2713.86C433.469 2712.1 428.249 2710.81 423.268 2709.61C416.653 2708 410.437 2706.43 404.898 2703.9C382.344 2693.58 389.756 2661.86 393.78 2649.21C404.499 2645.48 409.441 2647.52 421.953 2659.17C423.706 2660.74 425.3 2662.5 426.854 2664.19C430.759 2668.28 435.102 2672.94 440.96 2676.28C453.193 2683.14 469.889 2682.22 483.438 2673.75C493.36 2667.6 501.529 2658.21 509.139 2644.19C521.532 2621.26 528.147 2589.18 509.139 2567.29C502.445 2559.66 493.718 2554.92 485.948 2550.67L484.832 2549.98C467.22 2540.31 449.129 2529.26 436.617 2513.52C429.006 2504.05 421.594 2490.19 419.801 2476.42C420.478 2472.76 420.757 2469.31 420.757 2465.78C424.264 2465.98 427.611 2466.74 430.679 2468.23C434.027 2469.79 437.254 2472.32 440.601 2474.89C442.155 2476.14 443.67 2477.22 445.224 2478.35C462.558 2490.83 481.844 2494.09 496.866 2487.1C508.741 2481.6 517.547 2469.87 521.293 2454.9C524.242 2442.73 523.485 2430.24 522.488 2418.51C521.811 2410.88 520.895 2403.46 516.83 2396.55C510.056 2385.02 498.102 2380.37 487.502 2376.27L483.637 2374.78C469.611 2369.12 456.819 2361.01 445.782 2350.69C442.634 2347.8 442.355 2346.67 442.275 2346.39C442.275 2346.39 442.275 2344.83 448.212 2340.17L460.525 2330.57C462.119 2329.93 463.594 2329.01 464.63 2327.52C467.499 2323.5 474.273 2322.58 479.254 2323.06C483.358 2323.42 487.622 2324.55 492.045 2325.67C495.95 2326.68 499.775 2327.6 503.641 2328.28C516.711 2330.41 528.027 2327.72 535.638 2320.73C546.875 2310.29 546.596 2294.19 545.401 2282.95C544.365 2273.19 542.771 2263.39 540.579 2253.83C538.985 2247.05 537.033 2239.78 533.128 2233.27C530.378 2228.62 526.832 2224.68 523.883 2221.43C516.193 2213.16 507.745 2205.24 499.018 2197.9L495.791 2195.21C488.817 2189.42 482.123 2183.96 478.138 2177.14C474.711 2171.27 473.316 2162.36 477.7 2157.5C479.254 2155.73 479.931 2153.6 480.011 2151.4C481.007 2150.63 481.963 2150.07 482.681 2149.79C489.375 2147.66 497.265 2147.94 504.756 2148.58C506.629 2148.78 508.462 2148.95 509.697 2149.43C511.092 2149.99 512.845 2151.27 514.798 2152.88C523.126 2159.27 531.853 2165.41 540.659 2171.11C547.035 2175.29 555.124 2179.58 563.571 2179.58C566.44 2179.58 569.389 2179.1 572.458 2177.9C580.547 2174.73 586.564 2167.02 588.676 2157.26C590.269 2150.27 589.632 2143.36 589.074 2137.22L588.397 2128.67C587.321 2113.61 586.085 2097.95 580.626 2082.97C574.41 2066.22 559.945 2046.87 537.87 2043.17C536.116 2042.89 534.363 2042.69 532.57 2042.49C529.542 2042.13 526.553 2041.85 524.879 2040.93C523.206 2040 521.373 2037.59 519.5 2035.14L517.747 2032.81C509.578 2022.41 498.46 2014.86 486.028 2010.49C487.422 2006.23 488.339 2001.85 488.538 1997.4C488.737 1993.18 488.538 1989.2 488.18 1985.39C487.781 1980.45 487.502 1975.79 488.259 1971.7C488.339 1971.05 488.618 1970.41 488.817 1969.85C493.559 1973.74 497.823 1978.76 502.166 1984.14C504.398 1986.88 506.51 1989.49 508.861 1992.06C520.616 2005.27 533.526 2012.17 546.039 2012.17C548.708 2012.17 551.338 2011.89 553.928 2011.25C564.289 2008.72 573.294 2001.01 578.753 1990.01C583.416 1980.61 584.89 1970.49 585.647 1961.82C586.285 1954.87 586.643 1946.48 585.089 1938.01C582.3 1922.83 573.015 1908.05 559.109 1896.4C547.871 1887.01 535.001 1880.7 523.325 1875.56C523.126 1874 522.927 1872.31 522.767 1870.74C534.523 1867.65 544.006 1861.91 549.944 1853.8C551.059 1852.31 551.896 1850.83 552.813 1849.26C557.515 1853.72 562.814 1857.89 569.31 1860.79C573.773 1862.75 579.032 1863.96 584.332 1863.96C591.943 1863.96 599.634 1861.51 605.491 1855.48C613.461 1847.29 614.457 1835.57 614.577 1827.46C614.736 1814.53 612.903 1804.69 608.719 1796.21C605.77 1790.23 601.666 1785.13 598.04 1780.67L581.383 1759.99C573.773 1750.6 564.966 1740.76 554.207 1734.9C559.945 1731.52 565.126 1727.27 569.389 1722.13C572.179 1725.5 575.327 1728.27 578.873 1730.32C583.695 1733.21 588.954 1734.61 594.175 1734.61C599.913 1734.61 605.491 1732.85 610.034 1729.39C623.184 1719.36 621.351 1700.84 620.793 1694.78C619.956 1685.95 618.282 1675.79 612.425 1666.95C609.755 1662.94 606.487 1659.6 603.539 1656.71C592.501 1645.63 579.869 1633.1 563.651 1626.11C562.456 1625.55 561.34 1625.19 560.304 1624.91C559.188 1620.33 558.551 1615.11 558.272 1609.73C563.173 1613.34 568.273 1616.35 573.294 1619.33C579.59 1623.02 586.205 1626.84 592.302 1631.98C597.522 1636.23 601.945 1637.56 605.491 1637.56C608.639 1637.56 611.15 1636.51 612.704 1635.51C619 1631.69 619.956 1624.63 620.235 1622.3C622.267 1606.76 619.199 1589.89 611.229 1572.14C605.571 1559.57 598.239 1548.05 591.106 1536.97L587.321 1530.9C586.006 1528.85 583.974 1527.49 581.742 1526.93C581.264 1526.24 580.826 1525.6 580.148 1524.96C574.33 1518.9 566.719 1517.69 560.583 1516.77C558.63 1516.49 556.598 1516.13 554.765 1515.56C557.355 1497.97 561.539 1480.47 566.919 1463.56C566.998 1463.56 567.078 1463.56 567.277 1463.56C580.985 1483.64 591.186 1505.68 597.323 1529.42C598.319 1533.23 601.586 1536.04 605.571 1536.4C606.049 1536.4 606.487 1536.4 606.966 1536.4C615.971 1536.4 623.542 1529.42 627.447 1517.53C636.254 1490.91 636.254 1461.51 627.567 1434.89C627.009 1433.2 625.973 1432 624.778 1430.87L624.658 1430.79ZM532.57 1099.83C540.659 1103.8 549.266 1103.8 556.877 1103.92C562.894 1103.92 568.672 1103.92 572.936 1105.97C579.311 1108.94 583.416 1117.7 582.499 1126.13C581.543 1134.32 576.442 1142.99 568.273 1150.54C567.198 1151.47 566.082 1152.47 564.966 1153.39C559.467 1158.17 553.251 1163.47 550.103 1171.67C546.955 1179.82 547.991 1188.21 548.828 1195.56C549.545 1201.9 550.302 1207.36 548.15 1211.1C547.314 1212.58 545.76 1214.63 541.576 1215.11C534.523 1215.96 525.079 1211.94 519.5 1205.8C515.914 1201.78 512.646 1197.12 509.219 1192.11C502.365 1182.27 495.312 1172.03 483.796 1165.6C470.647 1158.33 454.708 1158.7 439.924 1166.53C422.232 1175.92 409.719 1194.15 408.046 1212.95C407.847 1214.55 407.767 1216.24 407.687 1217.81C407.289 1223.47 407.01 1228.77 404.619 1231.1C403.224 1232.5 400.435 1233.55 397.486 1234.47C363.416 1245.71 328.111 1252.86 292.408 1255.87C280.174 1256.88 272.723 1255.31 269.774 1251.01C267.543 1247.76 267.543 1242.46 267.622 1236.32L269.416 1167.01C275.791 1164.96 281.649 1161.71 286.67 1158.9C309.383 1146.17 333.77 1136.85 359.153 1131.35L361.663 1130.79C368.158 1129.42 375.012 1127.9 381.507 1125.41C389.038 1130.71 399.678 1135.93 412.11 1135.93C426.695 1135.93 440.402 1127.82 446.14 1115.81C451.639 1104.56 449.687 1092.76 448.013 1082.24C446.818 1074.61 445.582 1067.42 447.256 1061.48C447.654 1060.07 447.654 1058.67 447.376 1057.3C461.362 1050.6 477.142 1046.42 491.885 1043.33C492.523 1043.89 493.081 1044.45 493.838 1044.81C500.891 1048.35 504.597 1057.58 508.582 1067.42C513.403 1079.55 518.942 1093.12 532.411 1099.71L532.57 1099.83ZM468.973 1179.74C469.73 1181.22 470.726 1182.55 472.201 1183.47C476.185 1185.88 477.779 1192.23 477.58 1197.33C477.142 1209.61 468.973 1221.42 457.377 1226.72C447.734 1231.1 435.86 1230.94 425.659 1226.64C426.017 1224.03 426.216 1221.42 426.296 1219.01C426.296 1217.52 426.495 1216.12 426.575 1214.71C427.691 1202.26 436.617 1189.5 448.651 1183.11C453.034 1180.78 460.725 1177.89 468.973 1179.82V1179.74ZM429.843 1085.29C431.237 1094.12 432.512 1101.75 429.643 1107.74C426.974 1113.4 419.801 1117.29 412.31 1117.29C408.126 1117.29 403.702 1116.09 399.239 1114.04C399.797 1113.48 400.355 1113.04 400.794 1112.36C405.257 1106.97 407.847 1100.83 410.078 1095.33C410.915 1093.2 411.831 1091.07 412.867 1089.02C416.573 1081.39 421.873 1075.05 428.169 1069.67C428.249 1075.05 429.085 1080.35 429.843 1085.29ZM481.405 956.148C481.405 956.148 480.728 956.59 480.489 956.79C477.5 959.039 474.432 961.248 471.284 963.215C453.472 974.098 431.676 974.861 408.683 975.704C408.126 975.704 407.568 975.704 407.01 975.704C406.651 958.276 401.272 941.049 391.629 926.633C400.634 922.256 411.752 919.766 422.511 917.919C434.027 915.952 446.818 913.703 459.051 909.246C459.131 918.361 459.33 929.725 467.499 937.516C473.516 943.298 479.094 949.522 481.485 956.068L481.405 956.148ZM372.701 962.573C372.9 954.943 373.179 947.675 375.57 941.893C376.048 940.808 376.805 939.764 377.443 938.76C384.576 950.084 388.481 963.416 388.56 976.788C382.822 977.19 377.164 977.832 371.426 978.756C372.342 973.254 372.542 967.793 372.701 962.653V962.573ZM549.545 909.808C556.16 915.309 563.571 921.453 566.64 928.882C567.357 930.729 567.357 931.653 567.357 931.653C566.998 932.054 565.524 932.697 563.93 932.496C560.702 932.135 557.076 929.806 552.892 927.115C531.853 913.703 509.418 902.379 486.307 893.063C492.164 887.481 496.587 881.136 499.576 874.35C509.139 876.96 518.304 883.947 528.147 892.139L549.545 909.888V909.808ZM472.201 660.519C474.91 662.767 475.906 665.377 475.747 665.819C475.548 666.381 473.037 667.947 468.056 668.148C460.326 668.63 452.476 667.506 444.108 666.381L385.054 658.27C386.249 655.981 387.285 653.652 388.122 651.122C389.875 645.46 390.314 639.316 389.756 632.409C412.867 637.148 435.581 643.854 457.457 652.608C462.956 654.857 468.216 657.065 472.32 660.438L472.201 660.519ZM354.451 525.032C378.559 532.019 403.423 539.287 413.425 558.723C414.342 560.49 414.421 561.253 414.541 561.253C414.541 561.253 413.505 562.457 412.23 562.738C411.552 562.899 409.719 562.738 408.245 562.457C405.735 562.056 402.587 561.694 399.04 562.257C370.031 566.714 343.971 568.119 319.185 542.62C318.349 535.472 316.874 528.485 315.48 521.98C315.041 519.731 314.284 516.117 311.774 512.865C310.299 510.897 308.546 509.692 307.151 508.648C321.337 514.511 335.722 519.651 350.346 523.907L354.53 525.152L354.451 525.032ZM252.6 377.016C274.317 388.34 295.277 405.367 314.842 427.613C319.863 433.275 320.221 435.604 319.943 436.568C319.743 437.491 317.91 438.857 315.4 439.258C311.893 439.7 307.789 438.696 302.888 437.21C279.776 430.504 256.704 422.674 234.27 413.84C233.991 412.715 233.712 411.631 233.433 410.507C228.333 395.127 216.538 381.474 201.037 372.92C197.331 370.872 193.346 369.186 189.282 367.78L187.25 360.07C208.767 360.07 231.202 365.732 252.6 377.016ZM28.3767 236.108C24.9498 225.226 22.7981 211.814 26.1453 198.522C29.9707 183.062 41.4468 170.614 54.7161 167.642C58.4219 166.799 62.4864 166.598 66.7899 166.317C71.6912 166.036 76.7917 165.755 82.0915 164.55C89.6625 162.783 96.2773 159.45 102.772 156.198C110.065 152.463 117.038 149.01 123.812 148.849C133.814 148.568 143.298 155.355 153.857 163.466C158.32 166.879 162.863 170.333 164.975 174.509C166.648 177.882 167.286 182.339 166.927 188.564C166.648 192.459 166.09 196.274 165.254 200.129C164.337 201.494 163.979 203.18 163.859 204.747C161.349 213.501 157.284 221.773 151.905 229.041C130.108 214.063 100.063 209.605 68.9816 217.034C53.3214 220.769 39.4943 227.354 28.4564 235.827L28.3767 236.108ZM178.244 220.207L184.54 224.383C182.149 223.66 179.639 223.098 177.049 222.817C177.407 221.974 177.766 221.05 178.164 220.207H178.244ZM271.368 313.449C272.843 315.859 273.4 318.107 273.48 319.111C272.922 319.312 272.165 319.593 271.806 319.673C265.232 321.802 258.378 323.97 252.321 323.408C247.619 322.926 242.598 320.717 237.697 318.549L172.107 289.998C173.064 284.497 173.701 279.035 173.98 273.414C174.259 267.109 174.18 259.68 171.47 252.291C170.155 248.677 168.123 245.344 165.732 241.971C166.17 241.409 166.569 240.847 167.007 240.204C168.8 241.128 170.832 241.69 172.944 241.329C178.244 240.405 184.819 244.381 191.035 248.677L225.264 271.767C241.961 283.011 260.888 295.78 271.528 313.449H271.368ZM223.67 180.573C238.534 193.503 251.126 205.429 254.393 220.568C255.11 223.821 255.031 226.351 254.393 227.917C253.636 229.523 251.484 231.009 248.735 231.932C236.661 235.747 222.555 227.354 210.242 219.203L183.823 201.614C184.54 197.679 185.098 193.864 185.377 189.889C185.735 183.745 185.735 174.509 181.392 166.036C178.603 160.575 174.458 156.479 170.274 153.025C172.307 152.463 174.339 151.74 176.371 150.897C178.722 152.102 181.472 152.463 184.102 151.339C185.855 150.616 189.76 151.178 198.008 158.406L223.67 180.653V180.573ZM43.1204 102.87C46.109 96.4455 50.811 92.3495 56.31 87.6111C60.5737 83.8766 65.475 79.7004 69.5394 74.0383C73.5242 68.4566 75.676 62.4734 77.5488 57.1728C79.5811 51.4305 81.3344 46.4912 85.0402 42.5559C96.8351 30.3886 114.607 25.2486 128.913 22.1968C143.178 19.0244 164.058 15.8521 179.718 24.7266C183.145 26.6541 185.735 28.8225 187.329 31.2319C188.644 33.1594 189.76 35.7696 190.836 38.46L191.952 41.0702C201.156 62.9553 218.849 81.1058 240.486 90.7834C245.108 92.8314 249.93 94.5983 254.752 96.2447C265.989 100.26 276.548 104.075 282.565 111.906C288.861 120.178 289.539 132.385 289.339 143.268C289.339 143.99 289.339 146.319 289.14 146.801C289.14 146.801 288.582 147.243 286.749 147.926C273.201 152.744 257.621 147.926 247.061 143.067C240.287 140.015 233.792 136.2 226.938 132.265C219.805 128.169 212.354 123.912 204.583 120.379C202.352 119.334 197.809 117.286 192.51 118.049C186.214 118.973 182.229 123.35 179.639 126.241L178.802 127.165C171.829 134.594 160.512 138.047 150.59 135.718C148.956 135.357 147.362 135.517 145.888 135.999C138.914 132.465 131.582 130.217 123.533 130.337C112.495 130.498 102.932 135.357 94.4841 139.613C88.8257 142.505 83.4463 145.195 78.0669 146.4C74.361 147.243 70.2966 147.444 65.9531 147.725C61.012 148.006 56.0311 148.287 50.7313 149.411C44.7143 150.777 39.1356 153.307 33.9554 156.76C33.9554 138.328 35.629 119.254 43.2001 102.79L43.1204 102.87ZM21.4432 274.538C28.0181 256.227 47.3841 241.61 73.2453 235.386C99.9831 228.961 125.366 232.695 143.019 245.625C148.677 249.802 152.383 254.179 154.056 258.716C155.611 263.013 155.611 268.113 155.411 272.61C155.053 281.525 153.578 290.48 151.148 299.033C123.453 289.918 94.6037 296.985 75.0384 304.695C55.9115 312.325 40.5303 323.127 29.7714 335.776C20.9651 314.654 14.7488 293.251 21.5229 274.458L21.4432 274.538ZM31.3653 374.848C34.5133 343.325 70.7747 326.58 81.8125 322.203C99.0267 315.296 124.45 308.992 147.641 317.545C151.825 319.031 154.495 320.717 156.168 322.565C158.679 325.335 159.954 330.275 161.07 334.571L168.88 363.524C158.121 362.681 147.083 363.885 136.882 367.339C124.649 371.394 114.249 378.101 102.932 385.851C86.9927 396.613 71.1334 407.816 55.7521 419.14C53.5207 420.827 51.0899 422.594 48.6991 424.722C38.0199 408.177 29.7714 391.713 31.445 375.049L31.3653 374.848ZM53.1222 458.212C53.1222 451.707 54.0785 447.169 56.0311 443.916C58.2227 440.102 62.6856 436.929 66.5907 434.038C81.8125 422.875 97.4727 411.792 113.252 401.19C123.453 394.324 132.698 388.34 142.74 384.887C153.299 381.353 164.895 380.911 175.813 383.321C177.885 385.088 180.475 385.931 183.345 385.449C186.293 386.493 189.282 387.778 191.952 389.264C203.468 395.609 212.075 405.487 215.701 416.45C218.968 426.208 217.932 436.929 213.39 445.121C211.915 445.282 210.521 445.402 209.046 445.683C196.215 448.012 184.381 452.911 172.944 457.69C169.597 459.055 166.17 460.461 162.863 461.866C158.32 463.633 153.578 465.4 148.836 467.167C121.859 477.126 91.2564 488.369 76.5128 515.916C76.3136 516.197 76.2339 516.559 76.1542 516.84C61.5699 501.139 53.1222 479.896 53.2417 458.332L53.1222 458.212ZM92.7308 524.67C104.127 503.348 130.108 493.79 155.132 484.554C159.954 482.788 164.775 481.021 169.517 479.174C173.064 477.768 176.491 476.363 179.997 474.877C191.035 470.339 201.435 465.962 212.274 463.995C213.111 463.794 213.948 463.914 214.784 463.794C217.295 464.637 219.965 464.476 222.276 463.151C232.955 463.151 242.319 466.123 248.456 471.986C250.129 473.592 251.484 475.278 252.998 477.045C255.031 479.455 257.143 481.944 259.772 484.394C264.474 488.65 269.973 491.622 275.154 494.232C277.186 495.276 279.218 496.2 281.29 497.204C275.712 495.999 269.774 495.557 263.757 496.641C251.604 498.89 240.207 507.162 232.397 519.45C225.822 529.891 222.475 541.897 219.805 552.218C216.896 563.582 212.912 575.388 205.221 577.436C203.189 577.877 200.599 577.877 197.73 577.797C195.299 577.797 192.908 577.717 190.557 577.797C178.722 578.64 168.88 584.784 160.153 590.165C153.22 594.462 146.724 598.477 140.03 599.682C137.52 600.124 134.93 600.244 132.339 600.325C126.123 600.606 119.15 600.967 112.416 604.581C111.459 605.063 110.822 605.705 109.985 606.268C99.7042 593.257 92.8503 580.889 89.3039 568.601C84.841 552.86 86.0762 536.958 92.5714 524.751L92.7308 524.67ZM137.161 702.843V701.277C136.404 690.114 133.814 679.312 129.351 669.072C127.797 665.377 125.844 661.643 123.971 658.029C120.823 651.885 117.795 646.022 116.4 640.039C114.727 633.092 115.922 623.936 121.581 620.804C124.45 619.198 128.634 619.037 133.375 618.756C136.603 618.555 139.831 618.475 143.377 617.792C153.578 616.026 161.906 610.845 170.075 605.826C177.686 601.168 184.739 596.67 192.151 596.229C193.904 596.148 195.657 596.229 197.451 596.229C201.236 596.309 205.5 596.429 210.043 595.305C229.528 590.366 235.266 567.557 238.055 556.675C240.486 547.278 243.156 537.4 248.336 529.328C253.357 521.418 260.33 516.117 267.344 514.912C277.385 513.146 288.503 519.008 296.034 523.546C296.472 523.827 296.95 524.108 296.95 523.827C297.11 524.189 297.309 525.313 297.389 525.875C300.098 538.444 302.888 551.374 300.855 563.381C300.457 565.349 300.098 567.196 299.62 569.043C298.704 573.139 297.588 577.877 297.508 582.937C297.389 588.96 299.062 594.381 301.852 598.839C290.814 606.348 282.924 617.431 280.453 629.518C280.174 631.044 279.896 632.61 279.696 634.096C279.417 635.863 279.218 637.71 278.66 639.396C277.943 641.645 276.469 643.974 274.516 646.665C268.459 655.419 261.048 663.892 253.915 672.043C252.321 673.81 250.847 675.577 249.293 677.384C236.023 674.774 220.522 672.606 205.699 677.826C195.657 681.36 187.807 687.584 180.197 693.647C176.849 696.338 173.502 698.948 169.996 701.277C168.402 702.401 166.728 703.405 164.975 704.449C162.584 706.015 159.954 707.622 157.364 709.469C156.726 709.469 156.089 709.469 155.531 709.67C146.884 712.521 140.229 712.721 138.556 710.312C137.639 708.907 137.44 705.855 137.36 702.843H137.161ZM163.859 754.323C160.352 747.818 157.005 741.554 157.922 736.373C159.157 729.948 166.648 725.21 174.618 720.15C176.491 719.066 178.244 717.821 179.997 716.737C183.902 714.127 187.688 711.155 191.394 708.184C198.168 702.843 204.504 697.824 211.636 695.334C223.591 691.037 237.976 694.009 250.687 696.619C253.995 697.382 257.342 696.177 259.573 693.567C262.163 690.475 264.873 687.423 267.543 684.331C275.074 675.778 282.765 666.944 289.419 657.266C291.491 654.294 294.36 650.118 295.914 645.259C296.95 642.288 297.309 639.396 297.668 636.786C297.867 635.662 298.066 634.457 298.226 633.333C300.019 624.699 306.594 616.708 315.878 611.849C324.206 607.472 334.766 605.545 346.919 606.187C355.287 606.549 360.946 608.316 363.974 611.568C366.684 614.379 368.158 619.037 369.194 623.133C371.585 632.61 371.864 639.878 370.111 645.821C367.8 653.371 361.504 659.595 353.972 661.643C353.893 661.643 353.773 661.643 353.694 661.643C351.661 661.442 349.51 661.563 347.398 662.085C347.318 662.085 347.119 662.285 347.039 662.285C341.54 662.085 336.081 660.157 332.016 656.503C328.191 653.09 322.373 653.451 318.906 657.266C315.48 661.081 315.878 666.944 319.664 670.397C328.829 678.589 341.46 682.283 353.494 680.637C355.088 681.721 357.32 684.532 358.236 688.066C358.794 690.194 359.272 692.362 359.631 694.571C360.747 700.273 362.141 706.578 365.648 712.24C363.616 714.288 361.663 716.456 359.83 718.865C355.726 724.086 352.418 729.667 349.151 735.048C346.362 739.626 343.692 744.003 340.703 747.979C332.813 744.365 324.286 742.317 315.679 741.835C315.041 740.911 314.284 740.068 313.248 739.345C304.92 733.643 294.36 731.434 284.438 733.362C274.516 735.249 265.511 741.112 259.772 749.464C256.983 753.56 255.11 758.058 253.636 761.873C250.767 769.221 248.336 777.011 248.615 785.284C240.845 786.689 233.433 789.299 227.018 792.552C216.179 798.053 206.695 805.402 197.61 812.469C193.267 815.842 189.003 819.095 184.46 822.227C182.229 821.585 179.918 819.175 178.722 815.842C177.128 811.827 176.849 806.888 176.491 801.667L176.291 799.258C175.176 783.517 172.307 771.43 167.405 761.029C166.29 758.7 165.054 756.452 163.859 754.122V754.323ZM292.567 792.472C292.567 792.472 291.013 793.034 286.909 792.19C280.732 788.095 274.038 785.766 267.065 784.922C266.985 780.264 268.459 775.084 270.89 768.94C272.006 766.049 273.4 762.796 275.074 760.266C278.023 756.01 282.765 752.837 287.865 751.914C288.582 751.793 289.339 751.793 290.097 751.713C288.582 755.448 288.981 759.262 289.14 761.31C289.539 765.005 290.176 769.101 291.013 773.397C292.009 778.899 293.962 790.223 292.567 792.552V792.472ZM190.677 859.291C189.202 857.886 187.688 856.4 186.293 854.794C183.982 852.103 182.587 849.052 183.066 847.445C183.623 845.397 187.529 842.827 191.115 840.498C197.331 836.402 203.268 831.825 208.927 827.367C217.733 820.46 226.181 814.035 235.465 809.297C247.42 803.153 265.869 799.258 278.102 808.454C278.78 808.936 279.617 809.217 280.334 809.498C280.732 809.699 281.091 809.98 281.45 810.06C291.77 812.469 299.74 811.184 305.119 806.165C314.085 797.571 311.495 782.995 309.184 770.024C308.626 766.772 307.988 763.519 307.709 760.547C318.269 759.624 329.227 762.114 338.113 767.735C341.938 770.024 346.84 769.382 349.788 766.129C355.925 759.423 360.468 751.994 364.931 744.726C368.079 739.626 371.027 734.687 374.454 730.31C380.949 721.917 391.549 713.846 401.551 715.894C407.568 717.179 412.788 721.837 418.725 727.138C422.71 730.792 426.854 734.406 431.676 737.458C444.945 745.85 459.888 747.336 474.352 748.822C477.979 749.183 481.485 749.585 485.111 750.027C493.639 751.151 514.12 755.448 519.341 769.583C522.21 777.493 518.663 787.452 511.53 791.909C502.246 797.571 489.016 794.52 479.453 790.986C476.106 789.781 472.878 788.376 469.611 786.97C459.609 782.794 449.209 778.417 437.533 777.574C433.548 777.212 427.81 777.413 422.869 781.308C419.721 783.798 417.609 787.452 416.494 792.391C413.146 806.245 418.327 821.143 428.727 830.419C426.974 831.624 425.18 832.869 423.547 834.073C417.41 838.611 411.552 842.908 405.257 845.678C392.386 851.461 376.606 850.618 364.253 843.751C364.173 843.47 364.173 843.189 363.974 842.908C360.747 837.487 357.399 832.186 352.498 827.809C346.003 822.067 337.914 819.256 330.502 820.179C319.863 821.504 310.857 830.138 307.43 842.145C305.119 850.537 305.677 858.89 306.235 866.359V868.126C306.872 875.916 307.072 883.947 306.952 891.938C283.402 892.219 263.199 903.383 243.634 914.185C234.071 919.485 225.065 924.425 215.98 928.039C213.669 928.962 211.716 930.006 209.764 930.93C206.616 924.786 206.257 916.112 206.416 908.764V906.997C206.815 894.468 207.173 880.132 198.925 868.206C196.415 864.592 193.346 861.62 190.677 859.01V859.291ZM324.844 867.001V865.234C324.286 858.729 323.848 852.585 325.322 847.365C326.517 842.908 329.785 839.253 332.813 838.892C335.045 838.731 337.834 839.816 340.265 841.984C342.377 843.912 344.25 846.522 346.083 849.413C342.496 856.119 340.703 863.548 339.149 870.254C336.718 880.976 334.885 887.642 329.665 890.533C328.47 891.175 327.075 891.577 325.601 891.858C325.601 883.465 325.521 875.193 324.963 867.001H324.844ZM227.576 1026.3C227.097 1024.17 228.213 1020.8 229.329 1017.39C230.285 1014.58 231.281 1011.52 231.76 1008.15C234.27 992.168 225.902 978.756 219.247 968.034C215.701 962.372 211.238 955.305 212.194 952.614C212.354 952.052 213.669 949.241 222.754 945.627C232.955 941.531 242.957 936.03 252.52 930.729C270.97 920.489 288.303 910.932 307.311 910.731H307.789C309.662 910.731 311.495 910.731 313.368 910.932C321.258 911.294 330.223 911.575 338.671 906.917C351.382 899.769 354.451 886.357 357.12 874.551C358.077 870.455 358.993 866.359 360.268 862.825C376.805 870.053 396.45 870.254 412.867 862.905C421.036 859.291 427.89 854.151 434.584 849.212C438.091 846.642 441.518 844.112 445.144 841.783C451.161 837.968 462.677 832.106 472.32 835.559C481.206 838.812 486.665 851.18 484.075 862.062C481.565 872.583 472.599 882.542 460.087 888.766C447.654 894.91 433.19 897.319 419.283 899.648C394.577 903.744 367.999 911.213 358.236 934.745C354.53 943.659 354.251 953.457 353.972 962.011C353.694 971.688 353.415 980.161 348.952 985.823C346.362 989.076 342.217 991.606 337.675 994.216C310.578 1009.48 281.729 1021.36 251.763 1029.63C243.156 1031.96 233.871 1031.88 229.727 1029.27C228.412 1028.55 227.854 1027.71 227.496 1026.3H227.576ZM245.308 1124.92C245.308 1117.7 244.471 1109.66 243.714 1101.95C240.924 1074.89 240.207 1056.54 254.473 1048.91C255.031 1048.63 255.31 1048.19 255.788 1047.78C256.146 1047.78 256.505 1047.62 256.784 1047.5C288.144 1038.87 318.468 1026.38 346.84 1010.32C351.861 1007.51 356.961 1004.34 361.225 999.878C376.128 995.421 392.186 994.858 409.241 994.216C433.628 993.373 458.971 992.449 480.848 979.037C484.474 976.788 487.901 974.299 491.328 971.769C496.309 968.155 500.971 964.621 505.992 962.573C516.193 958.276 528.784 960.043 536.834 966.95C545.002 973.897 548.429 986.024 545.002 995.782C538.627 1013.85 514.24 1020.08 491.885 1024.53C456.54 1031.6 413.704 1044.37 395.972 1081.03C394.856 1083.44 393.78 1085.85 392.744 1088.38C390.792 1093.04 389.038 1097.38 386.329 1100.55C380.312 1107.82 368.796 1110.35 357.678 1112.64L355.088 1113.2C327.832 1119.18 301.772 1129.14 277.385 1142.71C269.416 1147.17 260.41 1152.31 254.114 1149.78C245.945 1146.53 245.029 1131.27 245.029 1124.92H245.308ZM285.713 1275.03C288.582 1275.03 291.372 1274.83 293.882 1274.67C331.06 1271.57 367.879 1264.15 403.224 1252.42C407.129 1251.09 413.067 1249.17 417.609 1244.59C417.769 1244.43 417.968 1244.15 418.167 1243.95C425.659 1247.2 433.628 1248.81 441.598 1248.81C449.607 1248.81 457.577 1247.12 464.789 1243.87C480.569 1236.6 492.164 1221.54 495.113 1204.88C498.381 1209.53 501.608 1214.19 505.593 1218.53C515.156 1228.97 530.737 1235.31 543.448 1233.71C547.154 1233.27 550.581 1232.02 553.649 1230.45C554.287 1230.82 554.845 1231.3 555.602 1231.58L590.748 1243.02C594.174 1244.15 598.04 1245.43 599.992 1247.4C601.307 1248.69 602.224 1250.93 602.782 1253.91C605.85 1270.73 590.748 1287.68 574.211 1295.67L572.019 1296.71C567.277 1298.96 561.978 1301.45 557.634 1306.11C550.581 1313.66 548.987 1323.34 547.712 1331.89C546.596 1338.76 545.68 1344.74 542.213 1347.87C537.949 1351.81 529.9 1351.24 517.468 1346.3C516.91 1344.62 515.794 1342.41 513.563 1340.64C504.677 1326.59 489.455 1318.04 474.432 1318.96C462.279 1319.6 450.245 1326.31 441.319 1337.19C433.628 1346.67 429.085 1357.95 425.858 1367.51C425.659 1367.91 425.38 1368.19 425.101 1368.55C424.264 1369.68 423.547 1370.76 422.869 1372C422.869 1372 421.036 1374.21 412.588 1375.7C366.046 1383.69 331.538 1378.03 287.746 1365.58C285.634 1365.02 282.645 1363.25 280.533 1361.56C280.254 1361.2 279.975 1359.44 280.533 1357.27C281.091 1355.22 282.008 1353.37 282.844 1351.53C284.04 1348.83 285.155 1346.22 285.992 1343.41C288.224 1335.7 287.666 1328.07 287.188 1321.29L283.88 1275.03C284.319 1275.03 284.877 1275.03 285.355 1275.03H285.713ZM265.311 1476.85C266.706 1472.03 269.137 1467.17 271.607 1462.08C274.795 1455.65 278.102 1449.02 279.896 1441.39C281.808 1432.56 281.37 1424.01 280.892 1415.73C280.732 1412.48 280.533 1409.11 280.533 1405.86C280.533 1399.99 281.37 1389.95 287.028 1384.53C316.795 1392.85 342.775 1398.03 371.306 1398.03C385.412 1398.03 400.236 1396.74 416.374 1394.05C428.368 1392 436.138 1387.55 439.685 1380.72C439.844 1380.36 440.123 1380 440.402 1379.71C441.438 1378.39 442.713 1376.54 443.67 1373.93C446.539 1365.66 450.245 1356.26 456.062 1349C461.721 1342.13 468.893 1337.91 475.827 1337.55C484.753 1337.19 493.918 1342.77 499.018 1351.81C499.496 1352.65 500.054 1353.37 500.771 1354.01C501.529 1356.34 503.202 1360.36 508.103 1362.41C516.711 1366.02 539.623 1375.82 555.124 1361.56C558.272 1358.67 560.424 1355.34 561.978 1351.89C562.735 1353.45 563.452 1355.06 564.289 1356.83C567.078 1362.85 570.146 1369.76 575.446 1375.34C579.989 1380.16 585.528 1383.45 590.469 1386.3C594.812 1388.83 598.877 1391.24 601.586 1394.21C603.977 1397.02 605.93 1400.92 607.165 1406.06C609.476 1415.33 609.078 1429.11 600.391 1436.94C593.218 1443.36 581.662 1444.65 571.182 1445.05C553.649 1445.77 535.917 1445.05 518.504 1442.6L514.519 1442.04C506.629 1440.95 498.54 1439.83 490.013 1440.39C477.5 1441.23 466.742 1445.97 459.808 1453.76C455.066 1459.06 452.476 1465.21 450.125 1470.71C448.77 1474.08 447.455 1477.13 445.782 1479.82C441.438 1486.81 433.628 1492.31 423.905 1495.08C415.657 1497.49 406.173 1498.18 393.302 1497.33C380.511 1496.49 367.321 1494.44 354.61 1492.47C332.176 1488.94 308.905 1485.41 285.434 1487.82C282.565 1488.1 279.138 1488.5 275.911 1488.5C274.875 1488.3 273.759 1488.22 272.723 1488.38C269.416 1488.1 266.626 1487.37 265.511 1485.53C264.474 1483.84 264.474 1480.75 265.511 1476.93L265.311 1476.85ZM537.949 1502.83C537.949 1502.83 537.511 1502.27 537.232 1501.99C529.621 1493.68 520.895 1484.28 507.625 1482.64C501.05 1481.79 495.033 1483.2 489.455 1485.25C490.57 1476.49 491.128 1467.74 491.128 1458.9C497.703 1458.42 504.597 1459.46 511.809 1460.47L515.914 1461.03C526.274 1462.44 536.834 1463.28 547.314 1463.64C543.448 1476.49 540.38 1489.58 537.949 1502.91V1502.83ZM469.252 1493.68C464.789 1495.28 460.246 1496.41 455.504 1497.05C457.736 1494.72 459.688 1492.19 461.362 1489.5C463.793 1485.69 465.427 1481.71 467.02 1477.9C468.694 1474.08 470.288 1470.51 472.4 1467.66C472.041 1476.37 471.005 1485.04 469.252 1493.68ZM228.412 1735.18C229.528 1731.36 231.481 1727.55 233.513 1723.53C234.429 1721.68 235.386 1719.8 236.302 1717.95C243.355 1702.97 246.862 1686.31 246.503 1669.84C246.503 1667.51 246.304 1665.18 246.105 1662.78C245.666 1655.43 245.308 1648.44 247.499 1642.86C248.615 1640.05 249.571 1637.28 250.488 1634.67C252.321 1629.08 253.716 1625.55 255.867 1622.86C257.262 1623.5 258.736 1624.06 260.33 1624.51C267.184 1626.47 273.958 1626.03 279.975 1625.63H281.729C306.793 1624.15 331.618 1627.12 355.566 1634.47L356.842 1634.87C363.616 1636.91 371.426 1639.24 379.276 1639.61C392.744 1657.56 419.163 1660.25 439.207 1654.58C448.571 1651.89 457.377 1647.88 465.825 1644.06C475.11 1639.89 483.796 1635.87 492.882 1633.74C509.777 1629.65 527.868 1632.42 541.416 1641.09C555.403 1650.13 564.687 1666.03 565.046 1681.65C565.404 1697.75 556.04 1713.65 542.333 1720.2C526.194 1727.83 506.071 1723.61 486.586 1719.52L482.88 1718.79C460.326 1714.14 431.795 1710.96 411.273 1728.47C405.177 1733.69 400.794 1740 396.53 1746.06C392.386 1752 388.481 1757.66 383.46 1761.32C373.737 1768.39 359.272 1768.39 346.561 1767.62C312.053 1765.98 277.465 1761.2 243.794 1753.69C237.976 1752.36 231.481 1750.6 228.89 1746.9C227.097 1744.29 226.818 1739.92 228.213 1735.06L228.412 1735.18ZM540.38 1619.69C524.6 1612.98 506.35 1611.42 488.618 1615.59C483.916 1616.72 479.373 1618.28 474.91 1619.97C479.732 1609.25 482.521 1597.64 483.159 1585.92C493.36 1586.36 503.641 1587.68 514.32 1589.09C522.21 1590.09 530.179 1591.14 538.069 1591.78C538.706 1591.78 539.344 1591.78 540.021 1591.86C539.264 1600.13 539.185 1610.01 540.46 1619.61L540.38 1619.69ZM445.503 1631.98C445.503 1631.98 445.144 1632.62 444.945 1632.9C441.319 1634.3 437.812 1635.71 434.186 1636.71C422.789 1639.97 409.162 1639.61 399.957 1634.1C406.93 1629.29 411.194 1622.38 414.9 1616.15C416.294 1613.83 417.609 1611.58 419.084 1609.45C427.89 1596.88 444.307 1588.69 464.43 1586.48C463.315 1603.22 456.541 1619.49 445.303 1631.98H445.503ZM456.54 1733.93C456.062 1739.79 453.193 1745.94 448.372 1751C443.391 1756.18 436.338 1760.48 426.854 1764.09C421.116 1766.34 416.573 1767.46 412.389 1767.74C409.719 1767.9 406.85 1767.74 403.981 1767.26C406.85 1763.81 409.321 1760.27 411.752 1756.74C415.458 1751.36 419.004 1746.34 423.268 1742.69C432.074 1735.18 444.108 1733.41 456.461 1733.93H456.54ZM402.587 1918.93C408.404 1915.68 412.947 1911.1 417.051 1907.21L419.92 1904.43C422.232 1902.19 424.742 1900.14 427.252 1898.17C426.495 1900.5 425.659 1902.95 424.742 1905.08C422.032 1911.58 418.605 1919.13 413.346 1924.71C408.524 1929.93 402.666 1932.91 397.088 1932.99C394.976 1932.99 394.577 1932.7 394.219 1932.62C392.107 1931.7 390.433 1927.89 388.68 1923.79C393.94 1922.75 398.482 1921.18 402.467 1918.93H402.587ZM203.946 1915.96C204.304 1915.04 204.384 1914.11 204.504 1913.15C208.289 1910.02 212.752 1908.05 217.096 1908.53C219.128 1908.81 221.001 1908.25 222.555 1907.29C230.803 1909.9 238.972 1912.06 247.499 1913.07C257.063 1914.27 266.507 1914.11 275.712 1913.91C282.565 1913.83 289.061 1913.63 295.476 1914.11C306.394 1914.84 317.273 1917.08 328.749 1919.41C340.424 1921.82 352.299 1924.15 364.532 1924.87C361.583 1927.04 357.957 1928.53 354.61 1929.09C347.119 1930.46 338.95 1929.45 330.343 1928.41C327.912 1928.17 325.402 1927.89 323.011 1927.6C304.282 1925.72 285.554 1926.84 267.344 1927.97C245.666 1929.25 225.264 1930.58 205.062 1927.04C204.384 1926.92 202.352 1926.56 201.874 1926.28C201.515 1925.72 201.236 1922.47 203.946 1915.88V1915.96ZM173.064 2009.48L174.06 2007.8C181.193 1995.63 186.014 1982.38 188.445 1968.44C189.362 1963.22 189.84 1957.92 190.398 1952.54C190.756 1948.81 191.115 1945.27 191.593 1941.74C195.02 1944.07 198.726 1944.91 201.874 1945.47C224.228 1949.37 246.782 1947.96 268.579 1946.68C286.829 1945.55 304.003 1944.51 321.258 1946.28C323.569 1946.48 325.88 1946.84 328.191 1947.12C334.128 1947.88 340.265 1948.61 346.481 1948.61C350.267 1948.61 354.172 1948.33 358.077 1947.6C364.094 1946.48 370.469 1943.79 375.968 1939.69C378.479 1943.79 381.786 1947.6 387.006 1949.81C389.955 1951.14 393.302 1951.78 396.928 1951.78H397.367C407.847 1951.7 418.605 1946.48 426.854 1937.64C434.106 1929.81 438.569 1920.54 441.877 1912.43C445.144 1904.52 448.212 1895.4 447.535 1885.72C451.639 1883.75 455.783 1881.99 460.087 1880.58C468.973 1877.73 478.975 1875.76 489.734 1874.84C492.324 1874.64 495.033 1874.44 497.624 1874.28C499.775 1874.2 501.967 1874 504.198 1873.8C505.314 1881.91 505.872 1890.1 505.513 1898.17C505.434 1900.5 505.234 1902.95 504.677 1904.8C503.919 1907.13 502.365 1909.53 500.333 1912.63C493.081 1923.59 486.307 1934.95 479.652 1946.2C475.827 1952.62 471.563 1959.77 469.889 1968.44C468.614 1974.95 469.053 1981.09 469.531 1986.96C469.81 1990.41 470.009 1993.74 469.889 1996.83C469.172 2012.54 457.098 2027.15 441.717 2030.69C432.991 2032.73 423.547 2031.61 413.505 2030.48C410.835 2030.24 408.126 2029.84 405.456 2029.68C393.023 2028.56 374.932 2028.28 361.105 2039.16C356.483 2042.77 353.136 2047.15 349.788 2051.25C346.003 2055.98 342.775 2060.2 338.671 2062.05C330.701 2065.78 320.301 2060.84 309.383 2055.54C306.952 2054.42 304.641 2053.29 302.21 2052.29C288.503 2046.23 273.56 2042.97 258.457 2043.33C251.763 2043.33 245.308 2044.18 238.972 2044.82C231.919 2045.58 225.264 2046.43 218.689 2046.23C205.062 2045.95 191.314 2041.85 178.523 2037.59C173.502 2035.91 167.963 2033.86 166.17 2030.61C163.5 2025.67 168.601 2017.11 173.064 2009.56V2009.48ZM416.095 2061.2C415.179 2066.99 412.788 2072.93 410.357 2078.99C406.571 2088.27 402.666 2097.87 398.203 2106.82L398.044 2106.98C395.813 2109.31 393.501 2111.64 391.15 2113.77C385.612 2118.91 377.244 2124.85 369.274 2124.13C361.026 2123.37 354.172 2115.74 348.593 2107.54C353.614 2102.24 356.403 2094.82 355.845 2087.19C355.566 2083.17 354.331 2079.07 352.299 2075.34C357.32 2071.65 361.026 2066.99 364.452 2062.69C367.242 2059.16 369.832 2055.9 372.701 2053.57C379.276 2048.35 389.118 2046.59 403.862 2047.99C406.452 2048.27 408.962 2048.56 411.552 2048.84C412.668 2048.92 413.903 2049.12 414.979 2049.2C416.374 2052.45 416.852 2056.67 416.095 2061.2ZM164.417 2066.63C163.022 2065.22 162.464 2062.69 163.142 2060.84C163.779 2059 165.812 2057.39 167.844 2057.23C169.717 2057.03 171.271 2056.19 172.665 2055.18C186.851 2059.8 201.993 2064.38 218.211 2064.66C225.982 2064.66 233.593 2064.02 240.924 2063.17C247.061 2062.53 252.879 2061.85 258.657 2061.77C270.97 2061.41 283.482 2064.18 294.719 2069.12C296.95 2070.04 299.062 2071.16 301.413 2072.21C310.658 2076.54 321.417 2081.76 332.654 2081.76C333.212 2081.76 333.65 2081.68 334.208 2081.6C335.882 2083.81 336.997 2086.22 337.197 2088.55C337.396 2091.36 336.161 2094.33 334.208 2095.66C332.455 2096.74 329.665 2097.22 327.075 2097.43C318.747 2098.23 310.379 2097.87 302.131 2096.18C291.372 2093.97 281.171 2089.8 270.332 2085.22C260.41 2081.12 250.129 2076.83 239.251 2074.13C228.213 2071.44 217.096 2070.52 208.648 2070.04C199.563 2069.48 190.278 2069.32 181.033 2069.48C175.096 2069.6 167.485 2069.68 164.337 2066.51L164.417 2066.63ZM116.121 2177.98C117.237 2176.41 118.353 2174.81 119.349 2173.24C128.076 2159.67 132.26 2144.49 136.324 2129.79C137.161 2126.82 137.998 2123.85 138.835 2120.84C142.54 2108.03 147.641 2093.97 156.925 2084.01C164.775 2088.47 174.18 2088.39 181.392 2088.27C190.119 2088.11 198.925 2088.27 207.652 2088.83C215.342 2089.31 225.264 2090.04 234.828 2092.49C244.351 2094.82 253.556 2098.63 263.199 2102.73C274.397 2107.34 285.913 2112.2 298.425 2114.73C305 2116.02 311.774 2116.78 318.468 2116.78C321.975 2116.78 325.521 2116.58 329.028 2116.22C329.865 2116.22 330.701 2116.02 331.538 2115.82C339.587 2128.47 350.824 2141.44 367.441 2142.92C379.555 2143.93 391.549 2138.91 403.583 2127.74C406.173 2125.33 408.683 2122.8 411.114 2120.31C416.095 2115.17 420.917 2110.36 426.296 2106.98C432.433 2103.29 441.319 2101.6 446.26 2105.58C449.487 2108.31 451.52 2113.61 452.476 2121.8C454.508 2140.95 450.683 2160.95 441.877 2178.1C438.848 2184.04 435.501 2188.42 432.074 2191.67C430.839 2192.31 429.723 2193.16 428.926 2194.16C427.97 2194.84 426.974 2195.57 425.937 2196.05C417.769 2199.94 407.289 2198.54 396.251 2197.05L391.071 2196.41C385.133 2195.69 379.395 2195.41 373.617 2195.29C373.179 2195.29 372.82 2195 372.263 2195C371.705 2195 371.227 2195.21 370.669 2195.29C342.775 2195.29 317.432 2202.63 298.425 2216.61C293.962 2218.38 290.097 2221.55 287.307 2225.92C284.319 2228.62 281.569 2231.1 278.581 2232.23C270.611 2235.4 260.131 2229.9 249.93 2224.52L245.666 2222.27C217.932 2208.14 183.345 2202.35 142.819 2205.16L140.309 2205.36C132.818 2205.89 125.765 2206.37 119.548 2204.68C114.528 2203.32 109.148 2199.5 108.511 2194.84C107.873 2189.9 111.738 2184.24 115.922 2178.18L116.121 2177.98ZM112.575 2236.16C110.344 2233.84 107.036 2232.79 103.689 2233.63C101.936 2232.87 100.142 2232.07 99.5846 2230.94C98.8674 2229.74 98.9471 2227.13 99.5846 2223.31C99.7839 2222.27 100.262 2219.94 100.9 2219.1C101.537 2218.17 102.294 2217.53 102.932 2217.05C106.359 2219.5 110.264 2221.43 114.727 2222.67C123.971 2225.16 133.375 2224.52 141.624 2223.88L144.015 2223.68C181.193 2221.07 212.553 2226.21 237.219 2238.86L241.283 2240.98C250.687 2245.92 261.805 2251.79 273.4 2251.79C276.19 2251.79 279.059 2251.3 281.928 2250.46C281.928 2254.68 282.007 2259.05 282.565 2263.39C262.363 2266.84 245.029 2262.87 225.065 2258.09C216.817 2256.16 208.289 2254.11 198.925 2252.43C194.103 2251.58 187.967 2252.15 181.591 2252.79C176.849 2253.27 169.796 2253.99 167.405 2253.27C162.863 2251.87 158.4 2250.1 153.937 2248.41C149.673 2246.77 145.41 2245.08 141.066 2243.67C134.571 2241.55 127.996 2240.06 121.66 2238.65C118.592 2237.93 115.643 2237.17 112.575 2236.41V2236.16ZM301.852 2237.65C301.852 2237.65 301.852 2237.65 301.852 2237.53L304.003 2235.6C305.199 2234.56 306.514 2233.63 307.789 2232.71C309.383 2232.07 310.778 2231.02 311.694 2229.62C325.402 2220.34 343.014 2215.04 362.699 2213.8C362.42 2222.39 361.862 2231.51 360.109 2240.14C357.678 2252.51 353.215 2262.75 346.919 2270.66C344.13 2274.19 341.46 2276.64 338.671 2278.01C335.523 2279.61 331.259 2280.34 327.275 2280.9C321.815 2281.66 315.48 2282.38 311.136 2280.34C307.311 2278.65 304.083 2274.39 302.33 2269.09C300.377 2263.15 300.298 2256.24 300.298 2249.74C300.298 2245.08 300.377 2240.98 301.692 2237.73L301.852 2237.65ZM79.3818 2380L81.0554 2377.39C95.8788 2354.02 102.772 2326.03 100.342 2298.49C100.063 2295.31 99.7042 2292.06 99.226 2288.81C98.3095 2281.66 97.4727 2274.83 98.1103 2268.45C98.6681 2262.95 101.099 2256.8 105.163 2253.35C109.228 2254.48 113.332 2255.48 117.516 2256.44C123.692 2257.81 129.63 2259.21 135.408 2261.1C139.392 2262.39 143.377 2263.87 147.362 2265.44C152.263 2267.33 157.085 2269.25 162.106 2270.78C168.043 2272.55 175.534 2271.78 183.544 2271.02C187.967 2270.58 193.466 2270.02 195.777 2270.5C204.504 2272.06 212.832 2274.03 220.801 2275.88C236.183 2279.61 251.046 2283.15 267.264 2283.15C273.759 2283.15 280.533 2282.46 287.666 2281.1C291.372 2288.45 297.03 2294.11 303.724 2297.2C308.705 2299.41 313.806 2300.17 318.747 2300.17C322.732 2300.17 326.517 2299.69 330.144 2299.13C335.443 2298.41 341.54 2297.36 347.318 2294.39C352.418 2291.78 357.12 2287.81 361.663 2282.1C369.832 2271.86 375.49 2258.93 378.479 2243.59C380.392 2233.55 381.149 2223.4 381.428 2213.92C383.938 2214.08 386.329 2214.2 388.839 2214.56L393.86 2215.2C402.866 2216.41 412.668 2217.73 422.311 2216.13C418.247 2233.07 415.537 2251.71 419.721 2270.02C420.478 2273.47 421.475 2276.8 422.511 2280.18C423.985 2285.2 425.459 2289.93 425.858 2294.59C426.296 2300.17 425.3 2306.32 424.383 2312.26L421.395 2330.69C421.116 2332.46 420.837 2334.31 420.279 2335.35C419.642 2336.55 418.048 2338.04 416.573 2339.53C406.731 2348.92 396.649 2358.6 384.496 2363.18C369.354 2368.84 352.299 2366.23 334.407 2363.42C326.996 2362.34 319.305 2361.13 311.694 2360.57C295.556 2359.36 283.601 2362.34 275.154 2369.68C264.873 2378.68 262.522 2391.65 260.41 2403.09C258.816 2411.45 257.421 2419.36 253.277 2424.66C249.093 2429.96 241.004 2433.33 231.919 2433.49C223.312 2433.69 214.426 2431.56 205.062 2429.24L202.83 2428.67C171.271 2420.96 138.835 2415.34 106.478 2412.09H105.363C97.1937 2411.17 89.3836 2410.44 83.008 2407.35C78.1864 2405.02 72.9663 2400.08 72.9663 2394.7C72.9663 2390.24 76.2339 2385.22 79.6608 2380H79.3818ZM268.459 2434.98C274.795 2426.26 276.827 2415.82 278.581 2406.43C280.334 2396.75 281.808 2388.48 287.307 2383.74C291.77 2379.8 299.262 2378.32 310.22 2379.16C312.531 2379.36 314.922 2379.64 317.273 2379.92C321.337 2386.43 324.007 2393.7 324.963 2401.33C325.322 2404.18 325.521 2407.07 325.601 2409.96C325.96 2418.07 326.358 2425.7 325.601 2433.13C321.975 2437.59 318.906 2442.33 315.958 2446.82C310.578 2455.02 305.478 2462.73 298.704 2467.66C290.654 2473.41 279.417 2474.45 270.053 2471.08C272.165 2468.03 273.759 2464.69 274.596 2461.16C276.827 2451.92 274.237 2442.17 268.38 2434.98H268.459ZM61.1316 2430.24C63.7217 2427.91 72.8867 2425.14 77.0707 2425.02C85.7973 2428.67 95.042 2429.68 103.29 2430.52H104.406C135.966 2433.77 167.485 2439.19 198.287 2446.7L200.479 2447.27C210.162 2449.72 220.164 2452.12 230.723 2452.12C231.202 2452.12 231.76 2452.12 232.198 2452.12C240.287 2451.92 247.778 2449.96 254.194 2446.82C256.425 2449.51 257.541 2453.41 256.704 2456.66C254.672 2465.14 242.877 2469.87 237.976 2471.56C222.953 2476.58 203.747 2471.56 185.098 2466.62C174.977 2463.93 164.616 2461.24 154.694 2460.04C142.182 2458.55 130.387 2458.83 119.07 2459.19C100.9 2459.63 83.5658 2460.2 66.6704 2452.41C62.6856 2450.64 58.6212 2448.47 55.6326 2445.78C53.7996 2444.09 53.2417 2443.01 53.1222 2442.45C52.7636 2441.24 52.8432 2437.59 61.1316 2430.36V2430.24ZM34.593 2569.34L35.0712 2568.14C40.8889 2551.31 47.0255 2531.19 47.3841 2509.91C47.3841 2506.82 47.3841 2503.77 47.3841 2500.59C47.3044 2494.17 47.1052 2488.22 48.2209 2482.56C49.257 2477.22 51.3689 2471.84 53.7996 2466.62C55.5529 2467.54 57.3859 2468.51 59.179 2469.31C79.9397 2478.91 100.142 2478.35 119.708 2477.78C130.387 2477.5 141.425 2477.22 152.662 2478.55C161.269 2479.55 170.633 2482.08 180.555 2484.69C194.94 2488.51 209.604 2492.4 223.87 2492.4C230.723 2492.4 237.498 2491.48 244.072 2489.35C248.256 2487.94 251.962 2486.26 255.389 2484.41C271.806 2494.45 294.161 2494.17 309.821 2482.8C319.385 2475.94 325.681 2466.34 331.737 2457.14C334.766 2452.49 337.675 2448.03 340.902 2444.21C341.181 2443.93 341.381 2443.65 341.66 2443.37C345.166 2439.27 349.071 2436.02 353.694 2434.25C364.173 2430.24 376.407 2435.18 382.743 2438.43C390.593 2442.53 396.092 2447.19 399.04 2452.41C400.515 2455.02 401.471 2457.79 401.909 2460.68C401.072 2465.42 400.794 2470.27 401.192 2475.09C399.957 2479.83 398.124 2484.41 395.972 2488.3C390.991 2497.14 384.018 2504.97 376.686 2513.16C373.538 2516.7 370.469 2520.15 367.441 2523.76C365.488 2526.09 363.616 2528.42 361.783 2530.75C355.367 2538.74 349.43 2546.29 341.819 2551.51C335.603 2555.69 327.912 2558.58 320.5 2561.27C316.436 2562.75 312.531 2564.04 308.705 2564.88C306.872 2563.6 304.442 2563.04 301.971 2563.4C300.178 2563.68 298.704 2564.6 297.389 2565.73C296.193 2565.73 295.078 2565.73 293.882 2565.73C291.77 2565.73 289.818 2565.53 287.586 2565.65C275.233 2565.65 253.078 2568.26 239.928 2585.44C236.581 2589.82 234.27 2594.56 232.038 2599.22C230.644 2602.03 229.329 2604.64 227.934 2606.97C227.297 2607.33 226.659 2607.61 226.101 2608.17C224.906 2609.3 224.228 2610.66 223.67 2612.07C223.232 2612.43 222.834 2612.91 222.395 2613.19C218.411 2615.6 212.473 2615.6 205.699 2615.4C156.806 2613.83 107.474 2610.1 58.9798 2604.24C52.6839 2603.51 47.0255 2602.75 41.5663 2601.47C39.0559 2600.9 36.3463 2600.06 34.5133 2598.77C31.724 2596.73 30.0504 2592.07 30.2496 2587.05C30.5285 2581.47 32.4412 2575.68 34.6727 2569.54L34.593 2569.34ZM370.948 2655.43C369.752 2667.88 364.931 2679.89 359.272 2693.1C353.972 2705.51 347.756 2717.32 337.914 2720.57C334.407 2721.69 330.144 2721.85 326.159 2721.69C321.058 2721.57 315.878 2721.13 310.778 2720.77C302.888 2720.21 294.918 2719.64 286.749 2719.81C284.877 2719.44 283.044 2719.44 281.29 2720.21C279.617 2720.37 277.823 2720.49 276.19 2720.65C254.114 2723.82 236.581 2737.11 231.481 2754.34C229.448 2761.25 229.448 2768.19 229.448 2774.26C229.448 2775.82 229.448 2777.51 229.448 2779.08C229.329 2784.01 228.771 2788.95 227.934 2793.81C227.576 2795.58 227.496 2796.02 227.576 2796.02C227.297 2796.3 226.46 2796.66 225.185 2797.15C217.454 2800.32 209.405 2802.73 201.156 2804.29C172.028 2810.08 72.807 2825.98 54.995 2820.52C45.0729 2817.42 37.9402 2813.17 35.9877 2808.95C35.7087 2808.31 35.5095 2806.74 35.3501 2805.34L35.1509 2803.57C27.54 2748.56 28.8549 2705.31 38.9364 2667.6C40.2514 2667.88 41.5663 2668.08 42.6422 2668.28C57.0273 2670.69 72.807 2673.1 92.4519 2675.71C115.842 2678.77 140.11 2681.66 164.497 2681.66C177.208 2681.66 189.919 2680.93 202.551 2678.97C212.553 2677.4 224.985 2674.59 234.828 2666.8C245.467 2670.69 258.657 2669.37 269.774 2662.58C281.091 2655.8 288.981 2645.11 295.755 2634.59L298.226 2630.78C303.446 2622.59 308.427 2614.96 314.922 2609.09C315.599 2608.53 317.352 2606.85 318.628 2606.56C320.022 2606.2 322.812 2606.77 325.043 2607.25C340.544 2610.38 354.052 2613.75 362.42 2622.79C369.354 2630.22 372.621 2642.02 371.227 2655.15L370.948 2655.43ZM247.22 2809.15C246.503 2807.1 245.467 2805.34 244.351 2803.77C245.308 2801.6 245.866 2799.39 246.224 2797.35C247.22 2791.48 247.898 2785.62 247.978 2779.64C247.978 2777.87 247.978 2776.1 247.978 2774.34C247.978 2769.04 247.978 2764.02 249.173 2759.72C252.6 2747.91 266.507 2740.93 278.66 2739.16C280.174 2739 281.649 2738.88 283.123 2738.8C284.877 2740.41 286.67 2742.89 288.025 2745.02C291.093 2749.6 294.36 2754.26 295.476 2759C296.114 2761.89 296.114 2765.22 296.034 2768.11C295.635 2777.79 293.802 2787.27 290.734 2796.38C290.376 2797.07 289.897 2797.71 289.539 2798.35L288.144 2800.6C279.617 2814.09 269.137 2825.98 256.784 2836.14C252.162 2839.95 250.209 2840.23 249.452 2840.15C248.177 2839.95 246.503 2837.7 244.351 2833.81C244.551 2833.53 244.75 2833.33 244.909 2833.05C249.093 2826.1 250.01 2816.86 247.141 2809.15H247.22ZM37.2628 2619.41C43.5986 2620.9 49.8148 2621.74 56.6686 2622.59C105.641 2628.45 155.531 2632.26 204.942 2633.83C206.616 2633.83 208.369 2633.95 210.242 2633.95C216.338 2633.95 223.391 2633.19 229.887 2629.86C231.361 2635.88 230.564 2642.67 227.297 2647.89C226.38 2648.53 225.543 2649.29 224.786 2650.21C224.507 2650.58 224.428 2651.06 224.228 2651.42C217.932 2657.28 208.21 2659.53 199.483 2660.94C165.174 2666.24 130.307 2662.3 94.6833 2657.56C75.0384 2654.95 59.8963 2652.74 45.5511 2650.21C41.646 2649.57 37.9402 2648.81 36.2666 2647.16C34.8719 2645.84 33.9554 2642.87 33.6765 2641.94C31.2458 2634.23 31.0864 2625.92 32.8397 2618.13C34.3141 2618.57 35.7884 2619.05 37.1831 2619.33L37.2628 2619.41ZM294.639 2584.24C294.241 2590.3 292.846 2596.24 290.176 2601.67C288.861 2604.24 289.061 2607.05 290.176 2609.58C287.467 2613.39 284.877 2617.21 282.486 2621.02L280.055 2624.72C273.56 2634.67 267.622 2642.3 260.051 2646.96C256.306 2649.21 251.325 2650.78 246.503 2650.7C250.767 2639.41 250.01 2626.2 244.192 2615.6C245.866 2612.83 247.34 2609.94 248.615 2607.13C250.568 2603.23 252.321 2599.5 254.552 2596.61C263.199 2585.36 280.254 2584.08 287.467 2584.08C289.419 2584.08 291.292 2584.08 293.245 2584.16C293.683 2584.16 294.241 2584.16 294.719 2584.16L294.639 2584.24ZM41.0882 2835.37C43.6783 2836.5 46.3879 2837.54 49.3366 2838.47C53.4011 2839.67 59.7369 2840.23 67.5072 2840.23C111.738 2840.23 203.547 2822.93 204.583 2822.73C213.19 2821.08 221.559 2818.47 229.608 2815.38C229.608 2815.38 229.608 2815.5 229.608 2815.58C230.445 2817.99 230.166 2821.32 228.89 2823.49C225.902 2828.31 219.965 2831.84 213.589 2835.21C188.445 2848.51 161.07 2860.71 132.26 2871.47C113.133 2878.58 90.34 2886.29 66.3118 2889.63C60.5737 2890.47 54.0785 2890.95 50.1735 2888.42C46.6669 2886.21 44.3158 2880.99 42.8415 2872.24C40.7295 2860.03 40.1717 2847.78 41.0085 2835.49L41.0882 2835.37ZM414.063 3013.11C416.294 3016.48 418.327 3020.09 420.279 3023.71C425.18 3032.66 430.201 3041.86 439.127 3048.76C442.634 3051.45 446.26 3053.42 449.766 3055.27C452.197 3056.55 454.588 3057.8 456.819 3059.37C470.288 3068.68 474.153 3086.63 478.258 3105.63C482.123 3123.74 486.227 3142.45 498.819 3156.98C502.724 3161.52 507.187 3165.18 511.331 3168.71C515.435 3172.12 519.341 3175.3 522.289 3179.03C535.001 3194.49 532.769 3216.54 530.458 3239.87C528.227 3261.75 525.995 3284.28 535.08 3304.84C539.543 3314.88 546.397 3323.43 552.892 3331.62C561.539 3342.51 569.788 3352.67 570.625 3364.47C571.182 3372.58 568.194 3381.06 565.046 3389.97C562.535 3396.96 559.945 3404.23 558.83 3412.02C557.236 3422.46 558.471 3432.5 559.587 3442.25C560.224 3447.76 560.782 3452.98 560.862 3458C561.34 3477.91 554.367 3497.71 547.593 3516.9C534.244 3554.85 520.536 3594.04 500.493 3629.3C488.618 3650.14 474.273 3670.14 460.446 3689.58C450.125 3703.91 439.486 3718.81 427.531 3731.82C416.573 3743.67 404.22 3754.35 390.792 3763.46C384.655 3767.68 380.033 3763.3 379.196 3762.38C378.001 3761.05 374.375 3756.52 379.196 3750.17C405.456 3715.84 422.789 3670.98 430.56 3617.01C432.791 3601.47 434.584 3583.24 430.839 3565.37C429.922 3560.92 428.647 3556.54 427.332 3552.36C427.332 3545.66 428.249 3539.03 430.48 3532.81C436.218 3516.34 445.423 3502.73 455.146 3488.51C463.315 3476.51 471.643 3464.14 478.258 3449.52C491.128 3421.05 496.866 3389.49 494.834 3358.33C492.722 3325.48 478.138 3285 443.55 3270.1C432.353 3265.29 420.478 3263.8 409.082 3262.31C397.287 3260.83 386.169 3259.42 376.805 3254.48C370.589 3251.23 366.325 3246.65 365.09 3242.12C364.173 3238.66 364.652 3234.29 365.289 3228.7C367.242 3211.12 367.72 3193.25 366.764 3175.58C365.927 3160.24 363.695 3142.65 353.773 3128.23C343.851 3113.7 323.011 3102.61 304.003 3110.44C299.262 3112.41 297.03 3117.87 298.983 3122.65C300.935 3127.39 306.394 3129.6 311.136 3127.67C320.7 3123.66 332.574 3130.16 338.472 3138.75C345.804 3149.44 347.477 3163.85 348.234 3176.62C349.151 3193.25 348.673 3210.11 346.76 3227.5C346.083 3233.36 345.365 3239.99 347.119 3246.77C349.709 3256.61 357.12 3265.21 368.158 3270.95C380.511 3277.37 393.86 3279.14 406.731 3280.75C417.41 3282.11 427.412 3283.32 436.218 3287.13C463.115 3298.7 474.552 3332.11 476.305 3359.45C478.138 3387.64 472.958 3416.03 461.282 3441.81C455.345 3454.9 447.734 3466.07 439.685 3477.99C434.744 3485.26 429.723 3492.61 425.18 3500.44C426.216 3496.5 427.332 3492.53 428.528 3488.51C433.548 3471.49 438.729 3453.9 435.302 3435.31C433.19 3423.74 427.611 3412.22 418.884 3401.21C393.302 3368.85 352.976 3354.35 313.168 3343.43L302.768 3340.66C269.575 3331.7 235.386 3322.51 209.604 3301.39C184.46 3280.75 168.402 3242.04 184.261 3213.44C185.735 3213.44 187.13 3213.36 188.644 3213.16C201.794 3211.32 215.342 3202.2 222.953 3189.91C227.934 3181.8 231.202 3173.09 234.35 3164.69C237.577 3156.06 240.646 3147.87 245.387 3140.96C248.814 3135.94 253.357 3131.37 258.099 3126.63C262.801 3121.89 267.742 3116.95 271.886 3111.21C279.896 3100.2 284.239 3087.76 288.503 3075.75C291.292 3067.84 293.882 3060.37 297.389 3053.5C304.282 3040.09 315.121 3028.36 327.992 3020.57C329.665 3019.53 331.339 3018.61 333.092 3017.6C339.787 3013.79 347.398 3009.57 352.857 3002.42C356.403 2997.85 358.435 2991.98 358.874 2986.24C380.113 2985.48 402.109 2995.72 413.983 3013.51L414.063 3013.11ZM333.491 2979.13C333.491 2979.98 333.491 2980.74 333.65 2981.58C334.606 2984.63 336.997 2986.8 339.787 2987.73C339.428 2988.81 339.03 2989.94 338.312 2990.78C335.045 2994.95 329.785 2997.97 324.127 3001.22C322.254 3002.22 320.301 3003.35 318.468 3004.47C302.489 3014.23 289.539 3028.2 281.011 3044.83C276.907 3052.86 273.958 3061.21 271.089 3069.4C267.184 3080.69 263.359 3091.29 257.063 3100.12C253.716 3104.78 249.571 3108.96 245.109 3113.42C240.008 3118.56 234.708 3123.94 230.285 3130.36C224.228 3139.2 220.602 3148.79 217.175 3158.19C214.227 3166.1 211.437 3173.53 207.452 3180.03C202.83 3187.58 194.103 3193.65 186.293 3194.73C182.03 3195.41 178.722 3194.49 176.092 3192.04C173.502 3189.71 171.55 3185.82 169.796 3179.67C163.421 3156.86 166.29 3132.21 168.96 3108.4C168.96 3108.11 168.96 3107.83 168.96 3107.47C172.107 3105.91 175.176 3104.22 178.045 3102.53C225.264 3075.47 267.463 3040.93 303.246 2999.81C307.072 2995.36 310.778 2990.98 313.248 2985.4C314.085 2983.63 314.643 2981.74 315.121 2979.9C321.058 2979.33 327.075 2979.05 333.013 2979.25C333.092 2979.25 333.292 2979.25 333.491 2979.25V2979.13ZM297.03 2965C294.799 2967.05 293.523 2970.02 293.962 2973.31C294.241 2975.08 295.078 2976.56 296.193 2977.85C294.719 2981.02 292.208 2984.07 289.26 2987.45C254.752 3027 214.227 3060.21 168.8 3086.27C160.432 3091.01 151.546 3095.83 142.262 3097.23C135.408 3098.28 126.123 3097.23 120.744 3091.29C116.121 3086.15 114.727 3078.16 113.97 3069.04C118.712 3066.51 122.896 3063.18 126.96 3059.85C153.578 3038.16 182.508 3019.25 212.912 3003.71C216.538 3001.86 220.164 3000.09 223.87 2998.25C237.019 2991.7 250.767 2984.92 263.199 2976.08C268.021 2972.63 274.237 2967.89 278.78 2961.3C280.732 2958.49 282.207 2955.6 283.482 2952.83C287.666 2953.67 291.651 2955.8 294.241 2959.14C295.635 2960.9 296.472 2962.95 297.03 2965.12V2965ZM374.454 2866.94C371.426 2875.57 362.5 2882.76 347.876 2888.26C342.496 2890.31 336.918 2891.95 331.459 2893.64C324.206 2895.89 316.715 2898.22 309.383 2901.19C292.687 2908.06 280.732 2917.65 273.759 2929.66C272.643 2931.51 271.727 2933.48 270.89 2935.32C267.344 2937.17 265.232 2941.11 265.989 2945.2C265.989 2945.48 266.148 2945.64 266.268 2945.84C265.431 2947.61 264.594 2949.18 263.558 2950.66C260.689 2954.88 256.306 2958.21 252.52 2960.9C241.203 2968.93 228.771 2975.08 215.701 2981.58C211.995 2983.43 208.289 2985.28 204.583 2987.16C172.944 3003.27 142.899 3022.9 114.607 3045.87C110.742 3049.05 107.036 3052.02 103.211 3053.5C100.262 3054.63 97.1141 3054.51 95.5998 3053.3C92.8504 3051.09 92.5714 3043.91 92.3722 3039.65C91.0572 3007.8 86.9927 2971.42 66.1125 2942.51L63.6021 2939.14C59.6174 2933.76 55.8318 2928.74 55.7521 2923.96C55.7521 2919.14 59.458 2913.92 63.8014 2908.54C65.5547 2908.34 67.2283 2908.14 68.9816 2907.98C94.9623 2904.32 119.907 2895.77 138.755 2888.78C168.402 2877.82 196.494 2865.25 222.395 2851.6C225.185 2850.11 227.854 2848.51 230.564 2846.82C233.792 2851.76 238.693 2856.98 246.304 2858.38C255.509 2859.95 263 2854.93 268.579 2850.47C282.366 2839.11 294.241 2825.62 303.804 2810.44L304.84 2808.79C305.956 2807.75 306.872 2806.62 307.43 2805.14C307.51 2804.86 307.59 2804.57 307.709 2804.29C310.02 2800.76 312.332 2797.71 315.121 2795.74C317.99 2793.81 322.094 2792.69 326.796 2792.49C337.197 2792.33 348.035 2796.38 355.367 2804.01C363.974 2812.97 368.278 2825.82 371.864 2838.27C374.733 2848.14 377.244 2858.46 374.295 2867.02L374.454 2866.94ZM397.088 2720.57C404.22 2723.82 411.552 2725.59 418.725 2727.35C423.427 2728.48 427.97 2729.6 432.233 2731.09C457.736 2739.92 475.269 2766.35 471.483 2790C469.531 2802.08 460.605 2813.45 448.212 2819.55C437.613 2824.77 426.575 2824.97 417.888 2820.24C414.9 2818.63 411.951 2816.58 408.962 2814.53C400.435 2808.79 389.477 2801.52 378.001 2803.09C375.411 2798.71 372.422 2794.62 368.796 2790.8C357.878 2779.56 342.018 2772.97 326.358 2773.69C321.895 2773.9 317.791 2774.54 314.085 2775.74C314.364 2773.33 314.563 2771 314.643 2768.59C314.842 2764.38 314.842 2759.48 313.647 2754.34C312.252 2748.48 309.463 2743.38 306.594 2738.88C307.51 2738.88 308.427 2739 309.263 2739.08C314.762 2739.44 320.221 2739.92 325.601 2740C330.98 2740.12 337.396 2740 343.572 2737.96C360.468 2732.49 369.274 2716.55 376.247 2700.17V2700.01C380.67 2709.04 387.564 2716.11 397.008 2720.37L397.088 2720.57ZM475.827 2566.21L476.943 2566.85C483.916 2570.67 490.57 2574.28 495.033 2579.42C507.825 2594.04 501.808 2618.49 492.802 2634.96C486.785 2646.04 480.648 2653.19 473.595 2657.68C465.825 2662.5 456.341 2663.35 449.966 2659.69C446.618 2657.84 443.55 2654.59 440.322 2651.14C438.37 2649.09 436.497 2647.04 434.465 2645.2C418.805 2630.7 407.209 2624.84 387.285 2631.62C384.934 2623.43 381.069 2616.16 375.689 2610.3C362.619 2596.16 342.855 2592.15 328.47 2589.18C324.565 2588.33 319.106 2587.21 313.447 2588.82C313.248 2588.82 313.089 2588.98 312.81 2588.98C313.089 2586.85 313.168 2584.72 313.248 2582.59C318.07 2581.47 322.612 2579.98 326.717 2578.5C335.244 2575.32 343.971 2572.15 352.139 2566.57C362.062 2559.78 369.194 2550.75 376.128 2541.99C377.921 2539.79 379.674 2537.54 381.507 2535.41C384.376 2531.95 387.365 2528.62 390.314 2525.25C396.649 2518.18 403.145 2510.83 408.524 2502.56C412.31 2510.83 417.051 2518.46 422.152 2524.81C436.776 2543.12 456.62 2555.41 476.026 2566.01L475.827 2566.21ZM476.584 2391.93L480.648 2393.5C489.176 2396.75 497.265 2399.92 500.692 2405.78C502.804 2409.32 503.362 2414.34 503.84 2419.92C504.756 2430.52 505.434 2440.76 503.083 2450.16C500.771 2459.47 495.512 2466.82 488.897 2469.87C478.536 2474.73 465.068 2469.51 455.903 2462.93C454.508 2461.88 453.114 2460.88 451.719 2459.75C447.734 2456.66 443.55 2453.53 438.569 2451.08C431.875 2447.83 424.264 2446.34 416.772 2446.7C416.095 2445.34 415.537 2443.93 414.82 2442.61C409.879 2434.17 402.109 2427.19 390.871 2421.4C375.132 2413.33 359.432 2411.45 346.76 2416.31C345.923 2416.59 345.166 2417.03 344.409 2417.39C344.329 2414.42 344.25 2411.53 344.05 2408.68C343.851 2405.3 343.692 2401.97 343.293 2398.6C342.656 2393.22 341.261 2387.83 339.309 2382.69C356.403 2385.1 373.817 2386.59 390.792 2380.28C404.978 2374.98 416.215 2365.03 426.137 2355.63C427.97 2358.88 430.4 2361.57 432.791 2363.9C445.582 2375.83 460.246 2385.22 476.385 2391.65L476.584 2391.93ZM483.996 2209.54L487.064 2212.15C495.233 2218.94 503.003 2226.37 510.255 2234.12C512.646 2236.61 515.236 2239.58 517.109 2242.67C519.5 2246.77 520.895 2251.67 522.289 2257.81C524.242 2266.68 525.836 2275.8 526.752 2284.79C527.948 2296.36 526.752 2303.43 522.847 2306.96C518.304 2311.14 509.857 2310.29 506.43 2309.73C503.083 2309.21 499.775 2308.37 496.428 2307.52C491.407 2306.2 486.307 2304.91 480.728 2304.35C469.053 2303.23 458.573 2306.6 451.918 2313.39L441.438 2321.46L442.434 2315.07C443.55 2308.37 444.785 2300.74 444.108 2292.82C443.55 2286.28 441.797 2280.34 440.044 2274.67C439.207 2271.7 438.29 2268.81 437.613 2265.72C433.19 2246 438.729 2224.52 444.228 2205.16C449.408 2200.43 454.15 2194.28 458.294 2186.25C458.971 2185.05 459.41 2183.84 460.087 2182.56C460.725 2183.96 461.362 2185.25 462 2186.45C467.658 2196.05 475.906 2202.84 483.796 2209.34L483.996 2209.54ZM503.083 2044.26L504.677 2046.31C507.267 2049.84 510.614 2054.22 515.635 2057.11C520.735 2060.08 526.194 2060.64 530.657 2061.12C532.012 2061.28 533.407 2061.41 534.722 2061.57C548.987 2064.02 558.83 2077.59 563.173 2089.51C567.835 2101.96 568.831 2115.66 569.867 2130.07L570.625 2138.83C571.063 2144.01 571.461 2148.95 570.625 2153.24C569.867 2156.78 567.915 2159.67 565.683 2160.51C561.818 2162.08 555.323 2158.34 550.78 2155.37C542.333 2149.99 534.084 2144.13 525.995 2137.9C523.405 2135.94 520.257 2133.41 516.272 2131.92C512.845 2130.63 509.498 2130.27 506.43 2129.99C497.066 2129.15 486.944 2128.87 477.142 2131.92C475.388 2132.48 473.516 2133.41 471.643 2134.61C471.762 2129.51 471.643 2124.41 471.085 2119.27C469.73 2105.98 465.427 2096.66 458.214 2090.72C449.328 2083.45 437.732 2082.97 427.611 2085.98C427.611 2085.78 427.691 2085.7 427.81 2085.5C430.4 2079.07 433.349 2071.73 434.584 2063.81C435.102 2060 435.381 2055.06 434.584 2049.84C438.37 2049.68 442.275 2049.32 446.14 2048.35C458.772 2045.38 469.81 2037.39 477.5 2026.95C487.622 2029.84 496.707 2035.83 503.083 2044.1V2044.26ZM547.234 1910.66C557.794 1919.49 564.767 1930.38 566.799 1941.38C567.995 1947.68 567.636 1954.47 567.198 1960.17C566.52 1967.12 565.524 1975.03 562.177 1981.66C559.188 1987.6 554.486 1991.9 549.545 1993.1C538.507 1995.71 527.111 1984.55 522.648 1979.61C520.536 1977.28 518.504 1974.75 516.432 1972.26C510.813 1965.35 504.876 1958.28 497.265 1952.82C503.282 1942.74 509.418 1932.34 516.193 1922.18C518.504 1918.73 521.014 1914.84 522.488 1910.02C523.764 1905.92 524.043 1901.99 524.162 1898.65C524.162 1897.89 524.162 1897.17 524.162 1896.4C532.132 1900.34 540.181 1904.88 547.154 1910.66H547.234ZM534.921 1842.63C530.179 1849.06 522.01 1851.95 515.914 1853.32C509.777 1854.64 503.362 1855 496.587 1855.48C493.838 1855.65 491.049 1855.85 488.339 1856.05C476.106 1857.05 464.709 1859.3 454.429 1862.63C436.896 1868.41 420.558 1878.09 407.209 1890.82L404.141 1893.79C400.634 1897.25 397.287 1900.62 393.581 1902.67C390.035 1904.6 385.492 1905.8 379.395 1906.36C364.173 1907.69 348.792 1904.6 332.574 1901.18C320.979 1898.73 308.905 1896.32 296.671 1895.48C289.419 1895.04 282.286 1895.2 275.433 1895.32C266.507 1895.48 258.099 1895.68 249.85 1894.64C237.976 1893.15 226.46 1889.26 213.669 1884.6C212.075 1884.04 208.847 1882.91 208.21 1881.91C206.815 1880.06 210.959 1872.59 213.031 1869.06L213.589 1868.13C219.526 1857.41 222.953 1845.33 223.511 1833.16C223.87 1825.81 223.113 1818.62 222.475 1811.75C221.837 1805.21 221.28 1799.11 221.559 1793.04C221.917 1784.85 224.906 1774.41 231.839 1769.67C234.907 1770.59 237.697 1771.36 239.928 1771.84C274.676 1779.63 310.299 1784.49 345.804 1786.26C349.071 1786.42 352.299 1786.54 355.646 1786.54C365.767 1786.54 375.769 1785.41 384.775 1781.68C392.545 1784.01 401.192 1786.34 410.357 1786.34C411.473 1786.34 412.668 1786.34 413.784 1786.26C419.801 1785.89 426.137 1784.29 433.628 1781.4C445.702 1776.74 454.867 1771 461.92 1763.81C469.531 1755.9 474.073 1746.06 475.11 1736.18C476.584 1736.46 478.058 1736.74 479.453 1737.02L483.079 1737.79C495.512 1740.36 508.861 1743.09 522.21 1742.97C522.488 1745.5 521.014 1749.39 518.026 1753.77L516.551 1755.9C512.088 1762.32 506.629 1770.35 506.988 1780.27C507.466 1793.32 517.468 1802.16 524.8 1808.66C529.82 1813.12 535.479 1818.46 537.67 1824.56C539.902 1830.43 538.906 1837.62 535.2 1842.63H534.921ZM566.799 1771.64L583.495 1792.28C586.843 1796.37 589.911 1800.19 591.943 1804.29C594.732 1809.99 596.008 1817.22 595.848 1827.09C595.848 1831.95 595.29 1838.9 591.943 1842.35C588.397 1845.97 581.463 1845.69 576.562 1843.56C569.668 1840.59 563.85 1834.36 558.272 1828.3C557.913 1827.94 557.435 1827.66 556.997 1827.38C556.718 1824.2 555.961 1821.03 554.845 1818.06C551.219 1808.38 544.086 1801.03 536.834 1794.61C531.574 1789.87 525.557 1784.57 525.358 1779.55C525.278 1775.73 528.306 1771.16 531.653 1766.42L533.247 1764.09C537.113 1758.35 539.185 1753.29 540.101 1748.83C550.103 1751.72 558.83 1761.6 566.919 1771.56L566.799 1771.64ZM596.765 1677.19C600.391 1682.57 601.507 1690.04 602.144 1696.55C603.061 1705.86 601.785 1712.17 598.598 1714.62C596.127 1716.46 591.664 1716.38 588.118 1714.22C584.133 1711.89 581.463 1707.79 579.71 1704.1C582.38 1696.83 583.974 1689.12 583.774 1681.09C583.575 1673.58 581.941 1666.03 579.152 1658.96C582.938 1662.49 586.763 1666.11 590.349 1669.76C592.86 1672.25 595.29 1674.66 596.964 1677.19H596.765ZM594.055 1579.77C599.913 1592.78 602.622 1604.99 601.945 1616.07C595.37 1610.85 588.795 1606.92 582.499 1603.22C575.247 1598.93 568.831 1595.11 563.093 1589.81C568.552 1588.04 573.773 1585.15 578.036 1580.33C582.3 1575.48 584.531 1569.73 585.727 1563.75C588.795 1568.97 591.664 1574.27 594.055 1579.77ZM566.64 1537.89C568.552 1539.94 568.552 1545.72 568.473 1548.41C568.473 1555.56 567.995 1563.47 564.01 1568.05C560.025 1572.58 552.255 1574.19 539.464 1573.15C531.853 1572.5 524.162 1571.5 516.551 1570.46C501.688 1568.49 486.227 1566.48 470.647 1567.12C441.438 1568.25 417.051 1579.69 403.862 1598.49C402.109 1600.98 400.435 1603.67 398.881 1606.4C395.534 1612.06 392.545 1617 388.401 1619.33C381.786 1622.94 371.784 1619.89 362.141 1617L360.747 1616.6C334.686 1608.73 307.59 1605.43 280.533 1606.96H278.66C273.679 1607.32 269.017 1607.6 265.152 1606.56C262.163 1605.71 259.653 1603.67 259.374 1601.9C259.095 1600.13 260.33 1597.16 261.685 1593.63C266.427 1581.74 269.017 1570.94 269.495 1560.78C269.774 1554.55 269.296 1548.49 268.937 1542.63C268.579 1537.17 268.101 1531.95 268.38 1526.93C268.858 1517.89 271.886 1510.74 276.548 1506.93C280.334 1506.93 283.88 1506.53 286.829 1506.17C307.988 1503.92 329.028 1507.17 351.303 1510.74C364.373 1512.75 378.001 1514.92 391.549 1515.76C394.976 1515.92 398.682 1516.13 402.666 1516.13C409.52 1516.13 417.131 1515.48 424.822 1513.72C443.47 1518.37 463.235 1516.85 480.848 1509.22C482.88 1508.29 484.912 1507.37 486.944 1506.37C493.439 1503.28 499.656 1500.3 505.035 1500.95C511.61 1501.79 516.99 1507.65 523.206 1514.44C529.82 1521.63 537.312 1529.82 548.071 1533.15C551.219 1534.16 554.486 1534.64 557.236 1535.12C561.141 1535.68 564.847 1536.32 566.361 1537.81L566.64 1537.89ZM610.393 1509.22C604.814 1492.59 597.323 1476.77 588.038 1461.79C596.765 1460.11 605.372 1456.94 612.425 1450.71C616.808 1469.99 616.131 1490.26 610.393 1509.22Z" fill="#BB615B" fill-opacity="0.05"/>
</svg>
