<svg width="121" height="121" viewBox="0 0 121 121" fill="none" xmlns="http://www.w3.org/2000/svg">
<g clip-path="url(#clip0_185_2)">
<path d="M39.6666 97.4933C40.1468 96.2615 40.9088 95.3115 41.0979 95.3104C41.3809 95.4032 44.5892 96.3288 48.3646 97.251C55.0654 99.006 74.6327 98.9809 76.4398 97.1738C77.0105 96.6031 77.667 97.4499 78.2238 99.1479C79.0566 102.073 78.9615 102.168 72.0532 103.439C63.9143 105.002 52.291 104.411 44.8375 102.093C38.4221 100.053 38.516 100.147 39.6666 97.4933Z" fill="#BB615B"/>
<path d="M46.2511 87.3385C46.8252 86.2007 49.8502 86.1822 54.7601 87.0974C58.9137 88.0173 63.4489 88.3677 64.8686 88.0754C70.6448 86.4331 73.3845 86.6999 74.3171 88.7738C75.7159 91.8847 74.6732 92.3637 64.5555 92.8982C52.1678 93.6357 44.4313 91.2253 46.2511 87.3385Z" fill="#BB615B"/>
<path d="M43.9972 69.4866C44.8532 68.6306 45.854 59.5498 46.1994 49.4332C46.88 30.9017 46.8811 30.7126 51.538 26.6194C55.0548 23.4785 56.2958 21.4858 56.5022 18.6487C56.6147 15.7177 57.1877 14.7689 58.8892 14.7585C60.5908 14.7481 61.0571 15.785 61.2265 18.9979C61.3008 22.3059 62.4224 24.3787 66.7443 28.7005L72.0996 34.0558L72.2773 51.3533C72.4817 64.3024 73.1128 69.3085 74.8979 71.0936C76.9648 73.1605 76.9591 74.1058 75.0569 76.008C70.7769 80.288 61.7843 82.3281 55.652 80.3805C48.6705 78.1545 41.8096 71.6741 43.9972 69.4866ZM65.6095 75.1206C69.5879 73.7728 69.7782 73.5826 68.2749 72.0794C67.3354 71.1398 66.5361 62.7318 66.6879 53.3726C66.7908 36.546 65.9591 33.4317 61.6107 33.4583C56.695 33.4884 55.4413 37.5607 55.3383 54.3873C55.3756 63.7453 54.7587 71.8785 53.9978 72.6393C51.9054 74.7317 60.8737 76.662 65.6095 75.1206Z" fill="#BB615B"/>
</g>
<defs>
<clipPath id="clip0_185_2">
<rect width="85.0365" height="86.0833" fill="white" transform="matrix(0.707107 0.707107 0.707107 -0.707107 0 60.8701)"/>
</clipPath>
</defs>
</svg>
