<svg width="107" height="78" viewBox="0 0 107 78" fill="none" xmlns="http://www.w3.org/2000/svg"><path d="M36.231.179c-2.742.66-4.9 3.136-5.413 6.273-.867 5.168 3.556 9.766 8.545 8.857 1.132-.196 1.256-.196 1.539.107.177.196 2.37 3.1 4.9 6.486 2.512 3.386 7.483 10.033 11.04 14.791 3.555 4.758 10.578 14.168 15.638 20.94 5.041 6.753 9.27 12.42 9.411 12.563.248.25-.85-1.48-6.652-10.39C59.53 35.66 54.86 28.497 51.162 22.794c-6.05-9.284-6.722-10.336-6.722-10.443 0-.053.195-.392.442-.748.248-.357.602-1.176.796-1.8C47.2 4.902 43.343-.07 38.071.001c-.637.018-1.45.089-1.84.178z" fill="#5587A3"/><path d="M53.692 19.889c-.141.106.92 1.889 3.574 5.934 2.07 3.19 4.865 7.467 6.21 9.534 1.326 2.05 2.723 4.063 3.077 4.473.85.926 2.123 2.869 5.484 8.269 6.21 9.997 7.307 11.476 9.854 13.187 4.423 2.976 9.96 2.976 9.96 0 0-.482-.248-1.07-.902-2.157-2.176-3.6-6.882-13.026-8.35-16.733-.673-1.693-1.716-5.079-1.716-5.56 0-.071.371-.178.849-.232.46-.071 2.229-.392 3.927-.73 11.27-2.228 18.841-5.739 20.787-9.624.92-1.817.69-3.76-.655-5.72-.407-.624-.619-.784-.92-.713-.194.036-1.645.41-3.219.82-5.874 1.497-10.562 2.138-16.612 2.281-6.616.143-11.216-.303-22.308-2.156-4.688-.784-8.615-1.159-9.04-.873zm-11.11 8.108c-5.944 7.431-9.234 11.173-10.791 12.26-.566.393-3.98 1.426-16.187 4.883C7.094 47.564.072 49.56.001 49.578c-.106.035 9.659 27.514 9.836 27.693.018.035 4.989-1.462 11.021-3.333 6.033-1.853 11.075-3.386 11.18-3.386.125 0 .991.642 1.929 1.408 3.503 2.87 5.343 3.315 11.552 2.816 1.91-.16 6.528-.32 10.42-.374 7.306-.107 10.738-.285 14.152-.749 4.67-.624 6.9-1.604 6.9-3.03 0-1.354-1.115-3.314-2.955-5.167-3.343-3.368-6.51-4.562-12.17-4.598-1.558-.018-3.751.053-4.883.143-2.052.16-2.052.16-2.972-.339-2.141-1.176-3.132-3.76-2.973-7.752.16-3.992 1.398-7.11 3.875-9.712.76-.784 1.38-1.444 1.38-1.48 0-.07-11.358-15.254-11.676-15.592-.266-.303-.372-.196-2.035 1.87z" fill="#5587A3"/></svg>