<svg width="39" height="87" viewBox="0 0 39 87" fill="none" xmlns="http://www.w3.org/2000/svg"><path d="M11.387 44.012c2.988.254 5.908-.516 8.113-2.082 1.929 1.37 4.38 2.13 6.985 2.13.373 0 .753-.016 1.128-.048 4.99-.423 9.012-3.714 9.562-7.825.383-2.867-.936-5.718-3.531-7.628-3.3-2.43-5.193-5.778-5.193-9.185v-17.2c0-.896-.88-1.622-1.966-1.622h-13.97c-1.086 0-1.966.726-1.966 1.622v17.2c0 3.407-1.893 6.755-5.194 9.185-2.593 1.91-3.913 4.76-3.53 7.628.55 4.11 4.57 7.402 9.562 7.825zm27.541 3.578l-.005-.037c-.206-1.494-1.752-2.62-3.594-2.62-.97 0-1.886.313-2.578.88-1.267 1.038-2.921 1.691-4.657 1.838-1.812.153-3.603-.205-5.1-1.02-1.036-.563-2.244-.861-3.494-.861s-2.458.298-3.492.861c-1.498.815-3.293 1.174-5.101 1.02-1.737-.147-3.39-.8-4.658-1.838-.692-.567-1.608-.88-2.578-.88-1.842 0-3.388 1.127-3.6 2.657-.422 3.158 1.044 6.288 3.922 8.374 3.671 2.661 5.777 6.339 5.777 10.091v19.323c0 .896.88 1.622 1.966 1.622h15.529c1.085 0 1.966-.726 1.966-1.622V66.055c0-3.752 2.106-7.43 5.777-10.091 2.877-2.086 4.343-5.216 3.92-8.374z" fill="#5587A3"/></svg>