<svg width="94" height="70" viewBox="0 0 94 70" fill="none" xmlns="http://www.w3.org/2000/svg"><path d="M30.08 26c-1.557-2.203-4.51-2.656-6.58-1-2.07 1.656-2.497 4.797-.94 7l5.596 7.938c.705 1 .602 2.39-.22 3.265l-1.88 2c-.984 1.047-2.585.969-3.467-.172L9.4 28.188V5c0-2.766-2.1-5-4.7-5S0 2.234 0 5v34.125c0 1.703.543 3.36 1.542 4.688l15.29 20.984c.734 1.016 1.234 2.172 1.527 3.39.265 1.079 1.19 1.813 2.248 1.813H39.95c1.292 0 2.35-1.125 2.35-2.5V50c0-4.328-1.322-8.531-3.76-12l-8.46-12zM89.3 0c-2.6 0-4.7 2.234-4.7 5v23.188L71.41 45.03c-.88 1.125-2.496 1.203-3.466.172l-1.88-2c-.822-.875-.925-2.266-.22-3.266L71.44 32c1.557-2.203 1.13-5.344-.94-7-2.07-1.656-5.023-1.203-6.58 1l-8.46 12c-2.438 3.469-3.76 7.672-3.76 12v17.5c0 1.375 1.057 2.5 2.35 2.5h19.343c1.043 0 1.983-.734 2.248-1.813.293-1.218.793-2.374 1.527-3.39l15.29-20.984A7.814 7.814 0 0094 39.124V5c0-2.766-2.1-5-4.7-5z" fill="#ECC069"/></svg>