<svg width="142" height="240" viewBox="0 0 142 240" fill="none" xmlns="http://www.w3.org/2000/svg"><path d="M20.761 87.51a2488.812 2488.812 0 0124.385 3.904c2.858 8.282 8.83 17.76 11.579 22.153 1.954 3.111 5.244 7.216 10.366 12.373 2.305 2.319 6.416 5.056 11.175 7.908 4.92 2.938 9.112 4.162 11.511 4.839 2.98.85 7.414 2.074 13.251 1.858 3.491-.129 6.389-.23 9.773-1.858 1.132-.547 3.734-1.988 8.371-7.835 2.426-3.054 7.755-13.658 10.828-19.852 1.739.13 3.676-.112 5.415.003-.283 2.78-3.208 13.122-4.732 17.602-.997 2.924-2.911 7.95-7.36 13.424-3.76 4.638-7.602 7.187-9.772 8.599-1.618 1.051-4.894 2.953-9.194 5.055-5.257 2.579-9.112 1.556-13.102 1.628-3.235.058-8.465-.85-14.625-2.463-5.069-1.311-7.805-2.175-12.24-4.249-3.95-1.858-8.83-4.638-14.302-9.319-5.122-4.393-8.142-8.398-12.213-13.799-3.868-5.142-6.605-9.924-9.8-16.679C27.96 106.337 24 96.5 20.762 87.511z" fill="url(#paint0_linear_267_4)" stroke="#1C191A" stroke-width=".5" stroke-miterlimit="10"/><path d="M19.5 87.5c2.952-1.8 3.057 7.942 9.5 22 .66 1.455 3.718 6.847 8.3 13.847 1.012 1.541 4.018 6.035 8.722 11.178 2.71 2.967 5.742 6.251 10.46 9.693a61.259 61.259 0 009.423 5.589c4.367 2.088 7.805 3.111 11.161 4.105 4.799 1.411 8.802 2.16 11.161 2.607.822.158 1.631.288 2.534.432 1.618.245 3.788.576 6.525.677.97.043 2.278.058 3.841 0-4.246 1.815-7.225 2.938-9.772 3.356-2.4.403-4.692.792-8.897 1.066-4.556.288-4.96.331-9.935.144-9.26-.331-8.546-.749-11.323-1.181-1.213-.187-6.133-1.383-11.714-4.134-4.057-2.002-6.632-4.076-10.81-7.461-2.022-1.628-5.46-4.422-9.423-8.57-1.846-1.93-7.953-7.562-12.913-17.155-4.273-8.253-9.315-21.85-11.445-28.433C16.26 89.34 16.103 89.574 19.5 87.5z" fill="url(#paint1_linear_267_4)" stroke="#1C191A" stroke-width=".5" stroke-miterlimit="10"/><path d="M132 111.003c-1.914 4.566-7.607 13.77-8.941 16.248-1.173 2.175-3.189 5.473-6.559 8.584-2.062 1.901-5.685 3.531-9.5 4.165-3 1-16.01-.607-18.948-2.019-.809-.389 9.854-2.333 14.545-6.597 1.455-1.325 4.151-3.672 6.753-9.232.809-1.729 1.361-2.953 1.537-4.019 6.996-2.304 15.047-4.828 21.113-7.133v.003z" fill="url(#paint2_linear_267_4)" stroke="#1C191A" stroke-width=".5" stroke-miterlimit="10"/><path d="M16.906 239.297h26.932c-.31-6.612.445-13.626.93-16.953.257-1.815.661-4.898 3.532-11.48 2.696-6.15 5.473-9.146 6.551-10.5 2.224-2.795 2.683-3.025 4.583-4.754 2.75-2.52 6.828-4.275 9.066-5.11-1.362-1.872-5.75-4.713-10.13-6.11-3.087-.98-5.917-.678-8.37-.39-1.995.23-5.15.649-8.642 2.666-3.195 1.843-5.985 4.508-9.961 10.068-2.71 3.788-3.685 6.338-5.397 9.766-1.698 3.399-3.042 6.193-5.306 14.965-1.214 4.724-2.656 10.961-3.802 17.832h.014z" fill="url(#paint3_linear_267_4)" stroke="#1C191A" stroke-width=".5" stroke-miterlimit="10"/><path d="M16.798 236.935c1.793-8.671 2.79-13.727 4.354-18.84 2.359-7.706 3.72-10.573 4.96-12.877 1.43-2.665 3.613-7.073 7.374-11.566 4.704-5.604 5.715-6.036 7.144-6.986 3.518-2.334 6.915-2.823 8.506-3.025 4.772-.634 8.438.533 10.271 1.138 1.187.389 5.069 1.771 9.22 5.3 4.274 3.645 6.336 7.519 10.272 15.153 2.413 4.667 4.988 9.708 7.09 17.04a80.971 80.971 0 012.831 15.527c7.441.129 16.486.331 23.94.446-.121-9.362-3.087-17.183-4.448-22.786-.741-3.097-2.089-8.905-4.812-15.459-3.505-8.412-7.104-14.112-8.034-15.524-3.208-4.854-5.716-7.95-9.827-11.436-5.783-4.897-11.539-6.842-14.18-7.576-3.748-1.052-12.321-3.457-21.622.763-4.246 1.916-7.225 3.817-11.39 7.98-1.618 1.627-6.323 6.496-10.61 13.582-4.07 6.727-5.998 12.387-7.723 17.357-1.321 3.788-2.157 8.57-3.235 14.475-.903 4.955-.526 12.087 0 19.879l-.081-2.565z" fill="url(#paint4_linear_267_4)" stroke="#1C191A" stroke-width=".5" stroke-miterlimit="10"/><path d="M112.949 238.159c9.328-.13 18.669-.259 27.997-.375.297-4.018-.283-8.944-1.334-15.325-1.159-7.087-2.71-11.365-3.451-13.151-2.332-5.689-3.424-9.377-7.629-16.564-2.467-4.206-6.161-9.031-10.582-13.41-2.615-2.607-6.214-5.502-11.323-8.411-1.995-1.138-6.403-2.982-11.754-4.322-2.252-.561-4.044-.821-13.467-1.512-4.488-.331-9.624-.475-12.36-.663 2.924.965 8.182 2.463 12.36 5.2 2.265 1.484 6.632 4.609 10.986 9.852 3.775 4.523 5.783 8.527 8.156 13.252.62 1.224 2.776 5.603 4.96 11.739.472 1.339 1.914 5.459 3.545 12.113 1.321 5.387 2.831 12.675 3.896 21.591v-.014z" fill="url(#paint5_linear_267_4)" stroke="#1C191A" stroke-width=".5" stroke-miterlimit="10"/><path d="M44.728 80.626c-.741-11.854-.485-21.822.62-28.202 1.16-6.727 2.4-10.14 4.246-13.252 3.29-5.56 7.697-8.772 10.272-10.6 1.82-1.297 4.826-3.415 9.22-4.927 8.506-2.924 15.866-1.412 18.427-.763 5.742 1.454 9.597 4.133 13.466 6.813 4.866 3.37 8.074 6.74 9.921 8.714 4.758 5.041 7.63 9.578 8.506 10.975 3.221 5.2 4.906 9.507 6.376 13.252 1.253 3.212 2.952 7.59 4.246 13.626.863 4.047 1.173 7.058 1.766 12.877.539 5.315.66 8.786.714 10.6.054 2.291.175 4.178.135 5.632 1.415 0 2.548-.129 3.963-.129.917-8.8.741-16.132.148-21.779-.93-8.944-2.79-15.627-3.545-18.177a97.564 97.564 0 00-7.441-18.177c-3.936-7.404-7.805-12.344-10.635-15.902-3.909-4.94-8.102-10.169-14.882-15.527-5.58-4.408-10.46-6.957-13.116-8.325-4.799-2.478-8.115-4.192-12.752-5.301-9.88-2.362-18.076-.144-21.257.763-9.328 2.636-14.706 8.124-16.041 9.262-1.254 1.051-6.241 4.422-10.366 11.595-2.292 3.96-3.599 7.907-4.583 10.572-.97 2.622-1.604 5.589-2.413 9.535-.66 3.212-1.307 6.31-1.564 11.552-.27 5.733-.12 12.272.35 20.036 8.628 2.016 17.578 3.24 26.206 5.257h.013z" fill="url(#paint6_linear_267_4)" stroke="#1C191A" stroke-width=".5" stroke-miterlimit="10"/><path d="M112.464 111.5c5.783-2.016 14.221-4.256 20.017-6.273.634-9.362-.566-16.765-1.132-22.383-.809-7.936-1.982-11.984-2.48-13.626-1.321-4.292-2.791-7.302-4.961-11.739-1.847-3.773-4.119-7.211-7.408-11.979-2.17-3.14-4.125-5.977-7.441-9.089-3.424-3.212-6.139-5.52-9.253-7.336-2.628-1.54-5.688-3.874-10.15-5.372C85.882 22.42 81.69 21.583 76.5 22c-6.713.533-11.954 3.368-15 5.5-3.788 2.65-7.053 5.623-8.765 7.682 3.6-1.022 8.047-.662 12.05-.403 4.476.288 6.646 1.124 9.49 1.887 6.228 1.656 10.474 4.926 12.402 6.439 3.06 2.39 4.987 4.753 8.856 9.463 3.613 4.393 5.972 7.274 8.506 11.739 3.464 6.107 5.244 11.364 6.376 15.527 1.698 6.179 2.116 9.809 2.278 12.17.35 5.258.189 10.944-.229 18.996v.5z" fill="url(#paint7_linear_267_4)" stroke="#1C191A" stroke-width=".5" stroke-miterlimit="10"/><path d="M18.308 75.498c-5.554 2.91-10.447 4.667-16 7.577C.958 74.936.77 67.95 1.214 63.212c.297-3.14.863-8.7 3.195-15.527.836-2.463 2.157-7 5.27-12.143 3.155-5.185 6.228-8.54 8.102-10.615 3.977-4.407 6.875-7.346 10.851-10.299 3.6-2.664 14.37-7.677 18.198-9.146-4.125 1.584-13.884 10.04-16.055 12.747-3.882 4.826-6.038 8.311-6.578 9.636-1.428 3.573-2.264 5.503-3.545 10.4-.445 1.714-1.59 4.84-2.062 9.708-.715 7.303-.998 8.47-.809 12.733.121 2.75.189 10.284.54 14.778l-.014.014z" fill="url(#paint8_linear_267_4)" stroke="#1C191A" stroke-width=".5" stroke-miterlimit="10"/><path d="M18.133 75.268c7.683 2.016 17.982 3.658 25.665 5.675-5.352 2.204-6.646 2.895-12.577 5.027-9.085-1.21-18.656-1.642-28.186-2.823 5.338-3.097 10.002-5.33 15.098-7.88z" fill="url(#paint9_linear_267_4)" stroke="#1C191A" stroke-width=".5" stroke-miterlimit="10"/><path d="M131.902 105.616c1.428.058 2.169-.057 3.598 0-7.346 2.636-15.14 4.835-22.5 7.384-.607-.763-.028-.092-.5-1 6.066-2.29 13.336-4.093 19.402-6.384z" fill="#2484C6" stroke="#1C191A" stroke-width=".5" stroke-miterlimit="10"/><path d="M80.342 131.802c10.273 0 18.602-8.912 18.602-19.906 0-10.993-8.329-19.906-18.602-19.906-10.274 0-18.602 8.913-18.602 19.906 0 10.994 8.328 19.906 18.602 19.906z" fill="url(#paint10_linear_267_4)" stroke="#1C191A" stroke-width=".5" stroke-miterlimit="10"/><defs><linearGradient id="paint0_linear_267_4" x1="20.761" y1="122.483" x2="137.428" y2="122.483" gradientUnits="userSpaceOnUse"><stop stop-color="#fff"/><stop offset="1" stop-color="#716564" stop-opacity=".2"/></linearGradient><linearGradient id="paint1_linear_267_4" x1="4.936" y1="124.802" x2="101.154" y2="124.802" gradientUnits="userSpaceOnUse"><stop stop-color="#716564" stop-opacity=".6"/><stop offset=".59" stop-color="#716564" stop-opacity=".672"/><stop offset="1" stop-color="#716564"/></linearGradient><linearGradient id="paint2_linear_267_4" x1="87.998" y1="125.58" x2="131.403" y2="125.58" gradientUnits="userSpaceOnUse"><stop stop-color="#716564" stop-opacity=".6"/><stop offset="1" stop-color="#716564"/></linearGradient><linearGradient id="paint3_linear_267_4" x1="16.906" y1="211.512" x2="68.479" y2="211.512" gradientUnits="userSpaceOnUse"><stop stop-color="#fff"/><stop offset="1" stop-color="#716564"/></linearGradient><linearGradient id="paint4_linear_267_4" x1="16.313" y1="201.026" x2="112.787" y2="201.026" gradientUnits="userSpaceOnUse"><stop stop-color="#716564"/><stop offset="1" stop-color="#716564" stop-opacity=".3"/></linearGradient><linearGradient id="paint5_linear_267_4" x1="69.045" y1="201.285" x2="141.014" y2="201.285" gradientUnits="userSpaceOnUse"><stop offset=".395" stop-color="#716564" stop-opacity=".7"/><stop offset="1" stop-color="#fff" stop-opacity=".4"/></linearGradient><linearGradient id="paint6_linear_267_4" x1="18.038" y1="53.201" x2="137.253" y2="53.201" gradientUnits="userSpaceOnUse"><stop stop-color="#26688D" stop-opacity=".5"/><stop offset="1" stop-color="#26688D"/></linearGradient><linearGradient id="paint7_linear_267_4" x1="52.735" y1="66.813" x2="132.656" y2="66.813" gradientUnits="userSpaceOnUse"><stop stop-color="#26688D" stop-opacity=".5"/><stop offset="1" stop-color="#26688D"/></linearGradient><linearGradient id="paint8_linear_267_4" x1="1" y1="44.285" x2="46.831" y2="44.285" gradientUnits="userSpaceOnUse"><stop stop-color="#26688D" stop-opacity=".7"/><stop offset="1" stop-color="#26688D"/></linearGradient><linearGradient id="paint9_linear_267_4" x1="3.022" y1="80.626" x2="43.784" y2="80.626" gradientUnits="userSpaceOnUse"><stop stop-color="#26688D" stop-opacity=".7"/><stop offset="1" stop-color="#26688D"/></linearGradient><linearGradient id="paint10_linear_267_4" x1="61.739" y1="111.896" x2="98.944" y2="111.896" gradientUnits="userSpaceOnUse"><stop stop-color="#716564" stop-opacity=".8"/><stop offset="1" stop-color="#716564" stop-opacity="0"/></linearGradient></defs></svg>