<svg width="80" height="88" viewBox="0 0 80 88" fill="none" xmlns="http://www.w3.org/2000/svg"><path d="M36.4.792c-3.6 1.76-5.6 5.28-5.6 9.856 0 3.696.4 4.664 2.64 7.128 2.24 2.464 3.12 2.904 6.56 2.904 3.44 0 4.32-.44 6.56-2.904 2.24-2.464 2.64-3.432 2.64-7.216 0-3.696-.4-4.752-2.48-7.128C44.08.528 39.36-.616 36.4.792zM27.6 25.08c-1.12 1.144-2 2.992-2 4.136.08 2.64 8.48 25.52 9.84 26.4 1.6 1.144 1.92.792 1.6-1.496-.24-1.144 0-3.344.4-4.84.72-2.288.56-3.608-1.44-8.8-2.64-6.688-2.72-7.04-1.68-7.04.4 0 1.6 2.376 2.64 5.28.96 2.904 2 5.28 2.32 5.28.24 0 1.44-2.376 2.72-5.28 1.28-2.904 2.56-5.28 2.96-5.28.96 0 .96.088-2.96 9.328-2 4.664-3.6 9.416-3.6 10.56 0 2.112 2.08 3.432 4.16 2.552 1.52-.616 11.84-24.112 11.84-26.752 0-1.056-.88-2.904-2-4.048-1.84-2.112-2.32-2.2-12.4-2.2s-10.56.088-12.4 2.2z" fill="#658576"/><path d="M48.48 48.4c-4.16 8.976-4.8 9.68-9.28 9.68-4.48 0-6.08-1.672-8.8-9.064C29.44 46.288 28.48 44 28.32 44c-.08 0-1.36 3.96-2.88 8.8-2 6.864-2.4 9.24-1.76 10.384.8 1.32 2.72 1.496 15.92 1.76 15.36.264 17.2-.088 17.2-3.256 0-.792-1.2-5.544-2.72-10.648l-2.64-9.24-2.96 6.6zM32 76.032C32 85.712 32.72 88 36 88c4.08 0 5.44-7.568 2.32-12.408-1.2-1.848-1.6-3.608-1.36-5.632.32-2.992.24-3.08-2.32-3.08H32v9.152z" fill="#658576"/><path d="M38.96 67.496c-1.36 1.496-.24 5.544 3.28 11.44 3.84 6.6 5.36 7.832 8.16 6.864 3.04-1.056 2.8-4.4-.72-10.648-1.84-3.256-3.2-6.424-2.96-7.04.32-.968-.48-1.232-3.44-1.232-2.08 0-4.08.264-4.32.616z" fill="#658576"/></svg>