<svg width="602" height="2984" viewBox="0 0 602 2984" fill="none" xmlns="http://www.w3.org/2000/svg"><path d="M624.658 1430.79c2.71-9.03 2.989-19.27.478-29.39-1.952-8.03-5.3-14.62-9.723-19.64-4.662-5.22-10.48-8.67-15.7-11.64-4.144-2.41-8.129-4.74-10.838-7.63-3.148-3.34-5.38-8.27-7.691-13.49-3.267-7.07-6.973-14.78-13.747-20.48.836-3.98 1.952-7.51 4.024-9.76 1.913-2.05 5.26-3.62 8.807-5.3l2.391-1.13c22.075-10.68 43.593-34.69 38.771-61.88-1.195-6.7-3.785-12.08-7.81-16.18-5.1-5.3-11.835-7.43-16.776-9.12l-30.324-9.87c2.511-7.43 1.594-15.06.757-21.97-.757-5.66-1.394-11.04.16-14.86 1.514-3.81 5.499-7.27 9.683-10.88 1.195-1.12 2.47-2.17 3.706-3.29 8.128-7.43 18.25-19.72 20.202-35.9 1.953-16.67-6.296-32.77-20.043-39.28-7.97-3.73-16.417-3.81-23.829-3.81-6.097 0-11.954 0-16.218-2.13-7.053-3.45-10.839-12.77-14.744-22.61-2.988-7.47-6.216-15.54-11.516-22.16 18.848-5.18 40.525-14.86 48.136-36.46 6.017-17.111.479-37.43-13.628-49.316-13.349-11.364-33.472-14.255-50.088-7.268-.558.281-.996.562-1.554.843-3.905-8.392-10.321-15.46-17.055-21.965-2.51-2.41-2.71-8.634-2.71-14.778 22.833 9.116 44.789 20.36 65.749 33.651 5.101 3.293 10.958 6.907 18.29 7.831 10.48 1.325 20.562-4.458 23.351-13.573 1.474-4.739 1.116-9.959-1.195-15.541-4.822-11.805-14.585-19.917-22.435-26.422l-21.438-17.789c-9.364-7.791-21.717-17.87-36.62-21.564-.119-16.786-9.763-32.687-24.506-38.068-11.476-4.177-22.992-1.888-32.636 2.208-.358-.281-.637-.642-1.115-.803-7.771-3.935-12.512-14.054-10.401-22.648 0-.241.12-.442.2-.642h1.474c8.727.642 17.254 4.296 26.339 8.031 3.547 1.486 7.053 2.851 10.6 4.256 19.446 7.269 35.703 6.988 48.216-.642 14.544-8.955 21.398-28.471 15.58-44.573-6.136-16.946-23.55-28.11-49.172-31.643-3.706-.442-7.491-.924-11.317-1.285-12.871-1.326-25.104-2.53-34.667-8.594-3.507-2.208-6.974-5.3-10.56-8.433-6.973-6.264-14.863-13.331-25.702-15.661-8.168-1.766-16.696-.361-24.745 3.655-1.315-2.691-2.072-6.265-2.789-10.24-.558-2.691-1.036-5.301-1.754-7.911a33.723 33.723 0 00-3.267-7.71l68.538 9.397c7.412 1.004 15.022 2.048 22.912 2.048 1.475 0 3.069 0 4.543-.121 12.233-.642 20.96-5.943 24.108-14.617 3.148-8.553-.478-18.793-9.085-25.94-6.137-5.14-13.19-8.192-19.765-10.802-24.825-9.959-50.806-17.589-77.145-22.528h-1.315c-1.674-4.819-4.065-10.039-8.129-14.336-6.615-6.786-16.258-10.4-29.527-11.043-10.56-.482-20.203.643-28.81 3.173-.279-.201-.399-.402-.678-.563-1.275-.682-2.669-3.453-2.59-7.067 0-3.092.837-6.425 1.674-9.959.478-2.048.916-4.216 1.315-6.264 27.057 19.837 55.627 17.869 83.003 13.693.837-.08 2.391 0 3.985.281 3.028.362 6.933.924 11.197-.201 9.005-2.409 15.501-9.677 16.058-18.03.359-5.14-1.594-9.517-3.068-12.488-13.628-26.584-43.753-35.338-70.291-43.088l-4.184-1.204c-24.666-7.269-48.854-16.826-71.766-28.471-4.264-2.128-8.249-4.257-11.317-7.068-1.833-1.686-3.427-3.614-5.021-5.501-1.833-2.209-3.785-4.457-5.937-6.505-7.292-6.987-16.935-11.445-27.893-13.212 1.195-3.533 1.952-7.268 2.311-10.962 20.322 7.71 41.083 14.777 61.963 20.841 4.264 1.204 9.922 2.891 15.939 2.891 1.395 0 2.789 0 4.184-.281 9.922-1.325 17.971-8.112 20.123-16.745 2.869-11.846-5.937-21.885-9.205-25.62-21.039-24.013-43.832-42.405-67.581-54.813-25.702-13.372-52.759-19.797-78.939-18.793l-3.227-12.087c-1.594-6.064-3.626-13.492-9.006-19.556-.359-.442-.837-.723-1.195-1.084l61.485 26.784c5.937 2.61 12.592 5.501 20.282 6.224 1.315.121 2.63.201 3.905.201 8.448 0 16.418-2.53 23.112-4.658 2.311-.723 5.738-1.847 8.687-4.458 7.451-6.505 7.89-17.949 1.116-29.113-12.792-21.323-33.473-35.297-51.842-47.585l-14.465-9.758c6.615 2.811 13.827 4.939 21.438 4.939 3.905 0 7.89-.562 11.875-1.847 7.69-2.53 13.628-7.268 16.576-13.613 2.63-5.381 3.188-11.886 1.594-19.355-4.821-22.487-23.271-38.51-36.739-50.235L210.8 143.99s-.12-.08-.2-.16a377.983 377.983 0 017.611 4.256c6.974 4.016 14.106 8.112 21.598 11.646 19.685 9.035 38.214 10.882 53.595 5.501 3.347-1.245 8.089-3.293 11.317-7.911 3.546-4.939 3.626-10.802 3.706-13.894.278-13.211-.638-30.117-10.56-43.087-9.364-12.248-23.63-17.388-36.341-21.845-4.383-1.566-8.807-3.173-12.991-5.02-17.453-7.83-31.639-22.327-39.05-39.915l-.917-2.33c-1.395-3.372-2.869-7.267-5.379-10.881-3.228-4.779-7.89-8.835-13.907-12.208-21.717-11.645-47.02-7.91-64.354-4.176-16.776 3.694-37.935 9.838-53.157 25.58-6.575 6.786-9.364 14.616-11.755 21.403-1.674 4.658-3.068 8.754-5.5 12.087-2.868 3.935-6.494 7.067-10.36 10.52-6.216 5.381-13.19 11.445-17.811 21.484-12.074 26.182-11.397 55.375-10.68 81.156-3.227 5.501-5.817 11.444-7.491 17.869-4.264 17.107-2.152 36.582 5.738 56.379-4.264 5.502-7.61 11.445-9.922 17.789-10.28 28.752 1.116 58.628 13.708 86.697-2.471 5.783-4.264 11.847-4.822 17.99-2.47 24.737 9.643 46.421 24.227 67.985-2.151 6.264-2.51 12.569-2.51 17.227-.2 29.595 12.87 58.547 34.946 78.184-2.032 11.806-1.394 24.736 2.152 37.305 4.543 16.102 13.429 31.924 27.256 48.388-2.231 7.348-2.231 15.42-.558 22.407 1.953 8.192 5.659 15.259 9.205 22.166 1.634 3.253 3.427 6.505 4.822 9.838 3.506 8.313 5.658 16.946 6.096 25.901v1.486c.359 4.899.638 11.163 4.384 16.745 2.948 4.538 8.407 8.754 17.612 9.557-.279.964-.558 1.767-.757 2.731-2.112 11.605 3.148 21.483 7.81 30.237 1.116 2.048 2.192 3.976 3.148 6.024 3.865 8.192 6.216 18.231 7.133 31.562l.199 2.329c.359 6.024.837 12.85 3.427 19.516 1.833 4.859 4.622 8.955 8.049 12.127-1.753 2.209-3.347 4.618-4.184 7.71-2.191 7.911.399 16.946 7.173 24.656 1.674 1.968 3.586 3.815 5.459 5.582 2.232 2.128 4.343 4.297 5.858 6.345 4.821 6.947 4.542 17.468 4.263 27.707v1.767c-.279 11.284.558 24.937 7.97 35.458-.478.924-1.036 1.767-1.395 2.691-3.626 11.083 2.79 21.323 9.006 31.161 5.539 8.955 11.396 18.15 9.922 27.388-.279 1.85-1.036 4.09-1.793 6.3-1.634 5.14-3.786 11.57-2.192 18.64 1.355 6.3 5.101 11.52 10.64 14.97 2.869 1.77 6.136 2.97 9.284 3.62-8.169 15.82-6.137 36.94-4.264 54.89.718 7.63 1.475 14.82 1.475 21.12 0 27.95 11.316 38.35 20.681 42.17 1.115.48 2.311.76 3.427 1.04l-1.754 67.91c-.199 7.26-.478 17.3 5.38 25.69 2.948 4.26 6.694 7.23 10.838 9.28l3.826 51.56c.358 5.42.836 11.08-.478 15.54-.558 1.97-1.395 3.82-2.232 5.66-1.116 2.53-2.311 5.34-3.228 8.4-2.59 9.31-.398 18.43 5.938 23.65.279.16.438.36.717.52-5.101 7.47-7.89 17.43-7.89 29.6 0 3.65.199 7.26.478 10.88.478 7.39.837 14.25-.558 20.48-1.195 5.42-3.905 10.8-6.654 16.46-2.79 5.7-5.778 11.57-7.611 18.07-2.51 9.12-1.873 17.23 2.032 23.45 1.953 3.18 4.463 5.38 7.133 7.07-3.786 6.51-6.097 14.5-6.495 23.65-.279 6.23.199 12.25.558 18.03.358 5.5.836 10.72.557 15.82-.358 8.12-2.51 16.83-6.774 27.55-1.833 4.66-4.144 10.52-3.227 17.31.279 1.69.836 3.33 1.474 4.94-5.3 5.74-7.691 12.73-9.842 19.07-.718 2.33-1.554 4.74-2.59 7.15-3.786 9.4-3.228 19.27-2.67 27.91.079 2.17.279 4.29.279 6.42.358 13.7-2.59 27.39-8.448 39.76a451.51 451.51 0 00-2.51 5.02c-2.312 4.66-4.822 9.39-6.416 14.9-3.028 10.19-1.833 20.27 3.068 27.5.558.77 1.116 1.41 1.754 2.17-8.249 8.92-11.955 21.68-12.393 32.65-.398 7.35.359 14.41.996 21.32.678 6.51 1.196 12.73.957 18.71-.479 9.28-3.069 18.6-7.611 26.79l-.479.92c-4.741 8.47-11.874 21.32-3.705 32.77.916 1.28 2.032 2.41 3.068 3.33-8.647 5.86-15.302 14.98-18.729 24.5-3.626 9.96-4.542 20.15-5.578 30.03-.478 4.86-.917 9.76-1.754 14.62-2.032 11.73-6.017 22.81-12.073 33.01l-.917 1.68c-6.296 10.61-14.943 25.22-7.252 39.48.956 1.77 2.152 3.25 3.467 4.66-3.348 2.69-6.057 6.22-7.611 10.32-1.793 4.74-1.674 9.96-.399 14.77-13.349 13.14-20.003 31.45-24.387 46.34-.916 3.1-1.753 6.15-2.59 9.24-3.785 13.93-7.491 27.15-14.664 38.31-.916 1.4-1.912 2.89-2.869 4.3-5.459 7.91-12.233 17.66-10.56 29.75.28 1.77.758 3.54 1.316 5.22-2.073 1.57-3.985 3.46-5.778 5.78-2.67 3.7-3.706 7.71-4.423 11.53-1.116 5.86-1.873 13.49 2.032 20.4 1.195 2.05 2.59 3.69 4.263 5.18-4.263 5.78-7.132 13.13-7.969 21.24-.956 8.55.08 16.83 1.116 24.74.358 2.97.717 5.94.996 8.91 2.032 23.57-3.786 47.39-16.417 67.3L64 2369.48c-4.543 6.99-9.763 14.98-9.644 25.02 0 5.42 1.834 10.8 4.822 15.54-4.104 1.69-7.81 3.74-10.201 5.86-11.875 10.52-16.417 21.05-13.628 31.2a21.722 21.722 0 003.507 7.07c-3.427 7.35-7.213 15.62-8.886 24.66-1.395 7.55-1.315 14.78-1.116 21.84 0 2.81.08 5.71 0 8.6-.399 18.67-5.937 37.02-11.317 52.44l-.478 1.25c-2.39 6.78-5.1 14.49-5.46 22.88-.278 7.63 1.675 14.58 5.26 20.28-4.701 13.21-5.1 27.99-.796 41.4.996 3.18 2.75 7.43 5.897 11.25 0 .12-.16.2-.16.4-11.794 41-13.468 87.74-5.299 147.09l.2 1.41c.278 2.61.717 5.94 2.31 9.31 1.196 2.57 2.87 5.02 5.021 7.23-.398.84-.757 1.77-.837 2.81-1.872 16.1-1.314 32.37 1.475 48.39 1.594 8.91 4.901 21.56 15.5 28.47.917.64 1.913 1.13 2.95 1.57-3.348 5.3-6.018 11.64-5.938 18.91.2 10.76 6.495 19.15 11.596 25.94l2.31 3.09c18.012 24.94 21.598 57.95 22.834 86.98.279 7.47.837 20 10.36 27.55 3.268 2.53 7.173 4.09 11.436 4.66.917 9.88 3.148 22.04 11.397 31.16 7.332 8.03 18.25 12.37 30.324 12.37 2.51 0 5.021-.16 7.611-.53 1.554-.28 3.068-.76 4.622-1.04-2.391 22.25-4.184 46.62 2.431 69.99 1.674 6.03 4.702 14.86 11.755 21.2.837.73 1.753 1.41 2.71 2.05-17.454 36.58 1.474 83.09 31.599 107.86 28.85 23.69 65.111 33.37 100.177 42.89l10.36 2.77c36.74 10.08 73.759 23.29 96.073 51.36 6.894 8.67 11.158 17.43 12.712 25.98 2.59 14.13-1.674 28.95-6.296 44.57-4.623 15.62-9.364 31.93-7.492 49.03.917 8.2 3.228 15.75 5.46 22.97v.12c.159 4.94.637 9.84 1.833 14.58.478 1.89 1.514 3.37 2.709 4.58 1.833 13.49.558 27.55-1.195 39.83-7.332 50.8-23.391 92.68-48.136 124.97-8.448 10.96-7.81 25.66 1.554 35.74 5.379 5.74 12.552 8.71 19.844 8.71 5.379 0 10.878-1.56 15.7-4.9 14.624-9.96 28.093-21.52 39.967-34.33 12.791-13.9 23.749-29.23 34.389-44.01 14.186-19.76 28.85-40.2 41.163-61.88 20.88-36.67 34.906-76.7 48.534-115.49 6.934-19.72 14.744-42.17 14.265-65.5-.079-5.98-.836-11.84-1.474-17.5-1.036-8.92-1.952-17.31-.837-25.3.917-6.07 3.069-12.13 5.38-18.51 3.706-10.36 7.491-21.05 6.575-33.05-1.315-17.51-11.676-30.52-21.717-43.09-6.097-7.63-11.835-14.9-15.382-22.69-7.132-16.02-5.18-35.18-3.148-55.45 2.591-26.19 5.3-53.17-12.352-74.65-4.144-5.02-8.886-8.92-13.429-12.73-3.905-3.18-7.491-6.23-10.4-9.6-9.444-10.88-12.791-26.5-16.418-43.09-4.702-21.68-9.523-44.09-29.009-57.58-2.789-1.97-5.857-3.66-8.886-5.22-2.988-1.57-5.857-3.06-8.169-4.94-5.738-4.46-9.643-11.61-13.827-19.16-2.231-4.09-4.463-8.19-7.053-12-16.497-24.86-47.179-38.43-76.587-35.26-1.315-1.33-2.71-2.53-4.264-3.45-5.1-2.98-10.4-3.34-15.022-3.54-6.137-.2-12.234.08-18.29.56-1.196-4.93-3.427-9.59-6.496-13.49-4.343-5.5-10.201-9.47-16.576-11.8 5.1-6.91 13.149-12.85 24.307-17.43 6.455-2.69 13.229-4.74 20.402-6.95 5.818-1.81 11.755-3.65 17.493-5.78 20.043-7.47 32.675-18.43 37.576-32.57 4.822-13.69 1.395-27.91-2.151-40.11-.917-3.26-1.913-6.71-3.148-10.12 3.347 1.48 7.252 3.97 11.994 7.14 3.506 2.33 6.933 4.66 10.36 6.59 6.974 3.82 14.664 5.7 22.634 5.7 7.969 0 16.616-1.97 24.745-5.94 17.732-8.75 30.524-25.34 33.393-43.29 5.299-32.65-17.334-67.54-51.444-79.47-5.1-1.76-10.32-3.05-15.301-4.25-6.615-1.61-12.831-3.18-18.37-5.71-22.554-10.32-15.142-42.04-11.118-54.69 10.719-3.73 15.661-1.69 28.173 9.96 1.753 1.57 3.347 3.33 4.901 5.02 3.905 4.09 8.248 8.75 14.106 12.09 12.233 6.86 28.929 5.94 42.478-2.53 9.922-6.15 18.091-15.54 25.701-29.56 12.393-22.93 19.008-55.01 0-76.9-6.694-7.63-15.421-12.37-23.191-16.62l-1.116-.69c-17.612-9.67-35.703-20.72-48.215-36.46-7.611-9.47-15.023-23.33-16.816-37.1.677-3.66.956-7.11.956-10.64 3.507.2 6.854.96 9.922 2.45 3.348 1.56 6.575 4.09 9.922 6.66 1.554 1.25 3.069 2.33 4.623 3.46 17.334 12.48 36.62 15.74 51.642 8.75 11.875-5.5 20.681-17.23 24.427-32.2 2.949-12.17 2.192-24.66 1.195-36.39-.677-7.63-1.593-15.05-5.658-21.96-6.774-11.53-18.728-16.18-29.328-20.28l-3.865-1.49c-14.026-5.66-26.818-13.77-37.855-24.09-3.148-2.89-3.427-4.02-3.507-4.3 0 0 0-1.56 5.937-6.22l12.313-9.6c1.594-.64 3.069-1.56 4.105-3.05 2.869-4.02 9.643-4.94 14.624-4.46 4.104.36 8.368 1.49 12.791 2.61 3.905 1.01 7.73 1.93 11.596 2.61 13.07 2.13 24.386-.56 31.997-7.55 11.237-10.44 10.958-26.54 9.763-37.78-1.036-9.76-2.63-19.56-4.822-29.12-1.594-6.78-3.546-14.05-7.451-20.56-2.75-4.65-6.296-8.59-9.245-11.84-7.69-8.27-16.138-16.19-24.865-23.53l-3.227-2.69c-6.974-5.79-13.668-11.25-17.653-18.07-3.427-5.87-4.822-14.78-.438-19.64 1.554-1.77 2.231-3.9 2.311-6.1.996-.77 1.952-1.33 2.67-1.61 6.694-2.13 14.584-1.85 22.075-1.21 1.873.2 3.706.37 4.941.85 1.395.56 3.148 1.84 5.101 3.45a397.729 397.729 0 0025.861 18.23c6.376 4.18 14.465 8.47 22.912 8.47 2.869 0 5.818-.48 8.887-1.68 8.089-3.17 14.106-10.88 16.218-20.64 1.593-6.99.956-13.9.398-20.04l-.677-8.55c-1.076-15.06-2.312-30.72-7.771-45.7-6.216-16.75-20.681-36.1-42.756-39.8-1.754-.28-3.507-.48-5.3-.68-3.028-.36-6.017-.64-7.691-1.56-1.673-.93-3.506-3.34-5.379-5.79l-1.753-2.33c-8.169-10.4-19.287-17.95-31.719-22.32 1.394-4.26 2.311-8.64 2.51-13.09.199-4.22 0-8.2-.358-12.01-.399-4.94-.678-9.6.079-13.69.08-.65.359-1.29.558-1.85 4.742 3.89 9.006 8.91 13.349 14.29 2.232 2.74 4.344 5.35 6.695 7.92 11.755 13.21 24.665 20.11 37.178 20.11 2.669 0 5.299-.28 7.889-.92 10.361-2.53 19.366-10.24 24.825-21.24 4.663-9.4 6.137-19.52 6.894-28.19.638-6.95.996-15.34-.558-23.81-2.789-15.18-12.074-29.96-25.98-41.61-11.238-9.39-24.108-15.7-35.784-20.84a196.74 196.74 0 01-.558-4.82c11.756-3.09 21.239-8.83 27.177-16.94 1.115-1.49 1.952-2.97 2.869-4.54 4.702 4.46 10.001 8.63 16.497 11.53 4.463 1.96 9.722 3.17 15.022 3.17 7.611 0 15.302-2.45 21.159-8.48 7.97-8.19 8.966-19.91 9.086-28.02.159-12.93-1.674-22.77-5.858-31.25-2.949-5.98-7.053-11.08-10.679-15.54l-16.657-20.68c-7.61-9.39-16.417-19.23-27.176-25.09 5.738-3.38 10.919-7.63 15.182-12.77 2.79 3.37 5.938 6.14 9.484 8.19 4.822 2.89 10.081 4.29 15.302 4.29 5.738 0 11.316-1.76 15.859-5.22 13.15-10.03 11.317-28.55 10.759-34.61-.837-8.83-2.511-18.99-8.368-27.83-2.67-4.01-5.938-7.35-8.886-10.24-11.038-11.08-23.67-23.61-39.888-30.6a20.062 20.062 0 00-3.347-1.2c-1.116-4.58-1.753-9.8-2.032-15.18 4.901 3.61 10.001 6.62 15.022 9.6 6.296 3.69 12.911 7.51 19.008 12.65 5.22 4.25 9.643 5.58 13.189 5.58 3.148 0 5.659-1.05 7.213-2.05 6.296-3.82 7.252-10.88 7.531-13.21 2.032-15.54-1.036-32.41-9.006-50.16-5.658-12.57-12.99-24.09-20.123-35.17l-3.785-6.07c-1.315-2.05-3.347-3.41-5.579-3.97-.478-.69-.916-1.33-1.594-1.97-5.818-6.06-13.429-7.27-19.565-8.19-1.953-.28-3.985-.64-5.818-1.21 2.59-17.59 6.774-35.09 12.154-52h.358c13.708 20.08 23.909 42.12 30.046 65.86a9.382 9.382 0 008.248 6.98h1.395c9.005 0 16.576-6.98 20.481-18.87 8.807-26.62 8.807-56.02.12-82.64-.558-1.69-1.594-2.89-2.789-4.02l-.12-.08zm-92.088-330.96c8.089 3.97 16.696 3.97 24.307 4.09 6.017 0 11.795 0 16.059 2.05 6.375 2.97 10.48 11.73 9.563 20.16-.956 8.19-6.057 16.86-14.226 24.41-1.075.93-2.191 1.93-3.307 2.85-5.499 4.78-11.715 10.08-14.863 18.28-3.148 8.15-2.112 16.54-1.275 23.89.717 6.34 1.474 11.8-.678 15.54-.836 1.48-2.39 3.53-6.574 4.01-7.053.85-16.497-3.17-22.076-9.31-3.586-4.02-6.854-8.68-10.281-13.69-6.854-9.84-13.907-20.08-25.423-26.51-13.149-7.27-29.088-6.9-43.872.93-17.692 9.39-30.205 27.62-31.878 46.42-.199 1.6-.279 3.29-.359 4.86-.398 5.66-.677 10.96-3.068 13.29-1.395 1.4-4.184 2.45-7.133 3.37-34.07 11.24-69.375 18.39-105.078 21.4-12.234 1.01-19.685-.56-22.634-4.86-2.231-3.25-2.231-8.55-2.152-14.69l1.794-69.31c6.375-2.05 12.233-5.3 17.254-8.11 22.713-12.73 47.1-22.05 72.483-27.55l2.51-.56c6.495-1.37 13.349-2.89 19.844-5.38 7.531 5.3 18.171 10.52 30.603 10.52 14.585 0 28.292-8.11 34.03-20.12 5.499-11.25 3.547-23.05 1.873-33.57-1.195-7.63-2.431-14.82-.757-20.76.398-1.41.398-2.81.12-4.18 13.986-6.7 29.766-10.88 44.509-13.97.638.56 1.196 1.12 1.953 1.48 7.053 3.54 10.759 12.77 14.744 22.61 4.821 12.13 10.36 25.7 23.829 32.29l.159.12zm-63.597 79.91c.757 1.48 1.753 2.81 3.228 3.73 3.984 2.41 5.578 8.76 5.379 13.86-.438 12.28-8.607 24.09-20.203 29.39-9.643 4.38-21.517 4.22-31.718-.08.358-2.61.557-5.22.637-7.63 0-1.49.199-2.89.279-4.3 1.116-12.45 10.042-25.21 22.076-31.6 4.383-2.33 12.074-5.22 20.322-3.29v-.08zm-39.13-94.45c1.394 8.83 2.669 16.46-.2 22.45-2.669 5.66-9.842 9.55-17.333 9.55-4.184 0-8.608-1.2-13.071-3.25.558-.56 1.116-1 1.555-1.68 4.463-5.39 7.053-11.53 9.284-17.03.837-2.13 1.753-4.26 2.789-6.31 3.706-7.63 9.006-13.97 15.302-19.35.08 5.38.916 10.68 1.674 15.62zm51.562-129.142s-.677.442-.916.642c-2.989 2.249-6.057 4.458-9.205 6.425-17.812 10.883-39.608 11.646-62.601 12.489h-1.673c-.359-17.428-5.738-34.655-15.381-49.071 9.005-4.377 20.123-6.867 30.882-8.714 11.516-1.967 24.307-4.216 36.54-8.673.08 9.115.279 20.479 8.448 28.27 6.017 5.782 11.595 12.006 13.986 18.552l-.08.08zm-108.704 6.425c.199-7.63.478-14.898 2.869-20.68.478-1.085 1.235-2.129 1.873-3.133 7.133 11.324 11.038 24.656 11.117 38.028a191.285 191.285 0 00-17.134 1.968c.916-5.502 1.116-10.963 1.275-16.103v-.08zm176.844-52.765c6.615 5.501 14.026 11.645 17.095 19.074.717 1.847.717 2.771.717 2.771-.359.401-1.833 1.044-3.427.843-3.228-.361-6.854-2.69-11.038-5.381-21.039-13.412-43.474-24.736-66.585-34.052 5.857-5.582 10.28-11.927 13.269-18.713 9.563 2.61 18.728 9.597 28.571 17.789l21.398 17.749v-.08zm-77.344-249.289c2.709 2.248 3.705 4.858 3.546 5.3-.199.562-2.71 2.128-7.691 2.329-7.73.482-15.58-.642-23.948-1.767l-59.054-8.111c1.195-2.289 2.231-4.618 3.068-7.148 1.753-5.662 2.192-11.806 1.634-18.713 23.111 4.739 45.825 11.445 67.701 20.199 5.499 2.249 10.759 4.457 14.863 7.83l-.119.081zm-117.75-135.487c24.108 6.987 48.972 14.255 58.974 33.691.917 1.767.996 2.53 1.116 2.53 0 0-1.036 1.204-2.311 1.485-.678.161-2.511 0-3.985-.281-2.51-.401-5.658-.763-9.205-.2-29.009 4.457-55.069 5.862-79.855-19.637-.836-7.148-2.311-14.135-3.705-20.64-.439-2.249-1.196-5.863-3.706-9.115-1.475-1.968-3.228-3.173-4.623-4.217 14.186 5.863 28.571 11.003 43.195 15.259l4.184 1.245-.079-.12zM252.6 377.016c21.717 11.324 42.677 28.351 62.242 50.597 5.021 5.662 5.379 7.991 5.101 8.955-.2.923-2.033 2.289-4.543 2.69-3.507.442-7.611-.562-12.512-2.048-23.112-6.706-46.184-14.536-68.618-23.37-.279-1.125-.558-2.209-.837-3.333-5.1-15.38-16.895-29.033-32.396-37.587-3.706-2.048-7.691-3.734-11.755-5.14l-2.032-7.71c21.517 0 43.952 5.662 65.35 16.946zM28.377 236.108c-3.427-10.882-5.579-24.294-2.232-37.586 3.826-15.46 15.302-27.908 28.571-30.88 3.706-.843 7.77-1.044 12.074-1.325 4.901-.281 10.002-.562 15.301-1.767 7.572-1.767 14.186-5.1 20.681-8.352 7.293-3.735 14.266-7.188 21.04-7.349 10.002-.281 19.486 6.506 30.045 14.617 4.463 3.413 9.006 6.867 11.118 11.043 1.673 3.373 2.311 7.83 1.952 14.055a81.822 81.822 0 01-1.673 11.565c-.917 1.365-1.275 3.051-1.395 4.618-2.51 8.754-6.575 17.026-11.954 24.294-21.797-14.978-51.842-19.436-82.923-12.007-15.66 3.735-29.488 10.32-40.526 18.793l-.08.281zm149.867-15.901l6.296 4.176c-2.391-.723-4.901-1.285-7.491-1.566.358-.843.717-1.767 1.115-2.61h.08zm93.124 93.242c1.475 2.41 2.032 4.658 2.112 5.662-.558.201-1.315.482-1.674.562-6.574 2.129-13.428 4.297-19.485 3.735-4.702-.482-9.723-2.691-14.624-4.859l-65.59-28.551c.957-5.501 1.594-10.963 1.873-16.584.279-6.305.2-13.734-2.51-21.123-1.315-3.614-3.347-6.947-5.738-10.32.438-.562.837-1.124 1.275-1.767 1.793.924 3.825 1.486 5.937 1.125 5.3-.924 11.875 3.052 18.091 7.348l34.229 23.09c16.697 11.244 35.624 24.013 46.264 41.682h-.16zM223.67 180.573c14.864 12.93 27.456 24.856 30.723 39.995.717 3.253.638 5.783 0 7.349-.757 1.606-2.909 3.092-5.658 4.015-12.074 3.815-26.18-4.578-38.493-12.729l-26.419-17.589c.717-3.935 1.275-7.75 1.554-11.725.358-6.144.358-15.38-3.985-23.853-2.789-5.461-6.934-9.557-11.118-13.011 2.033-.562 4.065-1.285 6.097-2.128 2.351 1.205 5.101 1.566 7.731.442 1.753-.723 5.658-.161 13.906 7.067l25.662 22.247v-.08zM43.12 102.87c2.989-6.425 7.691-10.52 13.19-15.259 4.264-3.734 9.165-7.91 13.23-13.573 3.984-5.581 6.136-11.565 8.009-16.865 2.032-5.742 3.785-10.682 7.491-14.617 11.795-12.167 29.567-17.307 43.873-20.36 14.265-3.172 35.145-6.344 50.805 2.53 3.427 1.928 6.017 4.097 7.611 6.506 1.315 1.927 2.431 4.538 3.507 7.228l1.116 2.61c9.204 21.885 26.897 40.036 48.534 49.713 4.622 2.048 9.444 3.815 14.266 5.462 11.237 4.015 21.796 7.83 27.813 15.661 6.296 8.272 6.974 20.479 6.774 31.362 0 .722 0 3.051-.199 3.533 0 0-.558.442-2.391 1.125-13.548 4.818-29.128 0-39.688-4.859-6.774-3.052-13.269-6.867-20.123-10.802-7.133-4.096-14.584-8.353-22.355-11.886-2.231-1.045-6.774-3.093-12.073-2.33-6.296.924-10.281 5.301-12.871 8.192l-.837.924c-6.973 7.429-18.29 10.882-28.212 8.553-1.634-.361-3.228-.201-4.702.281-6.974-3.534-14.306-5.782-22.355-5.662-11.038.161-20.601 5.02-29.049 9.276-5.658 2.892-11.038 5.582-16.417 6.787-3.706.843-7.77 1.044-12.114 1.325-4.941.281-9.922.562-15.222 1.686-6.017 1.366-11.595 3.896-16.776 7.349 0-18.432 1.674-37.506 9.245-53.97l-.08.08zM21.443 274.538c6.575-18.311 25.941-32.928 51.802-39.152 26.738-6.425 52.121-2.691 69.774 10.239 5.658 4.177 9.364 8.554 11.037 13.091 1.555 4.297 1.555 9.397 1.355 13.894-.358 8.915-1.833 17.87-4.263 26.423-27.695-9.115-56.544-2.048-76.11 5.662-19.127 7.63-34.508 18.432-45.267 31.081-8.806-21.122-15.022-42.525-8.248-61.318l-.08.08zm9.922 100.31c3.148-31.523 39.41-48.268 50.447-52.645 17.215-6.907 42.638-13.211 65.829-4.658 4.184 1.486 6.854 3.172 8.527 5.02 2.511 2.77 3.786 7.71 4.902 12.006l7.81 28.953c-10.759-.843-21.797.361-31.998 3.815-12.233 4.055-22.633 10.762-33.95 18.512a1423.333 1423.333 0 00-47.18 33.289c-2.231 1.687-4.662 3.454-7.053 5.582-10.68-16.545-18.928-33.009-17.254-49.673l-.08-.201zm21.757 83.364c0-6.505.956-11.043 2.91-14.296 2.19-3.814 6.654-6.987 10.559-9.878 15.222-11.163 30.882-22.246 46.661-32.848 10.201-6.866 19.446-12.85 29.488-16.303 10.559-3.534 22.155-3.976 33.073-1.566 2.072 1.767 4.662 2.61 7.532 2.128 2.948 1.044 5.937 2.329 8.607 3.815 11.516 6.345 20.123 16.223 23.749 27.186 3.267 9.758 2.231 20.479-2.311 28.671-1.475.161-2.869.281-4.344.562-12.831 2.329-24.665 7.228-36.102 12.007a759.407 759.407 0 00-10.081 4.176c-4.543 1.767-9.285 3.534-14.027 5.301-26.977 9.959-57.58 21.202-72.323 48.749-.2.281-.28.643-.359.924-14.584-15.701-23.032-36.944-22.912-58.508l-.12-.12zm39.609 66.458c11.396-21.322 37.377-30.88 62.401-40.116 4.822-1.766 9.643-3.533 14.385-5.38a477.443 477.443 0 0010.48-4.297c11.038-4.538 21.438-8.915 32.277-10.882.837-.201 1.674-.081 2.51-.201 2.511.843 5.181.682 7.492-.643 10.679 0 20.043 2.972 26.18 8.835 1.673 1.606 3.028 3.292 4.542 5.059 2.033 2.41 4.145 4.899 6.774 7.349 4.702 4.256 10.201 7.228 15.382 9.838 2.032 1.044 4.064 1.968 6.136 2.972-5.578-1.205-11.516-1.647-17.533-.563-12.153 2.249-23.55 10.521-31.36 22.809-6.575 10.441-9.922 22.447-12.592 32.768-2.909 11.364-6.893 23.17-14.584 25.218-2.032.441-4.622.441-7.491.361-2.431 0-4.822-.08-7.173 0-11.835.843-21.677 6.987-30.404 12.368-6.933 4.297-13.429 8.312-20.123 9.517-2.51.442-5.1.562-7.691.643-6.216.281-13.189.642-19.923 4.256-.957.482-1.594 1.124-2.431 1.687-10.28-13.011-17.135-25.379-20.681-37.667-4.463-15.741-3.228-31.643 3.267-43.85l.16-.081zm44.43 178.173v-1.566c-.757-11.163-3.347-21.965-7.81-32.205-1.554-3.695-3.507-7.429-5.38-11.043-3.148-6.144-6.176-12.007-7.571-17.99-1.673-6.947-.478-16.103 5.181-19.235 2.869-1.606 7.053-1.767 11.794-2.048 3.228-.201 6.456-.281 10.002-.964 10.201-1.766 18.529-6.947 26.698-11.966 7.611-4.658 14.664-9.156 22.076-9.597 1.753-.081 3.506 0 5.3 0 3.785.08 8.049.2 12.592-.924 19.485-4.939 25.223-27.748 28.012-38.63 2.431-9.397 5.101-19.275 10.281-27.347 5.021-7.91 11.994-13.211 19.008-14.416 10.041-1.766 21.159 4.096 28.69 8.634.438.281.916.562.916.281.16.362.359 1.486.439 2.048 2.709 12.569 5.499 25.499 3.466 37.506-.398 1.968-.757 3.815-1.235 5.662-.916 4.096-2.032 8.834-2.112 13.894-.119 6.023 1.554 11.444 4.344 15.902-11.038 7.509-18.928 18.592-21.399 30.679-.279 1.526-.557 3.092-.757 4.578-.279 1.767-.478 3.614-1.036 5.3-.717 2.249-2.191 4.578-4.144 7.269-6.057 8.754-13.468 17.227-20.601 25.378-1.594 1.767-3.068 3.534-4.622 5.341-13.27-2.61-28.771-4.778-43.594.442-10.042 3.534-17.892 9.758-25.502 15.821-3.348 2.691-6.695 5.301-10.201 7.63-1.594 1.124-3.268 2.128-5.021 3.172-2.391 1.566-5.021 3.173-7.611 5.02-.638 0-1.275 0-1.833.201-8.647 2.851-15.302 3.051-16.975.642-.917-1.405-1.116-4.457-1.196-7.469h-.199zm26.698 51.48c-3.507-6.505-6.854-12.769-5.937-17.95 1.235-6.425 8.726-11.163 16.696-16.223 1.873-1.084 3.626-2.329 5.379-3.413 3.905-2.61 7.691-5.582 11.397-8.553 6.774-5.341 13.11-10.36 20.242-12.85 11.955-4.297 26.34-1.325 39.051 1.285 3.308.763 6.655-.442 8.886-3.052 2.59-3.092 5.3-6.144 7.97-9.236 7.531-8.553 15.222-17.387 21.876-27.065 2.072-2.972 4.941-7.148 6.495-12.007 1.036-2.971 1.395-5.863 1.754-8.473.199-1.124.398-2.329.558-3.453 1.793-8.634 8.368-16.625 17.652-21.484 8.328-4.377 18.888-6.304 31.041-5.662 8.368.362 14.027 2.129 17.055 5.381 2.71 2.811 4.184 7.469 5.22 11.565 2.391 9.477 2.67 16.745.917 22.688-2.311 7.55-8.607 13.774-16.139 15.822h-.278a18.683 18.683 0 00-6.296.442c-.08 0-.279.2-.359.2-5.499-.2-10.958-2.128-15.023-5.782-3.825-3.413-9.643-3.052-13.11.763-3.426 3.815-3.028 9.678.758 13.131 9.165 8.192 21.796 11.886 33.83 10.24 1.594 1.084 3.826 3.895 4.742 7.429a69.776 69.776 0 011.395 6.505c1.116 5.702 2.51 12.007 6.017 17.669-2.032 2.048-3.985 4.216-5.818 6.625-4.104 5.221-7.412 10.802-10.679 16.183-2.789 4.578-5.459 8.955-8.448 12.931-7.89-3.614-16.417-5.662-25.024-6.144-.638-.924-1.395-1.767-2.431-2.49-8.328-5.702-18.888-7.911-28.81-5.983-9.922 1.887-18.927 7.75-24.666 16.102-2.789 4.096-4.662 8.594-6.136 12.409-2.869 7.348-5.3 15.138-5.021 23.411-7.77 1.405-15.182 4.015-21.597 7.268-10.839 5.501-20.323 12.85-29.408 19.917-4.343 3.373-8.607 6.626-13.15 9.758-2.231-.642-4.542-3.052-5.738-6.385-1.594-4.015-1.873-8.954-2.231-14.175l-.2-2.409c-1.115-15.741-3.984-27.828-8.886-38.229-1.115-2.329-2.351-4.577-3.546-6.907v.201zm128.708 38.149s-1.554.562-5.658-.282c-6.177-4.095-12.871-6.424-19.844-7.268-.08-4.658 1.394-9.838 3.825-15.982 1.116-2.891 2.51-6.144 4.184-8.674 2.949-4.256 7.691-7.429 12.791-8.352.717-.121 1.474-.121 2.232-.201-1.515 3.735-1.116 7.549-.957 9.597.399 3.695 1.036 7.791 1.873 12.087.996 5.502 2.949 16.826 1.554 19.155v-.08zm-101.89 66.819c-1.475-1.405-2.989-2.891-4.384-4.497-2.311-2.691-3.706-5.742-3.227-7.349.557-2.048 4.463-4.618 8.049-6.947 6.216-4.096 12.153-8.673 17.812-13.131 8.806-6.907 17.254-13.332 26.538-18.07 11.955-6.144 30.404-10.039 42.637-.843.678.482 1.515.763 2.232 1.044.398.201.757.482 1.116.562 10.32 2.409 18.29 1.124 23.669-3.895 8.966-8.594 6.376-23.17 4.065-36.141-.558-3.252-1.196-6.505-1.475-9.477 10.56-.923 21.518 1.567 30.404 7.188 3.825 2.289 8.727 1.647 11.675-1.606 6.137-6.706 10.68-14.135 15.143-21.403 3.148-5.1 6.096-10.039 9.523-14.416 6.495-8.393 17.095-16.464 27.097-14.416 6.017 1.285 11.237 5.943 17.174 11.244 3.985 3.654 8.129 7.268 12.951 10.32 13.269 8.392 28.212 9.878 42.676 11.364 3.627.361 7.133.763 10.759 1.205 8.528 1.124 29.009 5.421 34.23 19.556 2.869 7.91-.678 17.869-7.811 22.326-9.284 5.662-22.514 2.611-32.077-.923-3.347-1.205-6.575-2.61-9.842-4.016-10.002-4.176-20.402-8.553-32.078-9.396-3.985-.362-9.723-.161-14.664 3.734-3.148 2.49-5.26 6.144-6.375 11.083-3.348 13.854 1.833 28.752 12.233 38.028-1.753 1.205-3.547 2.45-5.18 3.654-6.137 4.538-11.995 8.835-18.29 11.605-12.871 5.783-28.651 4.94-41.004-1.927-.08-.281-.08-.562-.279-.843-3.227-5.421-6.575-10.722-11.476-15.099-6.495-5.742-14.584-8.553-21.996-7.63-10.639 1.325-19.645 9.959-23.072 21.966-2.311 8.392-1.753 16.745-1.195 24.214v1.767c.637 7.79.837 15.821.717 23.812-23.55.281-43.753 11.445-63.318 22.247-9.563 5.3-18.569 10.24-27.654 13.854-2.311.923-4.264 1.967-6.216 2.891-3.148-6.144-3.507-14.818-3.348-22.166v-1.767c.399-12.529.757-26.865-7.491-38.791-2.51-3.614-5.579-6.586-8.248-9.196v.281zm134.167 7.71v-1.767c-.558-6.505-.996-12.649.478-17.869 1.195-4.457 4.463-8.112 7.491-8.473 2.232-.161 5.021.924 7.452 3.092 2.112 1.928 3.985 4.538 5.818 7.429-3.587 6.706-5.38 14.135-6.934 20.841-2.431 10.722-4.264 17.388-9.484 20.279-1.195.642-2.59 1.044-4.064 1.325 0-8.393-.08-16.665-.638-24.857h-.119zM227.576 1026.3c-.479-2.13.637-5.5 1.753-8.91.956-2.81 1.952-5.87 2.431-9.24 2.51-15.982-5.858-29.394-12.513-40.116-3.546-5.662-8.009-12.729-7.053-15.42.16-.562 1.475-3.373 10.56-6.987 10.201-4.096 20.203-9.597 29.766-14.898 18.45-10.24 35.783-19.797 54.791-19.998h.478c1.873 0 3.706 0 5.579.201 7.89.362 16.855.643 25.303-4.015 12.711-7.148 15.78-20.56 18.449-32.366.957-4.096 1.873-8.192 3.148-11.726 16.537 7.228 36.182 7.429 52.599.08 8.169-3.614 15.023-8.754 21.717-13.693 3.507-2.57 6.934-5.1 10.56-7.429 6.017-3.815 17.533-9.677 27.176-6.224 8.886 3.253 14.345 15.621 11.755 26.503-2.51 10.521-11.476 20.48-23.988 26.704-12.433 6.144-26.897 8.553-40.804 10.882-24.706 4.096-51.284 11.565-61.047 35.097-3.706 8.914-3.985 18.712-4.264 27.266-.278 9.677-.557 18.15-5.02 23.812-2.59 3.253-6.735 5.783-11.277 8.393a382.172 382.172 0 01-85.912 35.414c-8.607 2.33-17.892 2.25-22.036-.36-1.315-.72-1.873-1.56-2.231-2.97h.08zm17.732 98.62c0-7.22-.837-15.26-1.594-22.97-2.79-27.06-3.507-45.41 10.759-53.04.558-.28.837-.72 1.315-1.13.358 0 .717-.16.996-.28 31.36-8.63 61.684-21.12 90.056-37.18 5.021-2.81 10.121-5.98 14.385-10.442 14.903-4.457 30.961-5.02 48.016-5.662 24.387-.843 49.73-1.767 71.607-15.179 3.626-2.249 7.053-4.738 10.48-7.268 4.981-3.614 9.643-7.148 14.664-9.196 10.201-4.297 22.792-2.53 30.842 4.377 8.168 6.947 11.595 19.074 8.168 28.832-6.375 18.068-30.762 24.298-53.117 28.748-35.345 7.07-78.181 19.84-95.913 56.5a176.81 176.81 0 00-3.228 7.35c-1.952 4.66-3.706 9-6.415 12.17-6.017 7.27-17.533 9.8-28.651 12.09l-2.59.56c-27.256 5.98-53.316 15.94-77.703 29.51-7.969 4.46-16.975 9.6-23.271 7.07-8.169-3.25-9.085-18.51-9.085-24.86h.279zm40.405 150.11c2.869 0 5.659-.2 8.169-.36 37.178-3.1 73.997-10.52 109.342-22.25 3.905-1.33 9.843-3.25 14.385-7.83.16-.16.359-.44.558-.64a58.819 58.819 0 0023.431 4.86c8.009 0 15.979-1.69 23.191-4.94 15.78-7.27 27.375-22.33 30.324-38.99 3.268 4.65 6.495 9.31 10.48 13.65 9.563 10.44 25.144 16.78 37.855 15.18 3.706-.44 7.133-1.69 10.201-3.26.638.37 1.196.85 1.953 1.13l35.146 11.44c3.426 1.13 7.292 2.41 9.244 4.38 1.315 1.29 2.232 3.53 2.79 6.51 3.068 16.82-12.034 33.77-28.571 41.76l-2.192 1.04c-4.742 2.25-10.041 4.74-14.385 9.4-7.053 7.55-8.647 17.23-9.922 25.78-1.116 6.87-2.032 12.85-5.499 15.98-4.264 3.94-12.313 3.37-24.745-1.57-.558-1.68-1.674-3.89-3.905-5.66-8.886-14.05-24.108-22.6-39.131-21.68-12.153.64-24.187 7.35-33.113 18.23-7.691 9.48-12.234 20.76-15.461 30.32-.199.4-.478.68-.757 1.04a29.16 29.16 0 00-2.232 3.45s-1.833 2.21-10.281 3.7c-46.542 7.99-81.05 2.33-124.842-10.12-2.112-.56-5.101-2.33-7.213-4.02-.279-.36-.558-2.12 0-4.29.558-2.05 1.475-3.9 2.311-5.74 1.196-2.7 2.311-5.31 3.148-8.12 2.232-7.71 1.674-15.34 1.196-22.12l-3.308-46.26h1.833zm-20.402 201.82c1.395-4.82 3.826-9.68 6.296-14.77 3.188-6.43 6.495-13.06 8.289-20.69 1.912-8.83 1.474-17.38.996-25.66-.16-3.25-.359-6.62-.359-9.87 0-5.87.837-15.91 6.495-21.33 29.767 8.32 55.747 13.5 84.278 13.5 14.106 0 28.93-1.29 45.068-3.98 11.994-2.05 19.764-6.5 23.311-13.33.159-.36.438-.72.717-1.01 1.036-1.32 2.311-3.17 3.268-5.78 2.869-8.27 6.575-17.67 12.392-24.93 5.659-6.87 12.831-11.09 19.765-11.45 8.926-.36 18.091 5.22 23.191 14.26a8.525 8.525 0 001.753 2.2c.758 2.33 2.431 6.35 7.332 8.4 8.608 3.61 31.52 13.41 47.021-.85 3.148-2.89 5.3-6.22 6.854-9.67.757 1.56 1.474 3.17 2.311 4.94 2.789 6.02 5.857 12.93 11.157 18.51 4.543 4.82 10.082 8.11 15.023 10.96 4.343 2.53 8.408 4.94 11.117 7.91 2.391 2.81 4.344 6.71 5.579 11.85 2.311 9.27 1.913 23.05-6.774 30.88-7.173 6.42-18.729 7.71-29.209 8.11-17.533.72-35.265 0-52.678-2.45l-3.985-.56c-7.89-1.09-15.979-2.21-24.506-1.65-12.513.84-23.271 5.58-30.205 13.37-4.742 5.3-7.332 11.45-9.683 16.95-1.355 3.37-2.67 6.42-4.343 9.11-4.344 6.99-12.154 12.49-21.877 15.26-8.248 2.41-17.732 3.1-30.603 2.25-12.791-.84-25.981-2.89-38.692-4.86-22.434-3.53-45.705-7.06-69.176-4.65-2.869.28-6.296.68-9.523.68-1.036-.2-2.152-.28-3.188-.12-3.307-.28-6.097-1.01-7.212-2.85-1.037-1.69-1.037-4.78 0-8.6l-.2-.08zm272.638 25.98s-.438-.56-.717-.84c-7.611-8.31-16.337-17.71-29.607-19.35-6.575-.85-12.592.56-18.17 2.61a208.09 208.09 0 001.673-26.35c6.575-.48 13.469.56 20.681 1.57l4.105.56c10.36 1.41 20.92 2.25 31.4 2.61-3.866 12.85-6.934 25.94-9.365 39.27v-.08zm-68.697-9.15a67.054 67.054 0 01-13.748 3.37 46.136 46.136 0 005.858-7.55c2.431-3.81 4.065-7.79 5.658-11.6 1.674-3.82 3.268-7.39 5.38-10.24a164.722 164.722 0 01-3.148 26.02zm-240.84 241.5c1.116-3.82 3.069-7.63 5.101-11.65.916-1.85 1.873-3.73 2.789-5.58 7.053-14.98 10.56-31.64 10.201-48.11 0-2.33-.199-4.66-.398-7.06-.439-7.35-.797-14.34 1.394-19.92 1.116-2.81 2.072-5.58 2.989-8.19 1.833-5.59 3.228-9.12 5.379-11.81 1.395.64 2.869 1.2 4.463 1.65 6.854 1.96 13.628 1.52 19.645 1.12h1.754c25.064-1.48 49.889 1.49 73.837 8.84l1.276.4c6.774 2.04 14.584 4.37 22.434 4.74 13.468 17.95 39.887 20.64 59.931 14.97 9.364-2.69 18.17-6.7 26.618-10.52 9.285-4.17 17.971-8.19 27.057-10.32 16.895-4.09 34.986-1.32 48.534 7.35 13.987 9.04 23.271 24.94 23.63 40.56.358 16.1-9.006 32-22.713 38.55-16.139 7.63-36.262 3.41-55.747-.68l-3.706-.73c-22.554-4.65-51.085-7.83-71.607 9.68-6.096 5.22-10.479 11.53-14.743 17.59-4.144 5.94-8.049 11.6-13.07 15.26-9.723 7.07-24.188 7.07-36.899 6.3-34.508-1.64-69.096-6.42-102.767-13.93-5.818-1.33-12.313-3.09-14.904-6.79-1.793-2.61-2.072-6.98-.677-11.84l.199.12zm311.968-115.49c-15.78-6.71-34.03-8.27-51.762-4.1-4.702 1.13-9.245 2.69-13.708 4.38 4.822-10.72 7.611-22.33 8.249-34.05 10.201.44 20.482 1.76 31.161 3.17 7.89 1 15.859 2.05 23.749 2.69.637 0 1.275 0 1.952.08-.757 8.27-.836 18.15.439 27.75l-.08.08zm-94.877 12.29s-.359.64-.558.92c-3.626 1.4-7.133 2.81-10.759 3.81-11.397 3.26-25.024 2.9-34.229-2.61 6.973-4.81 11.237-11.72 14.943-17.95 1.394-2.32 2.709-4.57 4.184-6.7 8.806-12.57 25.223-20.76 45.346-22.97-1.115 16.74-7.889 33.01-19.127 45.5h.2zm11.037 101.95c-.478 5.86-3.347 12.01-8.168 17.07-4.981 5.18-12.034 9.48-21.518 13.09-5.738 2.25-10.281 3.37-14.465 3.65-2.67.16-5.539 0-8.408-.48 2.869-3.45 5.34-6.99 7.771-10.52 3.706-5.38 7.252-10.4 11.516-14.05 8.806-7.51 20.84-9.28 33.193-8.76h.079zm-53.953 185c5.817-3.25 10.36-7.83 14.464-11.72l2.869-2.78c2.312-2.24 4.822-4.29 7.332-6.26-.757 2.33-1.593 4.78-2.51 6.91-2.71 6.5-6.137 14.05-11.396 19.63-4.822 5.22-10.68 8.2-16.258 8.28-2.112 0-2.511-.29-2.869-.37-2.112-.92-3.786-4.73-5.539-8.83 5.26-1.04 9.802-2.61 13.787-4.86h.12zm-198.641-2.97c.358-.92.438-1.85.558-2.81 3.785-3.13 8.248-5.1 12.592-4.62 2.032.28 3.905-.28 5.459-1.24 8.248 2.61 16.417 4.77 24.944 5.78 9.564 1.2 19.008 1.04 28.213.84 6.853-.08 13.349-.28 19.764.2 10.918.73 21.797 2.97 33.273 5.3 11.675 2.41 23.55 4.74 35.783 5.46-2.949 2.17-6.575 3.66-9.922 4.22-7.491 1.37-15.66.36-24.267-.68-2.431-.24-4.941-.52-7.332-.81-18.729-1.88-37.457-.76-55.667.37-21.678 1.28-42.08 2.61-62.282-.93-.678-.12-2.71-.48-3.188-.76-.359-.56-.638-3.81 2.072-10.4v.08zm-30.882 93.52l.996-1.68c7.133-12.17 11.954-25.42 14.385-39.36.917-5.22 1.395-10.52 1.953-15.9.358-3.73.717-7.27 1.195-10.8 3.427 2.33 7.133 3.17 10.281 3.73 22.354 3.9 44.908 2.49 66.705 1.21 18.25-1.13 35.424-2.17 52.679-.4 2.311.2 4.622.56 6.933.84 5.937.76 12.074 1.49 18.29 1.49 3.786 0 7.691-.28 11.596-1.01 6.017-1.12 12.392-3.81 17.891-7.91 2.511 4.1 5.818 7.91 11.038 10.12 2.949 1.33 6.296 1.97 9.922 1.97h.439c10.48-.08 21.238-5.3 29.487-14.14 7.252-7.83 11.715-17.1 15.023-25.21 3.267-7.91 6.335-17.03 5.658-26.71 4.104-1.97 8.248-3.73 12.552-5.14 8.886-2.85 18.888-4.82 29.647-5.74 2.59-.2 5.299-.4 7.89-.56 2.151-.08 4.343-.28 6.574-.48 1.116 8.11 1.674 16.3 1.315 24.37-.079 2.33-.279 4.78-.836 6.63-.758 2.33-2.312 4.73-4.344 7.83-7.252 10.96-14.026 22.32-20.681 33.57-3.825 6.42-8.089 13.57-9.763 22.24-1.275 6.51-.836 12.65-.358 18.52.279 3.45.478 6.78.358 9.87-.717 15.71-12.791 30.32-28.172 33.86-8.726 2.04-18.17.92-28.212-.21-2.67-.24-5.379-.64-8.049-.8-12.433-1.12-30.524-1.4-44.351 9.48-4.622 3.61-7.969 7.99-11.317 12.09-3.785 4.73-7.013 8.95-11.117 10.8-7.97 3.73-18.37-1.21-29.288-6.51-2.431-1.12-4.742-2.25-7.173-3.25-13.707-6.06-28.65-9.32-43.753-8.96-6.694 0-13.149.85-19.485 1.49-7.053.76-13.708 1.61-20.283 1.41-13.627-.28-27.375-4.38-40.166-8.64-5.021-1.68-10.56-3.73-12.353-6.98-2.67-4.94 2.431-13.5 6.894-21.05v-.08zm243.031 51.72c-.916 5.79-3.307 11.73-5.738 17.79-3.786 9.28-7.691 18.88-12.154 27.83l-.159.16c-2.231 2.33-4.543 4.66-6.894 6.79-5.538 5.14-13.906 11.08-21.876 10.36-8.248-.76-15.102-8.39-20.681-16.59 5.021-5.3 7.81-12.72 7.252-20.35-.279-4.02-1.514-8.12-3.546-11.85 5.021-3.69 8.727-8.35 12.153-12.65 2.79-3.53 5.38-6.79 8.249-9.12 6.575-5.22 16.417-6.98 31.161-5.58 2.59.28 5.1.57 7.69.85 1.116.08 2.351.28 3.427.36 1.395 3.25 1.873 7.47 1.116 12zm-251.678 5.43c-1.395-1.41-1.953-3.94-1.275-5.79.637-1.84 2.67-3.45 4.702-3.61 1.873-.2 3.427-1.04 4.821-2.05 14.186 4.62 29.328 9.2 45.546 9.48 7.771 0 15.382-.64 22.713-1.49 6.137-.64 11.955-1.32 17.733-1.4 12.313-.36 24.825 2.41 36.062 7.35 2.231.92 4.343 2.04 6.694 3.09 9.245 4.33 20.004 9.55 31.241 9.55.558 0 .996-.08 1.554-.16 1.674 2.21 2.789 4.62 2.989 6.95.199 2.81-1.036 5.78-2.989 7.11-1.753 1.08-4.543 1.56-7.133 1.77-8.328.8-16.696.44-24.944-1.25-10.759-2.21-20.96-6.38-31.799-10.96-9.922-4.1-20.203-8.39-31.081-11.09-11.038-2.69-22.155-3.61-30.603-4.09-9.085-.56-18.37-.72-27.615-.56-5.937.12-13.548.2-16.696-2.97l.08.12zm-48.296 111.35c1.116-1.57 2.232-3.17 3.228-4.74 8.727-13.57 12.911-28.75 16.975-43.45.837-2.97 1.674-5.94 2.511-8.95 3.705-12.81 8.806-26.87 18.09-36.83 7.85 4.46 17.255 4.38 24.467 4.26 8.727-.16 17.533 0 26.26.56 7.69.48 17.612 1.21 27.176 3.66 9.523 2.33 18.728 6.14 28.371 10.24 11.198 4.61 22.714 9.47 35.226 12 6.575 1.29 13.349 2.05 20.043 2.05 3.507 0 7.053-.2 10.56-.56.837 0 1.673-.2 2.51-.4 8.049 12.65 19.286 25.62 35.903 27.1 12.114 1.01 24.108-4.01 36.142-15.18 2.59-2.41 5.1-4.94 7.531-7.43 4.981-5.14 9.803-9.95 15.182-13.33 6.137-3.69 15.023-5.38 19.964-1.4 3.227 2.73 5.26 8.03 6.216 16.22 2.032 19.15-1.793 39.15-10.599 56.3-3.029 5.94-6.376 10.32-9.803 13.57-1.235.64-2.351 1.49-3.148 2.49-.956.68-1.952 1.41-2.989 1.89-8.168 3.89-18.648 2.49-29.686 1l-5.18-.64c-5.938-.72-11.676-1-17.454-1.12-.438 0-.797-.29-1.354-.29-.558 0-1.036.21-1.594.29-27.894 0-53.237 7.34-72.244 21.32-4.463 1.77-8.328 4.94-11.118 9.31-2.988 2.7-5.738 5.18-8.726 6.31-7.97 3.17-18.45-2.33-28.651-7.71l-4.264-2.25c-27.734-14.13-62.321-19.92-102.847-17.11l-2.51.2c-7.491.53-14.544 1.01-20.761-.68-5.02-1.36-10.4-5.18-11.037-9.84-.638-4.94 3.227-10.6 7.411-16.66l.199-.2zm-3.546 58.18c-2.231-2.32-5.539-3.37-8.886-2.53-1.753-.76-3.547-1.56-4.104-2.69-.718-1.2-.638-3.81 0-7.63.199-1.04.677-3.37 1.315-4.21.637-.93 1.394-1.57 2.032-2.05a37.266 37.266 0 0011.795 5.62c9.244 2.49 18.648 1.85 26.897 1.21l2.391-.2c37.178-2.61 68.538 2.53 93.204 15.18l4.064 2.12c9.404 4.94 20.522 10.81 32.117 10.81 2.79 0 5.659-.49 8.528-1.33 0 4.22.079 8.59.637 12.93-20.202 3.45-37.536-.52-57.5-5.3-8.248-1.93-16.776-3.98-26.14-5.66-4.822-.85-10.958-.28-17.334.36-4.742.48-11.795 1.2-14.186.48-4.542-1.4-9.005-3.17-13.468-4.86-4.264-1.64-8.527-3.33-12.871-4.74-6.495-2.12-13.07-3.61-19.406-5.02-3.068-.72-6.017-1.48-9.085-2.24v-.25zm189.277 1.49v-.12l2.151-1.93c1.196-1.04 2.511-1.97 3.786-2.89 1.594-.64 2.989-1.69 3.905-3.09 13.708-9.28 31.32-14.58 51.005-15.82-.279 8.59-.837 17.71-2.59 26.34-2.431 12.37-6.894 22.61-13.19 30.52-2.789 3.53-5.459 5.98-8.248 7.35-3.148 1.6-7.412 2.33-11.396 2.89-5.46.76-11.795 1.48-16.139-.56-3.825-1.69-7.053-5.95-8.806-11.25-1.953-5.94-2.032-12.85-2.032-19.35 0-4.66.079-8.76 1.394-12.01l.16-.08zM79.382 2380l1.673-2.61c14.824-23.37 21.717-51.36 19.287-78.9a166.89 166.89 0 00-1.116-9.68c-.916-7.15-1.753-13.98-1.116-20.36.558-5.5 2.989-11.65 7.053-15.1 4.065 1.13 8.169 2.13 12.353 3.09 6.176 1.37 12.114 2.77 17.892 4.66 3.984 1.29 7.969 2.77 11.954 4.34 4.901 1.89 9.723 3.81 14.744 5.34 5.937 1.77 13.428 1 21.438.24 4.423-.44 9.922-1 12.233-.52 8.727 1.56 17.055 3.53 25.024 5.38 15.382 3.73 30.245 7.27 46.463 7.27 6.495 0 13.269-.69 20.402-2.05 3.706 7.35 9.364 13.01 16.058 16.1 4.981 2.21 10.082 2.97 15.023 2.97 3.985 0 7.77-.48 11.397-1.04 5.299-.72 11.396-1.77 17.174-4.74 5.1-2.61 9.802-6.58 14.345-12.29 8.169-10.24 13.827-23.17 16.816-38.51 1.913-10.04 2.67-20.19 2.949-29.67 2.51.16 4.901.28 7.411.64l5.021.64c9.006 1.21 18.808 2.53 28.451.93-4.064 16.94-6.774 35.58-2.59 53.89.757 3.45 1.754 6.78 2.79 10.16 1.474 5.02 2.948 9.75 3.347 14.41.438 5.58-.558 11.73-1.475 17.67l-2.988 18.43c-.279 1.77-.558 3.62-1.116 4.66-.637 1.2-2.231 2.69-3.706 4.18-9.842 9.39-19.924 19.07-32.077 23.65-15.142 5.66-32.197 3.05-50.089.24-7.411-1.08-15.102-2.29-22.713-2.85-16.138-1.21-28.093 1.77-36.54 9.11-10.281 9-12.632 21.97-14.744 33.41-1.594 8.36-2.989 16.27-7.133 21.57-4.184 5.3-12.273 8.67-21.358 8.83-8.607.2-17.493-1.93-26.857-4.25l-2.232-.57c-31.559-7.71-63.995-13.33-96.352-16.58h-1.115c-8.17-.92-15.98-1.65-22.355-4.74-4.822-2.33-10.042-7.27-10.042-12.65 0-4.46 3.268-9.48 6.695-14.7h-.28zm189.077 54.98c6.336-8.72 8.368-19.16 10.122-28.55 1.753-9.68 3.227-17.95 8.726-22.69 4.463-3.94 11.955-5.42 22.913-4.58 2.311.2 4.702.48 7.053.76 4.064 6.51 6.734 13.78 7.69 21.41.359 2.85.558 5.74.638 8.63.359 8.11.757 15.74 0 23.17-3.626 4.46-6.695 9.2-9.643 13.69-5.38 8.2-10.48 15.91-17.254 20.84-8.05 5.75-19.287 6.79-28.651 3.42 2.112-3.05 3.706-6.39 4.543-9.92 2.231-9.24-.359-18.99-6.216-26.18h.079zm-207.327-4.74c2.59-2.33 11.755-5.1 15.939-5.22 8.726 3.65 17.971 4.66 26.219 5.5h1.116c31.56 3.25 63.079 8.67 93.881 16.18l2.192.57c9.683 2.45 19.685 4.85 30.244 4.85h1.475c8.089-.2 15.58-2.16 21.996-5.3 2.231 2.69 3.347 6.59 2.51 9.84-2.032 8.48-13.827 13.21-18.728 14.9-15.023 5.02-34.229 0-52.878-4.94-10.121-2.69-20.482-5.38-30.404-6.58-12.512-1.49-24.307-1.21-35.624-.85-18.17.44-35.504 1.01-52.4-6.78-3.984-1.77-8.049-3.94-11.037-6.63-1.833-1.69-2.391-2.77-2.51-3.33-.36-1.21-.28-4.86 8.009-12.09v-.12zm-26.539 139.1l.478-1.2c5.818-16.83 11.955-36.95 12.313-58.23v-9.32c-.08-6.42-.279-12.37.837-18.03 1.036-5.34 3.148-10.72 5.579-15.94 1.753.92 3.586 1.89 5.379 2.69 20.76 9.6 40.963 9.04 60.529 8.47 10.679-.28 21.717-.56 32.954.77 8.607 1 17.971 3.53 27.893 6.14 14.385 3.82 29.049 7.71 43.315 7.71 6.853 0 13.628-.92 20.202-3.05a72.043 72.043 0 0011.317-4.94c16.417 10.04 38.772 9.76 54.432-1.61 9.564-6.86 15.86-16.46 21.916-25.66 3.029-4.65 5.938-9.11 9.165-12.93.279-.28.479-.56.758-.84 3.506-4.1 7.411-7.35 12.034-9.12 10.479-4.01 22.713.93 29.049 4.18 7.85 4.1 13.349 8.76 16.297 13.98a24.037 24.037 0 012.869 8.27c-.837 4.74-1.115 9.59-.717 14.41-1.235 4.74-3.068 9.32-5.22 13.21-4.981 8.84-11.954 16.67-19.286 24.86-3.148 3.54-6.217 6.99-9.245 10.6a289.025 289.025 0 00-5.658 6.99c-6.416 7.99-12.353 15.54-19.964 20.76-6.216 4.18-13.907 7.07-21.319 9.76-4.064 1.48-7.969 2.77-11.795 3.61-1.833-1.28-4.263-1.84-6.734-1.48-1.793.28-3.267 1.2-4.582 2.33h-3.507c-2.112 0-4.064-.2-6.296-.08-12.353 0-34.508 2.61-47.658 19.79-3.347 4.38-5.658 9.12-7.89 13.78-1.394 2.81-2.709 5.42-4.104 7.75-.637.36-1.275.64-1.833 1.2-1.195 1.13-1.873 2.49-2.431 3.9-.438.36-.836.84-1.275 1.12-3.984 2.41-9.922 2.41-16.696 2.21-48.893-1.57-98.225-5.3-146.72-11.16-6.295-.73-11.953-1.49-17.413-2.77-2.51-.57-5.22-1.41-7.053-2.7-2.789-2.04-4.463-6.7-4.263-11.72.279-5.58 2.191-11.37 4.423-17.51l-.08-.2zm336.355 86.09c-1.196 12.45-6.017 24.46-11.676 37.67-5.3 12.41-11.516 24.22-21.358 27.47-3.507 1.12-7.77 1.28-11.755 1.12-5.101-.12-10.281-.56-15.381-.92-7.89-.56-15.86-1.13-24.029-.96-1.872-.37-3.705-.37-5.459.4-1.673.16-3.467.28-5.1.44-22.076 3.17-39.609 16.46-44.709 33.69-2.033 6.91-2.033 13.85-2.033 19.92v4.82c-.119 4.93-.677 9.87-1.514 14.73-.358 1.77-.438 2.21-.358 2.21-.279.28-1.116.64-2.391 1.13a124.194 124.194 0 01-24.029 7.14c-29.128 5.79-128.349 21.69-146.161 16.23-9.922-3.1-17.055-7.35-19.007-11.57-.28-.64-.478-2.21-.638-3.61l-.2-1.77c-7.61-55.01-6.295-98.26 3.786-135.97 1.315.28 2.63.48 3.706.68 14.385 2.41 30.165 4.82 49.81 7.43 23.39 3.06 47.658 5.95 72.045 5.95 12.711 0 25.422-.73 38.054-2.69 10.002-1.57 22.434-4.38 32.277-12.17 10.639 3.89 23.829 2.57 34.946-4.22 11.317-6.78 19.207-17.47 25.981-27.99l2.471-3.81c5.22-8.19 10.201-15.82 16.696-21.69.677-.56 2.43-2.24 3.706-2.53 1.394-.36 4.184.21 6.415.69 15.501 3.13 29.009 6.5 37.377 15.54 6.934 7.43 10.201 19.23 8.807 32.36l-.279.28zM247.22 2809.15c-.717-2.05-1.753-3.81-2.869-5.38.957-2.17 1.515-4.38 1.873-6.42.996-5.87 1.674-11.73 1.754-17.71v-5.3c0-5.3 0-10.32 1.195-14.62 3.427-11.81 17.334-18.79 29.487-20.56 1.514-.16 2.989-.28 4.463-.36 1.754 1.61 3.547 4.09 4.902 6.22 3.068 4.58 6.335 9.24 7.451 13.98.638 2.89.638 6.22.558 9.11-.399 9.68-2.232 19.16-5.3 28.27-.358.69-.837 1.33-1.195 1.97l-1.395 2.25a148.592 148.592 0 01-31.36 35.54c-4.622 3.81-6.575 4.09-7.332 4.01-1.275-.2-2.949-2.45-5.101-6.34.2-.28.399-.48.558-.76 4.184-6.95 5.101-16.19 2.232-23.9h.079zM37.263 2619.41c6.336 1.49 12.552 2.33 19.406 3.18 48.972 5.86 98.862 9.67 148.273 11.24 1.674 0 3.427.12 5.3.12 6.096 0 13.149-.76 19.645-4.09 1.474 6.02.677 12.81-2.59 18.03-.917.64-1.754 1.4-2.511 2.32-.279.37-.358.85-.558 1.21-6.296 5.86-16.018 8.11-24.745 9.52-34.309 5.3-69.176 1.36-104.8-3.38-19.645-2.61-34.787-4.82-49.132-7.35-3.905-.64-7.61-1.4-9.284-3.05-1.395-1.32-2.312-4.29-2.59-5.22-2.431-7.71-2.59-16.02-.837-23.81 1.474.44 2.948.92 4.343 1.2l.08.08zm257.376-35.17c-.398 6.06-1.793 12-4.463 17.43-1.315 2.57-1.115 5.38 0 7.91-2.709 3.81-5.299 7.63-7.69 11.44l-2.431 3.7c-6.495 9.95-12.433 17.58-20.004 22.24-3.745 2.25-8.726 3.82-13.548 3.74 4.264-11.29 3.507-24.5-2.311-35.1 1.674-2.77 3.148-5.66 4.423-8.47 1.953-3.9 3.706-7.63 5.937-10.52 8.647-11.25 25.702-12.53 32.915-12.53 1.952 0 3.825 0 5.778.08h1.474l-.08.08zm-253.55 251.13a82.563 82.563 0 008.248 3.1c4.064 1.2 10.4 1.76 18.17 1.76 44.231 0 136.04-17.3 137.076-17.5 8.607-1.65 16.976-4.26 25.025-7.35v.2c.837 2.41.558 5.74-.718 7.91-2.988 4.82-8.925 8.35-15.301 11.72-25.144 13.3-52.519 25.5-81.329 36.26-19.127 7.11-41.92 14.82-65.948 18.16-5.738.84-12.233 1.32-16.139-1.21-3.506-2.21-5.857-7.43-7.331-16.18-2.112-12.21-2.67-24.46-1.834-36.75l.08-.12zm372.974 177.74c2.231 3.37 4.264 6.98 6.216 10.6 4.901 8.95 9.922 18.15 18.848 25.05 3.507 2.69 7.133 4.66 10.639 6.51 2.431 1.28 4.822 2.53 7.053 4.1 13.469 9.31 17.334 27.26 21.439 46.26 3.865 18.11 7.969 36.82 20.561 51.35 3.905 4.54 8.368 8.2 12.512 11.73 4.104 3.41 8.01 6.59 10.958 10.32 12.712 15.46 10.48 37.51 8.169 60.84-2.231 21.88-4.463 44.41 4.622 64.97 4.463 10.04 11.317 18.59 17.812 26.78 8.647 10.89 16.896 21.05 17.733 32.85.557 8.11-2.431 16.59-5.579 25.5-2.511 6.99-5.101 14.26-6.216 22.05-1.594 10.44-.359 20.48.757 30.23.637 5.51 1.195 10.73 1.275 15.75.478 19.91-6.495 39.71-13.269 58.9-13.349 37.95-27.057 77.14-47.1 112.4-11.875 20.84-26.22 40.84-40.047 60.28-10.321 14.33-20.96 29.23-32.915 42.24-10.958 11.85-23.311 22.53-36.739 31.64-6.137 4.22-10.759-.16-11.596-1.08-1.195-1.33-4.821-5.86 0-12.21 26.26-34.33 43.593-79.19 51.364-133.16 2.231-15.54 4.024-33.77.279-51.64-.917-4.45-2.192-8.83-3.507-13.01 0-6.7.917-13.33 3.148-19.55 5.738-16.47 14.943-30.08 24.666-44.3 8.169-12 16.497-24.37 23.112-38.99 12.87-28.47 18.608-60.03 16.576-91.19-2.112-32.85-16.696-73.33-51.284-88.23-11.197-4.81-23.072-6.3-34.468-7.79-11.795-1.48-22.913-2.89-32.277-7.83-6.216-3.25-10.48-7.83-11.715-12.36-.917-3.46-.438-7.83.199-13.42 1.953-17.58 2.431-35.45 1.475-53.12-.837-15.34-3.069-32.93-12.991-47.35-9.922-14.53-30.762-25.62-49.77-17.79-4.741 1.97-6.973 7.43-5.02 12.21 1.952 4.74 7.411 6.95 12.153 5.02 9.564-4.01 21.438 2.49 27.336 11.08 7.332 10.69 9.005 25.1 9.762 37.87.917 16.63.439 33.49-1.474 50.88-.677 5.86-1.395 12.49.359 19.27 2.59 9.84 10.001 18.44 21.039 24.18 12.353 6.42 25.702 8.19 38.573 9.8 10.679 1.36 20.681 2.57 29.487 6.38 26.897 11.57 38.334 44.98 40.087 72.32 1.833 28.19-3.347 56.58-15.023 82.36-5.937 13.09-13.548 24.26-21.597 36.18-4.941 7.27-9.962 14.62-14.505 22.45a386.45 386.45 0 013.348-11.93c5.02-17.02 10.201-34.61 6.774-53.2-2.112-11.57-7.691-23.09-16.418-34.1-25.582-32.36-65.908-46.86-105.716-57.78l-10.4-2.77c-33.193-8.96-67.382-18.15-93.164-39.27-25.144-20.64-41.202-59.35-25.343-87.95 1.474 0 2.869-.08 4.383-.28 13.15-1.84 26.698-10.96 34.309-23.25 4.981-8.11 8.249-16.82 11.397-25.22 3.227-8.63 6.296-16.82 11.037-23.73 3.427-5.02 7.97-9.59 12.712-14.33 4.702-4.74 9.643-9.68 13.787-15.42 8.01-11.01 12.353-23.45 16.617-35.46 2.789-7.91 5.379-15.38 8.886-22.25 6.893-13.41 17.732-25.14 30.603-32.93 1.673-1.04 3.347-1.96 5.1-2.97 6.695-3.81 14.306-8.03 19.765-15.18 3.546-4.57 5.578-10.44 6.017-16.18 21.239-.76 43.235 9.48 55.109 27.27l.08-.4zm-80.572-33.98c0 .85 0 1.61.159 2.45.956 3.05 3.347 5.22 6.137 6.15-.359 1.08-.757 2.21-1.475 3.05-3.267 4.17-8.527 7.19-14.185 10.44-1.873 1-3.826 2.13-5.659 3.25a101.622 101.622 0 00-37.457 40.36c-4.104 8.03-7.053 16.38-9.922 24.57-3.905 11.29-7.73 21.89-14.026 30.72-3.347 4.66-7.492 8.84-11.954 13.3-5.101 5.14-10.401 10.52-14.824 16.94-6.057 8.84-9.683 18.43-13.11 27.83-2.948 7.91-5.738 15.34-9.723 21.84-4.622 7.55-13.349 13.62-21.159 14.7-4.263.68-7.571-.24-10.201-2.69-2.59-2.33-4.542-6.22-6.296-12.37-6.375-22.81-3.506-47.46-.836-71.27v-.93c3.147-1.56 6.216-3.25 9.085-4.94 47.219-27.06 89.418-61.6 125.201-102.72 3.826-4.45 7.532-8.83 10.002-14.41.837-1.77 1.395-3.66 1.873-5.5 5.937-.57 11.954-.85 17.892-.65h.478v-.12zM297.03 2965c-2.231 2.05-3.507 5.02-3.068 8.31.279 1.77 1.116 3.25 2.231 4.54-1.474 3.17-3.985 6.22-6.933 9.6-34.508 39.55-75.033 72.76-120.46 98.82-8.368 4.74-17.254 9.56-26.538 10.96-6.854 1.05-16.139 0-21.518-5.94-4.623-5.14-6.017-13.13-6.774-22.25 4.742-2.53 8.926-5.86 12.99-9.19 26.618-21.69 55.548-40.6 85.952-56.14 3.626-1.85 7.252-3.62 10.958-5.46 13.149-6.55 26.897-13.33 39.329-22.17 4.822-3.45 11.038-8.19 15.581-14.78 1.952-2.81 3.427-5.7 4.702-8.47 4.184.84 8.169 2.97 10.759 6.31 1.394 1.76 2.231 3.81 2.789 5.98v-.12zm77.424-98.06c-3.028 8.63-11.954 15.82-26.578 21.32-5.38 2.05-10.958 3.69-16.417 5.38-7.253 2.25-14.744 4.58-22.076 7.55-16.696 6.87-28.651 16.46-35.624 28.47-1.116 1.85-2.032 3.82-2.869 5.66-3.546 1.85-5.658 5.79-4.901 9.88 0 .28.159.44.279.64-.837 1.77-1.674 3.34-2.71 4.82-2.869 4.22-7.252 7.55-11.038 10.24-11.317 8.03-23.749 14.18-36.819 20.68-3.706 1.85-7.412 3.7-11.118 5.58-31.639 16.11-61.684 35.74-89.976 58.71-3.865 3.18-7.571 6.15-11.396 7.63-2.949 1.13-6.097 1.01-7.611-.2-2.75-2.21-3.029-9.39-3.228-13.65-1.315-31.85-5.38-68.23-26.26-97.14l-2.51-3.37c-3.985-5.38-7.77-10.4-7.85-15.18 0-4.82 3.706-10.04 8.05-15.42 1.753-.2 3.426-.4 5.18-.56 25.98-3.66 50.925-12.21 69.773-19.2 29.647-10.96 57.739-23.53 83.64-37.18 2.79-1.49 5.459-3.09 8.169-4.78 3.228 4.94 8.129 10.16 15.74 11.56 9.205 1.57 16.696-3.45 22.275-7.91a167.494 167.494 0 0035.225-40.03l1.036-1.65c1.116-1.04 2.032-2.17 2.59-3.65.08-.28.16-.57.279-.85 2.311-3.53 4.623-6.58 7.412-8.55 2.869-1.93 6.973-3.05 11.675-3.25 10.401-.16 21.239 3.89 28.571 11.52 8.607 8.96 12.911 21.81 16.497 34.26 2.869 9.87 5.38 20.19 2.431 28.75l.159-.08zm22.634-146.37c7.132 3.25 14.464 5.02 21.637 6.78 4.702 1.13 9.245 2.25 13.508 3.74 25.503 8.83 43.036 35.26 39.25 58.91-1.952 12.08-10.878 23.45-23.271 29.55-10.599 5.22-21.637 5.42-30.324.69-2.988-1.61-5.937-3.66-8.926-5.71-8.527-5.74-19.485-13.01-30.961-11.44-2.59-4.38-5.579-8.47-9.205-12.29-10.918-11.24-26.778-17.83-42.438-17.11-4.463.21-8.567.85-12.273 2.05.279-2.41.478-4.74.558-7.15.199-4.21.199-9.11-.996-14.25-1.395-5.86-4.184-10.96-7.053-15.46.916 0 1.833.12 2.669.2 5.499.36 10.958.84 16.338.92 5.379.12 11.795 0 17.971-2.04 16.896-5.47 25.702-21.41 32.675-37.79v-.16c4.423 9.03 11.317 16.1 20.761 20.36l.08.2zm78.739-154.36l1.116.64c6.973 3.82 13.627 7.43 18.09 12.57 12.792 14.62 6.775 39.07-2.231 55.54-6.017 11.08-12.154 18.23-19.207 22.72-7.77 4.82-17.254 5.67-23.629 2.01-3.348-1.85-6.416-5.1-9.644-8.55-1.952-2.05-3.825-4.1-5.857-5.94-15.66-14.5-27.256-20.36-47.18-13.58-2.351-8.19-6.216-15.46-11.596-21.32-13.07-14.14-32.834-18.15-47.219-21.12-3.905-.85-9.364-1.97-15.023-.36-.199 0-.358.16-.637.16.279-2.13.358-4.26.438-6.39 4.822-1.12 9.364-2.61 13.469-4.09 8.527-3.18 17.254-6.35 25.422-11.93 9.923-6.79 17.055-15.82 23.989-24.58 1.793-2.2 3.546-4.45 5.379-6.58 2.869-3.46 5.858-6.79 8.807-10.16 6.335-7.07 12.831-14.42 18.21-22.69 3.786 8.27 8.527 15.9 13.628 22.25 14.624 18.31 34.468 30.6 53.874 41.2l-.199.2zm.757-174.28l4.064 1.57c8.528 3.25 16.617 6.42 20.044 12.28 2.112 3.54 2.67 8.56 3.148 14.14.916 10.6 1.594 20.84-.757 30.24-2.312 9.31-7.571 16.66-14.186 19.71-10.361 4.86-23.829-.36-32.994-6.94-1.395-1.05-2.789-2.05-4.184-3.18-3.985-3.09-8.169-6.22-13.15-8.67-6.694-3.25-14.305-4.74-21.797-4.38-.677-1.36-1.235-2.77-1.952-4.09-4.941-8.44-12.711-15.42-23.949-21.21-15.739-8.07-31.439-9.95-44.111-5.09-.837.28-1.594.72-2.351 1.08-.08-2.97-.159-5.86-.359-8.71-.199-3.38-.358-6.71-.757-10.08-.637-5.38-2.032-10.77-3.984-15.91 17.094 2.41 34.508 3.9 51.483-2.41 14.186-5.3 25.423-15.25 35.345-24.65 1.833 3.25 4.263 5.94 6.654 8.27 12.791 11.93 27.455 21.32 43.594 27.75l.199.28zm7.412-182.39l3.068 2.61c8.169 6.79 15.939 14.22 23.191 21.97 2.391 2.49 4.981 5.46 6.854 8.55 2.391 4.1 3.786 9 5.18 15.14 1.953 8.87 3.547 17.99 4.463 26.98 1.196 11.57 0 18.64-3.905 22.17-4.543 4.18-12.99 3.33-16.417 2.77-3.347-.52-6.655-1.36-10.002-2.21-5.021-1.32-10.121-2.61-15.7-3.17-11.675-1.12-22.155 2.25-28.81 9.04l-10.48 8.07.996-6.39c1.116-6.7 2.351-14.33 1.674-22.25-.558-6.54-2.311-12.48-4.064-18.15-.837-2.97-1.754-5.86-2.431-8.95-4.423-19.72 1.116-41.2 6.615-60.56 5.18-4.73 9.922-10.88 14.066-18.91.677-1.2 1.116-2.41 1.793-3.69a70.92 70.92 0 001.913 3.89c5.658 9.6 13.906 16.39 21.796 22.89l.2.2zm19.087-165.28l1.594 2.05c2.59 3.53 5.937 7.91 10.958 10.8 5.1 2.97 10.559 3.53 15.022 4.01 1.355.16 2.75.29 4.065.45 14.265 2.45 24.108 16.02 28.451 27.94 4.662 12.45 5.658 26.15 6.694 40.56l.758 8.76c.438 5.18.836 10.12 0 14.41-.758 3.54-2.71 6.43-4.942 7.27-3.865 1.57-10.36-2.17-14.903-5.14-8.447-5.38-16.696-11.24-24.785-17.47-2.59-1.96-5.738-4.49-9.723-5.98-3.427-1.29-6.774-1.65-9.842-1.93-9.364-.84-19.486-1.12-29.288 1.93-1.754.56-3.626 1.49-5.499 2.69.119-5.1 0-10.2-.558-15.34-1.355-13.29-5.658-22.61-12.871-28.55-8.886-7.27-20.482-7.75-30.603-4.74 0-.2.08-.28.199-.48 2.59-6.43 5.539-13.77 6.774-21.69.518-3.81.797-8.75 0-13.97 3.786-.16 7.691-.52 11.556-1.49 12.632-2.97 23.67-10.96 31.36-21.4 10.122 2.89 19.207 8.88 25.583 17.15v.16zm44.151-133.6c10.56 8.83 17.533 19.72 19.565 30.72 1.196 6.3.837 13.09.399 18.79-.678 6.95-1.674 14.86-5.021 21.49-2.989 5.94-7.691 10.24-12.632 11.44-11.038 2.61-22.434-8.55-26.897-13.49-2.112-2.33-4.144-4.86-6.216-7.35-5.619-6.91-11.556-13.98-19.167-19.44 6.017-10.08 12.153-20.48 18.928-30.64 2.311-3.45 4.821-7.34 6.295-12.16 1.276-4.1 1.555-8.03 1.674-11.37v-2.25c7.97 3.94 16.019 8.48 22.992 14.26h.08zm-12.313-68.03c-4.742 6.43-12.911 9.32-19.007 10.69-6.137 1.32-12.552 1.68-19.327 2.16-2.749.17-5.538.37-8.248.57-12.233 1-23.63 3.25-33.91 6.58-17.533 5.78-33.871 15.46-47.22 28.19l-3.068 2.97c-3.507 3.46-6.854 6.83-10.56 8.88-3.546 1.93-8.089 3.13-14.186 3.69-15.222 1.33-30.603-1.76-46.821-5.18-11.595-2.45-23.669-4.86-35.903-5.7-7.252-.44-14.385-.28-21.238-.16-8.926.16-17.334.36-25.583-.68-11.874-1.49-23.39-5.38-36.181-10.04-1.594-.56-4.822-1.69-5.459-2.69-1.395-1.85 2.749-9.32 4.821-12.85l.558-.93c5.937-10.72 9.364-22.8 9.922-34.97.359-7.35-.398-14.54-1.036-21.41-.638-6.54-1.195-12.64-.916-18.71.358-8.19 3.347-18.63 10.28-23.37 3.068.92 5.858 1.69 8.089 2.17 34.748 7.79 70.371 12.65 105.876 14.42 3.267.16 6.495.28 9.842.28 10.121 0 20.123-1.13 29.129-4.86 7.77 2.33 16.417 4.66 25.582 4.66 1.116 0 2.311 0 3.427-.08 6.017-.37 12.353-1.97 19.844-4.86 12.074-4.66 21.239-10.4 28.292-17.59 7.611-7.91 12.153-17.75 13.19-27.63 1.474.28 2.948.56 4.343.84l3.626.77c12.433 2.57 25.782 5.3 39.131 5.18.278 2.53-1.196 6.42-4.184 10.8l-1.475 2.13c-4.463 6.42-9.922 14.45-9.563 24.37.478 13.05 10.48 21.89 17.812 28.39 5.02 4.46 10.679 9.8 12.87 15.9 2.232 5.87 1.236 13.06-2.47 18.07h-.279zm31.878-70.99l16.696 20.64c3.348 4.09 6.416 7.91 8.448 12.01 2.789 5.7 4.065 12.93 3.905 22.8 0 4.86-.558 11.81-3.905 15.26-3.546 3.62-10.48 3.34-15.381 1.21-6.894-2.97-12.712-9.2-18.29-15.26-.359-.36-.837-.64-1.275-.92-.279-3.18-1.036-6.35-2.152-9.32-3.626-9.68-10.759-17.03-18.011-23.45-5.26-4.74-11.277-10.04-11.476-15.06-.08-3.82 2.948-8.39 6.295-13.13l1.594-2.33c3.866-5.74 5.938-10.8 6.854-15.26 10.002 2.89 18.729 12.77 26.818 22.73l-.12.08zm29.966-94.45c3.626 5.38 4.742 12.85 5.379 19.36.917 9.31-.359 15.62-3.546 18.07-2.471 1.84-6.934 1.76-10.48-.4-3.985-2.33-6.655-6.43-8.408-10.12 2.67-7.27 4.264-14.98 4.064-23.01-.199-7.51-1.833-15.06-4.622-22.13 3.786 3.53 7.611 7.15 11.197 10.8 2.511 2.49 4.941 4.9 6.615 7.43h-.199zm-2.71-97.42c5.858 13.01 8.567 25.22 7.89 36.3-6.575-5.22-13.15-9.15-19.446-12.85-7.252-4.29-13.668-8.11-19.406-13.41 5.459-1.77 10.68-4.66 14.943-9.48 4.264-4.85 6.495-10.6 7.691-16.58 3.068 5.22 5.937 10.52 8.328 16.02zm-27.415-41.88c1.912 2.05 1.912 7.83 1.833 10.52 0 7.15-.478 15.06-4.463 19.64-3.985 4.53-11.755 6.14-24.546 5.1-7.611-.65-15.302-1.65-22.913-2.69-14.863-1.97-30.324-3.98-45.904-3.34-29.209 1.13-53.596 12.57-66.785 31.37-1.753 2.49-3.427 5.18-4.981 7.91-3.347 5.66-6.336 10.6-10.48 12.93-6.615 3.61-16.617.56-26.26-2.33l-1.394-.4c-26.061-7.87-53.157-11.17-80.214-9.64h-1.873c-4.981.36-9.643.64-13.508-.4-2.989-.85-5.499-2.89-5.778-4.66-.279-1.77.956-4.74 2.311-8.27 4.742-11.89 7.332-22.69 7.81-32.85.279-6.23-.199-12.29-.558-18.15-.358-5.46-.836-10.68-.557-15.7.478-9.04 3.506-16.19 8.168-20 3.786 0 7.332-.4 10.281-.76 21.159-2.25 42.199 1 64.474 4.57 13.07 2.01 26.698 4.18 40.246 5.02 3.427.16 7.133.37 11.117.37 6.854 0 14.465-.65 22.156-2.41 18.648 4.65 38.413 3.13 56.026-4.5 2.032-.93 4.064-1.85 6.096-2.85 6.495-3.09 12.712-6.07 18.091-5.42 6.575.84 11.955 6.7 18.171 13.49 6.614 7.19 14.106 15.38 24.865 18.71 3.148 1.01 6.415 1.49 9.165 1.97 3.905.56 7.611 1.2 9.125 2.69l.279.08zm43.753-28.67c-5.579-16.63-13.07-32.45-22.355-47.43 8.727-1.68 17.334-4.85 24.387-11.08 4.383 19.28 3.706 39.55-2.032 58.51z" fill="#BB615B" fill-opacity=".05"/></svg>