<svg width="121" height="121" viewBox="0 0 121 121" fill="none" xmlns="http://www.w3.org/2000/svg"><g clip-path="url(#clip0_185_2)" fill="#BB615B"><path d="M39.667 97.493c.48-1.231 1.242-2.181 1.43-2.183.284.093 3.492 1.019 7.268 1.941 6.7 1.755 26.268 1.73 28.075-.077.57-.57 1.227.276 1.784 1.974.833 2.925.737 3.02-6.17 4.291-8.14 1.563-19.763.972-27.217-1.346-6.415-2.04-6.321-1.946-5.17-4.6zm6.584-10.155c.574-1.137 3.6-1.156 8.51-.24 4.153.92 8.688 1.27 10.108.977 5.776-1.642 8.516-1.375 9.448.699 1.399 3.11.356 3.59-9.761 4.124-12.388.738-20.125-1.673-18.305-5.56zm-2.254-17.851c.856-.856 1.857-9.937 2.202-20.054.681-18.531.682-18.72 5.339-22.814 3.517-3.14 4.758-5.133 4.964-7.97.113-2.931.686-3.88 2.387-3.89 1.702-.01 2.168 1.026 2.337 4.239.075 3.308 1.196 5.38 5.518 9.703l5.356 5.355.177 17.297c.205 12.95.836 17.955 2.62 19.74 2.068 2.067 2.062 3.013.16 4.915-4.28 4.28-13.273 6.32-19.405 4.373-6.982-2.227-13.842-8.707-11.655-10.894zM65.61 75.12c3.979-1.348 4.17-1.538 2.666-3.042-.94-.94-1.739-9.347-1.587-18.706.103-16.827-.729-19.941-5.077-19.915-4.916.03-6.17 4.103-6.273 20.93.038 9.357-.58 17.49-1.34 18.251-2.093 2.093 6.876 4.023 11.611 2.482z"/></g><defs><clipPath id="clip0_185_2"><path fill="#fff" transform="scale(1 -1) rotate(-45 -73.477 -30.435)" d="M0 0h85.037v86.083H0z"/></clipPath></defs></svg>